<?xml version="1.0" standalone="no"?>
<!DOCTYPE svg PUBLIC "-//W3C//DTD SVG 20010904//EN"
 "http://www.w3.org/TR/2001/REC-SVG-20010904/DTD/svg10.dtd">
<svg version="1.0" xmlns="http://www.w3.org/2000/svg"
 width="1280.000000pt" height="918.000000pt" viewBox="0 0 1280.000000 918.000000"
 preserveAspectRatio="xMidYMid meet">
<metadata>
Created by potrace 1.15, written by Peter Selinger 2001-2017
</metadata>
<g transform="translate(0.000000,918.000000) scale(0.100000,-0.100000)"
fill="#000000" stroke="none">
<path style="fill:#FFFFFF;" id="parte1" d="M7237 9174 c-4 -4 -7 -30 -7 -58 0 -28 -7 -91 -15 -141 -8 -49 -15
-115 -15 -145 l0 -55 -76 -24 -75 -24 -42 39 c-105 99 -106 99 -113 79 -6 -14
7 -32 57 -76 l64 -58 -51 -45 c-28 -25 -57 -59 -64 -76 -9 -23 -17 -29 -29
-24 -80 33 -311 58 -326 34 -13 -21 13 -27 130 -32 82 -4 123 -10 151 -24 38
-18 39 -21 46 -81 4 -35 10 -68 13 -73 17 -27 -374 -159 -578 -196 -35 -6 -58
-27 -44 -40 16 -16 391 87 538 147 l100 41 42 -40 c24 -21 51 -43 62 -49 16
-9 12 -18 -49 -90 -36 -44 -80 -89 -96 -101 -31 -23 -40 -52 -17 -52 21 0 79
54 147 139 44 54 70 78 80 74 8 -3 45 -10 83 -16 l67 -11 -6 -36 c-10 -52 -24
-89 -109 -283 -43 -98 -75 -180 -72 -183 17 -18 39 19 109 177 75 173 104 252
110 298 3 22 11 26 68 37 36 7 80 18 99 23 19 6 37 8 40 5 3 -3 8 -99 11 -212
5 -187 7 -207 23 -210 16 -3 17 10 16 160 0 90 -4 186 -9 213 -10 61 -5 68 75
94 44 15 63 17 73 9 25 -22 91 -144 113 -210 21 -65 49 -92 49 -49 0 37 -52
160 -95 225 l-43 65 27 17 c14 9 47 34 73 56 l46 38 35 -20 c19 -11 76 -29
128 -40 52 -11 153 -36 224 -55 151 -40 210 -47 210 -26 0 10 -26 20 -81 32
-45 10 -114 27 -153 39 -40 12 -116 30 -171 40 -95 18 -165 44 -158 58 2 4 11
25 22 48 l18 41 202 12 c110 7 239 17 286 22 46 6 106 7 132 4 40 -6 48 -4 48
9 0 9 -12 19 -27 23 -24 5 -498 -20 -608 -33 l-40 -5 -30 63 c-16 35 -31 66
-32 69 -7 11 132 77 220 104 48 15 90 31 93 36 24 40 -149 -5 -272 -71 l-72
-38 -55 28 c-31 15 -62 30 -69 33 -8 3 23 40 85 100 89 87 107 113 91 130 -3
3 -57 -44 -119 -105 l-113 -111 -91 -1 c-50 -1 -91 1 -91 5 0 3 32 76 71 162
64 144 75 184 47 175 -6 -2 -46 -82 -89 -178 l-78 -175 -72 -12 c-40 -7 -75
-10 -78 -8 -3 3 5 81 18 173 13 92 21 178 20 191 -4 25 -20 37 -32 25z m458
-423 c65 -29 102 -64 131 -126 37 -78 33 -98 -34 -164 -69 -68 -138 -114 -201
-137 -25 -9 -62 -22 -81 -29 -223 -83 -410 -77 -524 17 -104 85 -101 249 6
330 84 64 158 90 342 119 158 24 292 21 361 -10z"/>
<path style="fill:#FFFFFF;" id="parte2" d="M7160 8674 c0 -10 -10 -42 -21 -70 -22 -52 -20 -89 4 -82 6 3 13 13
15 24 2 10 10 35 18 55 9 20 14 47 12 59 -4 28 -28 39 -28 14z"/>
<path style="fill:#FFFFFF;" id="parte3" d="M7319 8688 c0 -2 -2 -11 -4 -20 -2 -10 -11 -38 -20 -62 -19 -48 -15
-76 10 -76 10 0 15 10 15 28 1 15 7 38 15 52 19 34 19 80 0 80 -8 0 -15 -1
-16 -2z"/>
<path style="fill:#FFFFFF;" id="parte4" d="M7435 8558 c-2 -7 -8 -29 -14 -48 -23 -74 -137 -170 -203 -170 -33 0
-81 47 -118 117 -17 32 -33 49 -48 51 -15 2 -22 -2 -22 -12 0 -9 4 -16 10 -16
5 0 19 -20 31 -45 28 -59 89 -121 129 -130 45 -10 147 42 200 102 38 44 76
135 64 154 -8 13 -24 11 -29 -3z"/>
<path style="fill:#FFFFFF;" id="parte5" d="M10710 8987 c-25 -8 -70 -25 -100 -39 -44 -21 -70 -26 -127 -26 -92
1 -158 -29 -188 -85 -11 -20 -28 -40 -37 -42 -9 -3 -60 6 -114 20 -105 27
-194 32 -259 14 -38 -11 -91 -54 -112 -93 -11 -19 -12 -19 -70 6 -100 44 -191
61 -295 56 -79 -3 -101 -8 -146 -33 -56 -30 -89 -67 -101 -113 -7 -26 -12 -27
-87 -35 -43 -4 -91 -12 -106 -18 -54 -22 -61 -104 -12 -152 43 -43 105 -51
334 -42 356 15 338 17 401 -32 30 -23 67 -46 82 -52 40 -15 127 -14 223 4 l82
16 68 -46 c162 -108 304 -121 491 -44 l71 30 71 -35 c83 -42 147 -47 197 -17
27 16 44 18 110 14 102 -7 153 7 193 52 17 20 31 42 31 50 0 19 3 19 102 -5
218 -53 312 -56 412 -11 51 22 67 46 64 92 -3 30 0 33 46 48 53 19 96 60 96
94 0 76 -51 152 -129 192 -146 73 -303 85 -414 30 l-57 -28 -33 30 c-38 37
-79 58 -127 67 -49 8 -181 -8 -221 -28 -18 -9 -33 -15 -34 -14 -2 2 -10 19
-20 38 -62 121 -167 171 -285 137z m148 -41 c40 -21 87 -74 116 -133 15 -29
28 -53 30 -53 2 0 24 11 49 25 33 19 66 27 124 32 100 7 142 -6 203 -63 l46
-43 67 34 c85 43 151 51 238 31 168 -39 259 -108 259 -197 0 -34 -24 -69 -47
-69 -7 0 -30 -7 -51 -16 -20 -10 -41 -18 -47 -19 -5 -1 -13 -3 -18 -3 -4 -1
-1 -15 8 -32 24 -46 19 -59 -29 -81 -76 -33 -148 -35 -287 -5 -69 14 -146 32
-172 40 -51 15 -60 11 -72 -36 -4 -14 -18 -37 -32 -50 -23 -21 -34 -23 -136
-24 -93 -2 -119 -5 -152 -23 -54 -29 -69 -27 -165 20 l-84 40 -55 -25 c-155
-68 -284 -74 -401 -18 -36 17 -87 47 -113 67 l-47 36 -78 -15 c-181 -36 -211
-32 -296 33 -67 52 -116 62 -236 51 -311 -28 -449 -22 -497 23 -26 23 -30 68
-9 86 21 18 185 34 202 20 8 -6 21 -9 29 -5 14 5 14 9 -1 32 -17 24 -17 28 -1
57 33 60 135 107 232 107 66 0 170 -27 262 -66 48 -21 88 -33 90 -28 2 5 13
27 26 49 47 85 158 102 338 51 113 -31 138 -26 170 36 27 53 67 71 174 76 63
3 102 10 129 24 97 49 182 61 234 34z"/>
<path style="fill:#FFFFFF;" id="parte6" d="M3436 8874 c-55 -20 -102 -58 -128 -105 -15 -25 -29 -38 -38 -35 -8
2 -55 15 -103 30 -129 38 -283 53 -394 38 -128 -17 -163 -30 -205 -72 l-38
-38 -59 24 c-87 35 -246 57 -361 50 -151 -9 -303 -56 -362 -113 l-27 -25 -96
11 c-167 20 -275 -11 -367 -104 -46 -47 -47 -48 -115 -49 -73 -2 -123 -22
-183 -73 -35 -29 -90 -108 -90 -130 0 -23 61 -82 97 -94 20 -6 77 -12 127 -12
72 1 106 6 165 27 102 36 115 34 166 -19 24 -24 56 -48 72 -52 15 -4 93 -8
173 -7 151 1 254 15 415 57 l90 24 36 -30 c26 -20 56 -32 106 -40 l69 -12 -18
-42 c-16 -36 -23 -43 -48 -43 -35 0 -58 -29 -67 -82 -6 -42 -9 -44 -37 -23
-27 21 -83 18 -135 -5 -24 -11 -45 -19 -46 -18 -1 2 -9 24 -19 51 -20 53 -39
67 -91 67 -31 0 -44 -7 -76 -42 l-38 -42 -34 32 c-74 72 -153 23 -140 -87 3
-28 4 -51 1 -51 -2 0 -19 11 -38 25 -84 62 -136 9 -94 -94 24 -61 14 -67 -39
-27 -47 36 -74 39 -62 9 3 -9 -2 -24 -11 -34 -16 -17 -19 -16 -68 36 -46 49
-56 55 -92 55 -53 0 -70 -20 -76 -88 -3 -29 -8 -55 -11 -58 -3 -3 -25 6 -50
20 -59 35 -106 34 -139 -1 -59 -63 -62 -101 -14 -172 38 -55 36 -58 -17 -36
-69 28 -117 9 -117 -46 0 -24 38 -85 62 -100 7 -5 -11 -11 -41 -15 -56 -7
-105 -39 -116 -75 -10 -30 19 -66 76 -94 53 -27 55 -36 8 -60 -16 -9 -29 -22
-29 -30 0 -21 45 -52 103 -71 l52 -17 -44 -19 c-25 -10 -66 -34 -92 -53 -28
-20 -51 -30 -54 -25 -9 15 -102 60 -123 60 -36 0 -112 -32 -127 -53 -8 -12
-15 -35 -15 -52 0 -29 -5 -34 -78 -68 -102 -48 -126 -70 -118 -111 6 -30 3
-33 -30 -45 -19 -7 -55 -32 -80 -55 -47 -45 -55 -77 -30 -111 13 -17 9 -25
-40 -80 -59 -66 -94 -127 -94 -167 0 -36 41 -76 94 -89 25 -6 46 -15 46 -21 0
-5 -7 -25 -15 -46 -43 -101 -36 -160 20 -186 18 -9 38 -16 44 -16 5 0 2 -18
-9 -42 -29 -64 -26 -113 9 -149 37 -36 65 -37 135 -2 29 14 60 23 67 19 8 -4
25 -13 39 -21 38 -22 99 -18 146 9 l42 24 6 -30 c3 -17 6 -58 6 -92 1 -33 5
-81 10 -106 9 -50 5 -56 -47 -66 -44 -8 -70 -1 -124 36 -60 40 -95 39 -147 -5
l-41 -36 -41 27 c-48 32 -63 28 -95 -27 -16 -27 -19 -49 -17 -122 1 -49 -1
-93 -3 -98 -3 -4 -18 -4 -32 2 -37 14 -67 4 -81 -26 -31 -68 -4 -127 89 -191
48 -35 67 -53 63 -64 -33 -79 -28 -155 19 -247 36 -73 56 -79 194 -58 170 27
327 12 508 -47 50 -16 95 -23 160 -23 50 -1 99 -6 111 -13 42 -22 227 -53 310
-51 l82 2 63 -68 c138 -147 280 -221 523 -271 66 -13 120 -25 121 -27 1 -1 7
-36 14 -77 15 -95 79 -322 121 -425 12 -28 11 -33 -14 -60 -27 -29 -27 -33
-21 -105 9 -102 -5 -120 -123 -155 -131 -40 -352 -159 -437 -236 -16 -15 -27
-16 -59 -9 -43 10 -90 -3 -83 -23 2 -6 21 -12 43 -13 21 0 68 -4 104 -8 122
-15 274 21 480 114 82 37 105 43 165 44 72 1 89 -5 205 -69 50 -27 117 -41
150 -30 12 4 28 22 36 41 14 33 17 34 52 28 20 -3 64 -16 96 -27 80 -27 103
-25 165 17 69 47 119 48 222 6 113 -47 189 -56 285 -35 43 10 102 20 129 24
35 4 50 11 50 21 0 11 -12 15 -45 15 -26 0 -48 5 -53 12 -4 7 -26 22 -47 33
-22 11 -87 65 -145 119 -58 55 -114 102 -124 106 -23 7 -41 46 -41 90 0 77
-47 247 -102 365 -48 103 -88 202 -88 215 0 10 14 9 62 -2 34 -8 77 -12 95 -8
25 4 35 2 39 -10 12 -29 94 -9 94 24 0 15 -33 14 -48 -1 -7 -7 -13 -9 -13 -5
-1 4 -2 10 -3 15 -1 4 -10 25 -20 46 -23 48 -18 112 16 236 l23 85 5 -147 c3
-80 8 -150 12 -153 4 -4 14 -5 23 -1 13 5 14 10 5 27 -8 14 -9 56 -5 127 8
135 -2 196 -32 200 -27 4 -34 -10 -63 -120 l-23 -88 -34 30 c-34 30 -57 37
-67 22 -3 -5 1 -51 9 -103 8 -52 15 -105 15 -119 0 -26 0 -26 -54 -16 -50 9
-55 12 -64 45 -44 154 -48 363 -10 561 l23 124 110 18 c153 23 183 22 287 -12
108 -36 199 -39 409 -15 73 9 138 14 144 11 7 -2 15 -17 18 -33 7 -35 46 -58
96 -56 35 1 101 27 193 78 45 26 47 26 79 10 29 -15 45 -16 153 -6 67 6 150 8
184 5 43 -5 66 -3 71 4 5 8 21 7 58 -4 29 -8 67 -14 85 -12 30 3 34 7 44 48
l11 45 179 -3 c98 -1 269 -7 380 -12 217 -12 452 -2 637 25 238 36 566 98 754
144 343 84 517 91 778 31 136 -31 143 -32 233 -20 54 7 124 9 166 5 61 -6 81
-4 117 12 51 23 87 59 73 73 -5 5 -26 -2 -53 -20 -24 -17 -53 -31 -65 -31 -32
-2 -110 3 -115 7 -12 12 36 42 83 53 56 12 87 35 70 51 -15 14 -145 -34 -170
-63 -12 -14 -23 -30 -25 -36 -2 -6 -47 -13 -99 -17 -83 -6 -109 -3 -205 20
-60 15 -156 32 -212 38 -75 8 -103 15 -103 25 0 8 -16 23 -36 35 -22 13 -33
26 -30 35 3 8 6 20 6 27 0 8 39 16 123 24 131 12 196 28 204 49 9 23 -3 25
-59 9 -29 -9 -103 -20 -163 -25 -104 -8 -111 -8 -133 12 -17 16 -25 18 -34 9
-9 -9 -7 -16 7 -32 13 -15 16 -29 11 -59 -6 -42 6 -64 44 -76 36 -11 21 -23
-37 -30 -137 -15 -216 -29 -338 -60 -184 -47 -290 -69 -529 -110 l-209 -36
-28 33 c-33 39 -50 80 -39 98 6 10 19 9 61 -5 30 -10 67 -24 82 -32 16 -8 36
-12 45 -8 15 6 14 9 -8 26 -13 11 -25 26 -26 32 -1 7 -5 29 -9 49 l-7 38 40
-14 c38 -14 43 -13 66 5 17 13 28 35 32 61 5 26 17 49 38 68 28 27 32 28 48
13 14 -13 21 -14 30 -5 16 16 -17 52 -47 52 -11 0 -37 16 -56 36 -59 62 -189
110 -189 69 0 -8 12 -17 28 -21 52 -11 87 -29 124 -62 32 -29 50 -62 34 -62
-16 0 -234 -45 -298 -61 -106 -26 -170 -25 -238 7 -30 14 -79 28 -108 31 -43
5 -56 11 -73 35 -37 52 -100 71 -153 47 -22 -10 -28 -8 -64 30 -37 39 -42 41
-98 41 -32 -1 -77 -7 -99 -15 -22 -8 -41 -15 -42 -15 -8 0 -1 403 8 440 11 50
55 141 72 152 26 16 79 6 143 -27 37 -19 73 -35 80 -35 14 0 27 35 24 66 -4
34 -1 35 40 14 50 -25 75 -25 100 0 14 14 20 33 20 65 0 65 16 91 74 120 96
48 236 26 288 -46 16 -21 17 -30 8 -54 -6 -16 -8 -36 -5 -44 11 -28 45 25 45
69 0 31 -7 44 -40 73 -80 73 -219 86 -321 31 -62 -34 -80 -62 -86 -135 -7 -68
-17 -73 -83 -39 -21 11 -46 17 -55 14 -19 -8 -29 -45 -20 -74 4 -13 3 -21 -1
-19 -5 2 -33 17 -63 32 -31 17 -71 29 -97 30 -51 2 -52 -7 13 146 39 92 149
319 159 330 2 3 18 -9 35 -25 43 -41 101 -40 192 4 73 36 101 71 95 122 -2 21
7 39 40 74 23 25 42 54 42 65 0 18 -64 84 -90 93 -11 3 -10 9 3 28 9 14 17 35
17 47 0 27 -60 96 -109 128 -33 21 -35 24 -32 74 2 50 1 54 -42 97 -38 38 -50
44 -86 44 -37 0 -49 -6 -97 -52 -30 -28 -57 -49 -59 -46 -3 3 -10 31 -15 62
-5 31 -19 70 -31 87 -21 30 -21 32 -4 68 34 77 1 117 -106 127 -83 8 -155 -8
-210 -48 -38 -28 -42 -28 -59 -13 -40 36 -128 14 -199 -50 l-41 -37 -40 36
c-43 38 -67 43 -115 22 -27 -12 -33 -11 -58 11 -35 29 -79 30 -123 2 -59 -36
-79 -75 -80 -154 -1 -38 -2 -75 -3 -82 0 -7 -17 -12 -39 -11 -45 0 -75 -13
-118 -53 -29 -29 -31 -29 -62 -14 -38 19 -80 10 -138 -28 -61 -42 -74 -17 -21
43 26 29 79 109 95 141 1 4 -9 20 -23 37 -14 16 -25 39 -25 49 0 11 -6 28 -14
39 -10 13 -13 34 -9 67 6 45 4 49 -35 86 -31 30 -41 48 -44 77 -2 30 -8 40
-23 42 -62 9 -65 11 -59 42 5 24 1 35 -24 58 -16 16 -49 34 -71 41 -35 10 -41
16 -41 40 0 47 -35 81 -81 81 -38 0 -40 2 -37 28 l3 27 280 6 c651 15 879 93
878 298 0 158 -129 242 -301 197 -49 -12 -54 -12 -103 12 -39 19 -72 27 -134
30 l-83 4 -4 49 c-7 67 -39 109 -128 167 -129 85 -135 87 -240 87 -83 0 -102
-3 -150 -27 l-54 -27 -34 26 c-77 58 -184 77 -266 47z m171 -35 c55 -20 101
-59 96 -80 -7 -27 9 -24 60 11 65 44 157 65 224 51 63 -12 194 -86 243 -136
31 -32 36 -43 40 -103 l5 -67 105 -5 c87 -4 112 -9 147 -29 40 -23 45 -24 100
-12 142 32 217 5 258 -92 35 -84 2 -174 -80 -219 -114 -62 -310 -94 -655 -108
-256 -11 -357 -7 -402 16 -39 20 -92 17 -149 -7 l-49 -21 -49 21 c-31 13 -71
21 -105 21 -43 0 -56 4 -56 15 0 20 -38 43 -85 50 -29 5 -56 1 -98 -15 -35
-13 -68 -19 -83 -16 -38 10 -101 -12 -142 -49 -37 -33 -37 -33 -61 -14 -29 23
-68 24 -93 2 -17 -15 -20 -15 -41 4 -52 48 -89 53 -154 23 l-42 -19 -38 49
c-43 55 -54 60 -141 60 -69 0 -126 21 -143 51 -13 25 -39 24 -157 -6 -146 -37
-282 -55 -414 -55 -133 0 -162 8 -201 55 -47 58 -81 62 -197 25 -88 -29 -109
-32 -185 -28 -87 4 -123 19 -148 60 -15 23 47 106 107 143 64 39 153 46 219
17 38 -17 48 -18 57 -7 9 11 5 17 -21 30 l-31 17 42 43 c81 83 191 109 360 86
l90 -13 25 30 c29 35 125 76 227 97 96 21 254 19 364 -4 108 -22 144 -39 181
-86 15 -19 34 -35 41 -35 17 0 15 30 -4 51 -15 17 -15 20 0 44 9 13 27 32 40
40 64 42 287 58 433 30 122 -23 261 -73 268 -96 8 -24 35 -25 35 -1 0 10 -7
28 -16 41 -16 22 -15 25 14 64 41 58 100 87 173 87 32 0 70 -5 86 -11z m-1121
-766 c21 -27 39 -50 41 -52 2 -3 24 5 48 17 61 29 96 28 135 -5 l33 -27 -27
-22 c-31 -27 -33 -44 -7 -44 11 0 38 22 62 50 23 28 45 50 49 50 4 0 18 -9 31
-19 19 -16 22 -22 12 -32 -7 -7 -13 -19 -13 -26 0 -27 28 -11 73 41 51 59 99
82 148 72 18 -3 50 2 82 14 61 24 116 26 143 6 15 -12 17 -17 7 -27 -18 -18
-16 -49 2 -49 8 0 15 5 15 10 0 19 134 11 183 -10 l46 -21 60 26 c68 28 80 30
114 14 22 -10 22 -13 13 -55 -6 -24 -16 -44 -22 -44 -17 0 -37 -27 -25 -34 5
-3 32 -1 60 6 70 16 101 2 101 -46 0 -24 -6 -38 -19 -45 -10 -6 -26 -22 -35
-36 -15 -23 -15 -26 -1 -31 9 -4 26 4 42 20 14 14 37 26 50 26 36 0 103 -38
103 -58 0 -22 -32 -58 -60 -67 -19 -6 -26 -25 -14 -38 4 -3 20 1 36 9 17 9 48
14 76 12 45 -3 47 -4 50 -35 3 -30 -1 -35 -42 -55 -43 -20 -55 -36 -40 -51 4
-3 29 5 56 19 46 23 51 24 73 10 13 -9 26 -25 30 -36 9 -28 -21 -74 -57 -88
-17 -6 -28 -16 -25 -24 4 -14 12 -14 65 -3 31 7 32 7 32 -28 0 -26 6 -39 25
-51 l25 -16 -32 -53 c-44 -74 -77 -106 -120 -119 -49 -14 -51 -38 -3 -38 29 0
36 -4 41 -26 9 -36 -22 -100 -74 -152 -42 -42 -44 -43 -63 -26 -26 24 -33 13
-23 -38 5 -24 7 -52 6 -62 -3 -25 -47 -83 -74 -97 -18 -9 -24 -7 -43 17 -21
26 -49 27 -39 1 4 -12 -35 -96 -58 -124 -12 -15 -47 -17 -67 -4 -7 5 -17 32
-22 61 -7 48 -6 55 18 87 21 27 23 36 14 46 -21 21 -71 -48 -71 -98 0 -91 36
-145 98 -145 30 0 68 35 91 85 20 42 23 44 45 34 20 -10 30 -8 56 11 49 35 90
98 90 138 l0 35 24 -26 c43 -47 103 -69 198 -75 l88 -5 -6 -81 c-9 -113 -1
-120 151 -124 133 -4 150 -13 114 -61 -21 -28 -21 -32 -6 -54 14 -22 25 -25
96 -29 90 -5 113 -18 131 -74 14 -42 30 -43 58 -4 l23 30 70 -92 c82 -108 106
-151 115 -206 l6 -40 -123 -6 c-68 -4 -171 -9 -229 -12 -121 -6 -168 3 -413
80 -254 80 -364 97 -652 106 -210 6 -266 11 -347 30 -54 13 -98 28 -98 34 0
23 51 98 180 267 73 96 145 186 158 202 28 30 23 43 -18 49 -19 2 -32 17 -56
66 -17 34 -27 65 -23 68 12 7 11 44 0 44 -6 0 -31 -19 -57 -41 -47 -40 -50
-41 -103 -36 -45 5 -60 2 -83 -14 -41 -29 -63 -22 -63 21 0 39 -27 51 -33 15
-2 -11 -17 -33 -32 -50 -16 -16 -39 -52 -52 -80 -20 -44 -23 -65 -23 -185 0
-104 -4 -143 -16 -171 -16 -35 -39 -126 -39 -154 0 -8 9 -15 20 -15 15 0 20 7
20 27 0 49 32 141 62 177 16 20 63 61 103 92 41 30 124 107 185 171 65 68 110
108 110 98 0 -9 13 -29 28 -45 l29 -28 -145 -189 c-79 -103 -154 -206 -165
-228 -105 -198 -122 -381 -58 -643 63 -262 64 -550 1 -931 -58 -348 -33 -548
101 -844 67 -145 105 -265 119 -367 15 -108 26 -137 61 -156 16 -8 75 -58 133
-113 58 -54 122 -106 143 -116 l38 -19 -45 -14 c-75 -22 -180 -11 -287 32
-135 53 -177 48 -295 -36 -13 -10 -29 -8 -80 9 -88 30 -154 44 -172 37 -8 -3
-20 -21 -26 -40 -10 -31 -15 -34 -49 -34 -26 0 -70 16 -137 51 l-99 51 -85 -4
c-76 -3 -97 -9 -201 -55 -153 -68 -237 -93 -334 -99 l-80 -6 82 56 c110 74
219 129 336 166 132 43 147 61 147 177 0 79 2 87 25 105 30 23 31 46 6 96 -28
55 -108 345 -122 441 -8 57 -9 124 -4 205 4 67 9 173 11 237 3 119 26 234 90
454 39 133 39 310 1 495 -46 226 -66 300 -92 359 -39 85 -54 104 -69 91 -11
-8 -7 -23 19 -73 18 -34 36 -73 39 -87 6 -23 4 -22 -24 10 -58 64 -167 224
-251 368 -46 78 -89 142 -95 142 -6 0 -11 26 -12 68 0 59 -6 78 -49 161 -36
71 -45 95 -34 99 8 3 31 20 52 39 21 19 43 32 49 28 16 -10 38 -57 63 -137 31
-97 154 -294 331 -527 77 -102 200 -271 274 -375 l133 -189 -21 -53 c-25 -60
-35 -71 -70 -76 -32 -4 -33 -32 -2 -36 35 -5 71 24 96 78 13 27 35 65 50 85
43 56 75 134 85 210 10 69 7 117 -19 360 -15 133 -8 356 15 475 9 47 26 140
38 208 21 115 24 123 52 141 44 26 61 49 47 63 -9 9 -18 6 -35 -10 -30 -29
-58 -29 -54 -1 3 32 -21 35 -34 5 -12 -24 -45 -44 -56 -32 -3 2 2 29 12 59 19
62 17 112 -5 112 -10 0 -14 -8 -12 -24 3 -32 -27 -111 -43 -111 -7 0 -32 23
-55 50 -23 28 -46 50 -51 50 -6 0 -27 -37 -48 -82 -21 -46 -47 -91 -58 -101
-46 -40 -80 18 -64 108 11 60 9 75 -14 75 -16 0 -69 -59 -90 -100 -9 -17 -20
-28 -26 -25 -5 4 -23 33 -39 65 -16 32 -35 62 -41 66 -21 13 -48 -35 -55 -97
-10 -91 -51 -116 -99 -61 -19 21 -26 24 -36 15 -10 -10 -9 -16 3 -30 22 -25
48 -79 48 -98 0 -14 -9 -16 -57 -13 l-58 3 -3 -47 c-3 -53 -23 -64 -43 -25
-18 35 -51 67 -69 67 -9 0 -31 -16 -50 -35 -19 -19 -40 -35 -47 -35 -18 0 -16
35 2 54 8 8 15 19 15 25 0 21 -20 21 -42 -1 -13 -13 -37 -28 -55 -34 -31 -11
-32 -10 -42 19 -6 16 -11 31 -11 33 0 1 14 7 30 13 17 5 30 15 30 21 0 24 -30
19 -101 -15 -70 -33 -129 -45 -129 -26 0 17 28 62 46 76 33 24 5 36 -47 21
-25 -8 -85 -15 -135 -17 l-89 -4 -1 45 c0 37 -5 47 -25 57 -35 18 -111 15
-209 -7 -92 -21 -140 -25 -140 -12 0 5 11 14 25 20 14 7 34 25 43 42 11 19 25
30 39 30 33 0 53 10 53 28 0 12 -11 14 -70 8 -56 -5 -70 -3 -70 8 0 7 -13 19
-30 25 -16 6 -43 16 -60 22 -38 14 -38 20 0 42 51 30 41 61 -30 97 -34 17 -64
37 -67 46 -8 22 25 53 66 59 20 3 51 10 69 15 24 6 43 4 68 -6 34 -14 54 -12
54 6 0 5 -22 19 -50 31 -47 20 -120 87 -120 109 0 21 33 22 86 4 54 -18 54
-18 76 3 l21 22 -36 53 c-21 29 -37 65 -37 80 0 28 43 88 63 88 7 0 39 -14 72
-30 33 -16 65 -30 72 -30 20 0 33 35 33 89 0 40 4 52 20 61 31 16 55 4 101
-50 50 -59 72 -67 103 -33 l23 25 41 -21 c53 -27 60 -26 72 4 7 18 4 41 -9 85
-25 78 -12 92 46 50 22 -16 51 -31 64 -32 23 -3 24 -1 24 72 1 96 1 97 26 105
16 6 31 -3 66 -36 l44 -44 49 53 c28 28 58 52 68 52 26 0 51 -30 64 -76 17
-63 24 -67 76 -40 94 47 134 41 148 -22 10 -47 13 -52 30 -52 13 0 16 7 11 36
-5 27 -1 40 14 55 10 10 19 32 19 47 0 65 49 79 67 19 5 -18 17 -33 27 -35 16
-3 17 0 10 30 -4 18 -7 46 -6 61 1 30 38 97 52 97 4 0 25 -21 46 -47z m3038
-593 c32 -12 33 -37 5 -92 l-21 -40 31 -30 c24 -23 31 -41 36 -86 3 -31 10
-67 15 -79 8 -20 13 -21 37 -12 15 5 51 33 81 61 62 59 86 59 140 2 34 -36 36
-50 17 -110 -5 -17 2 -27 44 -53 28 -18 64 -48 81 -68 l31 -35 -20 -31 c-11
-17 -34 -35 -53 -41 -18 -6 -33 -18 -33 -26 0 -12 11 -14 51 -12 43 3 55 0 82
-23 18 -15 32 -33 32 -40 0 -7 -20 -31 -45 -53 -39 -34 -45 -44 -39 -66 12
-51 -2 -73 -70 -106 -35 -16 -79 -30 -97 -30 -45 0 -89 42 -89 85 0 48 -39 80
-95 77 -24 -1 -47 3 -50 8 -4 6 4 27 16 47 l22 36 -22 18 c-15 12 -39 19 -66
19 -39 0 -43 2 -48 30 -4 16 -20 41 -37 56 -20 18 -30 37 -30 55 0 27 22 59
41 59 5 0 9 7 9 15 0 21 -33 19 -62 -4 -21 -17 -38 -19 -125 -17 -54 2 -109 8
-121 15 -32 17 -70 13 -93 -10 -17 -17 -20 -29 -16 -62 4 -32 1 -47 -17 -71
-13 -17 -36 -60 -52 -96 -15 -36 -42 -88 -60 -117 -29 -45 -31 -53 -19 -70 23
-30 18 -76 -10 -103 -21 -20 -24 -30 -19 -54 6 -26 2 -34 -31 -62 l-38 -32
-37 39 c-36 38 -39 39 -106 39 -89 0 -107 10 -76 43 29 30 28 48 -4 77 -23 23
-34 25 -132 25 -60 1 -114 5 -121 9 -8 6 -12 31 -10 84 4 122 4 122 -100 122
-73 0 -95 4 -138 25 -77 39 -81 48 -39 85 20 18 50 61 68 97 25 51 43 72 82
99 66 44 95 44 137 -1 19 -19 40 -35 47 -35 13 0 13 3 -4 46 -7 15 60 72 93
80 19 5 38 1 64 -14 21 -12 43 -22 48 -22 15 0 14 30 -2 35 -9 4 -11 28 -9 88
4 97 15 131 52 157 39 27 78 25 111 -6 26 -25 28 -25 57 -10 43 22 66 20 102
-11 32 -26 33 -32 15 -90 -13 -41 21 -26 49 21 33 56 94 109 145 126 52 17 66
10 83 -42 16 -46 45 -60 40 -19 -3 31 30 68 83 92 44 21 166 26 209 9z m-360
-516 c12 -30 6 -170 -10 -249 -34 -163 -14 -473 38 -612 19 -52 75 -123 96
-123 6 0 39 26 72 57 53 48 71 75 120 177 82 171 128 293 136 359 6 50 10 58
31 63 17 5 31 1 45 -13 20 -20 19 -20 -60 -179 -44 -87 -100 -213 -126 -279
-26 -66 -60 -147 -76 -180 -52 -109 -55 -130 -53 -405 3 -289 13 -414 37 -438
20 -21 46 -1 28 21 -6 7 -15 60 -20 116 l-8 103 26 10 c41 16 133 26 157 17
12 -4 34 -26 49 -49 29 -43 39 -47 68 -25 11 8 35 15 53 15 27 0 43 -9 77 -45
38 -39 50 -45 85 -45 46 0 153 -40 148 -55 -12 -36 -191 -41 -327 -8 -60 15
-68 15 -118 -3 -50 -17 -73 -36 -58 -51 3 -3 26 2 52 12 46 17 66 17 164 -4
25 -6 89 -10 143 -11 100 0 162 15 173 43 3 10 29 16 78 20 41 4 84 11 98 16
33 12 217 51 243 51 18 0 21 -5 17 -30 -6 -44 -21 -51 -71 -34 -64 22 -88 -9
-61 -80 11 -30 8 -31 -53 -10 -53 18 -83 8 -93 -31 -9 -35 2 -68 32 -105 15
-17 25 -33 22 -35 -2 -2 -46 -10 -98 -16 -117 -15 -439 -17 -833 -5 -298 9
-299 9 -314 33 -8 13 -37 37 -64 55 -27 17 -49 35 -49 39 0 13 33 19 79 14 37
-5 51 -2 71 15 21 17 23 21 10 30 -10 6 -22 5 -37 -5 -17 -11 -28 -12 -52 -4
-24 9 -37 7 -63 -7 -18 -9 -55 -18 -83 -20 -27 -1 -71 -12 -98 -24 l-47 -21
-42 36 c-59 50 -136 71 -205 57 -29 -6 -68 -18 -87 -27 -32 -15 -37 -15 -58
-1 -12 9 -34 16 -48 16 -19 1 -32 11 -51 43 -32 53 -74 74 -170 86 -39 5 -75
13 -80 18 -6 6 -5 21 0 39 15 47 21 143 9 150 -15 9 -28 -16 -28 -54 0 -59
-21 -120 -55 -159 -18 -21 -36 -35 -40 -31 -4 3 -13 52 -20 108 -7 56 -18 107
-23 112 -14 14 -35 -1 -28 -19 3 -8 11 -55 16 -105 6 -50 15 -99 21 -109 8
-16 4 -22 -23 -39 -18 -11 -39 -20 -45 -20 -19 0 -41 50 -53 123 -13 73 -32
108 -49 91 -8 -7 -8 -20 -2 -40 6 -16 15 -54 21 -84 6 -31 19 -69 29 -85 l18
-30 -46 -54 c-59 -70 -93 -85 -161 -70 -28 6 -67 8 -86 4 -19 -3 -49 -1 -67 6
-30 10 -38 9 -75 -15 -40 -25 -75 -32 -104 -21 -10 4 -12 45 -10 201 3 172 -9
368 -25 410 -3 9 14 23 52 41 56 28 57 28 50 63 -17 86 -1 99 72 59 56 -31 65
-21 64 71 0 70 17 130 39 130 12 0 35 -36 45 -68 5 -17 1 -29 -14 -43 -20 -19
-21 -39 -1 -39 4 0 42 29 84 64 91 75 141 94 185 71 38 -19 46 -46 27 -84 -9
-17 -16 -44 -16 -61 0 -27 3 -30 33 -30 24 0 41 -8 62 -30 38 -39 51 -38 70 8
17 39 131 162 151 162 7 0 27 -12 44 -26 28 -24 30 -28 15 -44 -17 -19 -20
-40 -5 -40 6 0 33 16 61 35 28 19 59 35 68 35 23 0 56 -25 82 -61 l22 -31 -23
-56 c-13 -31 -19 -57 -14 -59 5 -2 38 -18 74 -36 81 -40 97 -67 76 -128 -8
-24 -13 -46 -10 -51 10 -16 24 -8 39 22 13 25 21 30 53 30 80 0 147 -34 124
-63 -7 -7 -7 -18 -2 -27 7 -11 17 -6 50 24 22 20 52 41 66 46 35 14 108 12
139 -2 28 -13 30 -19 13 -36 -20 -20 1 -26 47 -14 25 7 60 12 78 12 43 0 95
-33 103 -66 9 -36 -1 -211 -13 -226 -51 -65 15 -118 147 -118 93 1 162 23 146
48 -4 7 -19 7 -44 0 -74 -21 -232 -6 -232 21 0 4 8 23 17 42 25 48 26 243 2
277 -14 19 -15 30 -6 60 6 20 11 80 11 132 0 52 1 86 3 75 13 -67 36 -115 54
-115 23 0 23 -2 2 46 -11 26 -19 80 -22 159 -5 97 -9 120 -21 120 -12 0 -16
-19 -20 -90 -4 -73 -6 -83 -13 -55 -4 19 -28 80 -53 135 -30 65 -47 119 -50
155 -7 76 -33 129 -116 237 -49 64 -68 98 -64 110 6 14 17 7 64 -39 50 -49 60
-55 79 -46 12 6 25 18 30 27 4 9 10 81 13 161 3 82 14 184 25 234 16 78 17 96
6 155 -27 137 -27 131 7 131 18 0 32 -6 36 -16z m178 -11 c55 -6 58 -7 58 -33
0 -16 11 -37 30 -55 17 -16 30 -39 30 -51 0 -37 28 -57 72 -51 45 6 55 -5 34
-38 -21 -32 -20 -48 4 -70 34 -31 16 -111 -67 -305 -72 -167 -112 -236 -164
-285 -26 -25 -52 -45 -57 -45 -5 0 -23 28 -40 63 -60 119 -89 410 -58 585 9
50 16 111 16 135 0 94 12 148 34 157 12 5 27 7 35 4 8 -3 41 -7 73 -11z
m-4382 -28 c0 -2 -25 -20 -55 -40 -30 -19 -55 -39 -55 -45 0 -34 121 -39 246
-9 53 12 101 18 121 14 30 -5 33 -9 33 -41 0 -24 8 -43 26 -61 21 -21 31 -24
67 -19 23 3 68 8 99 12 l57 6 -12 -32 c-11 -29 -10 -33 13 -52 28 -22 79 -19
131 8 29 15 29 14 35 -15 10 -50 28 -57 93 -40 10 3 17 -9 22 -41 5 -25 28
-83 51 -129 38 -73 43 -91 43 -150 0 -36 -6 -88 -14 -115 -14 -47 -15 -48 -49
-43 -74 13 -122 71 -122 150 l0 47 -39 0 c-31 0 -44 -6 -60 -27 -20 -24 -21
-34 -15 -128 7 -101 7 -102 -17 -108 -37 -10 -172 14 -186 32 -9 12 -15 13
-23 5 -9 -9 -8 -19 4 -42 21 -42 20 -65 -5 -88 -20 -18 -21 -18 -31 -1 -21 38
-71 87 -88 87 -23 0 -77 -44 -85 -69 -3 -11 4 -34 15 -54 20 -34 20 -37 5 -67
-16 -31 -23 -31 -57 -3 -18 16 -34 2 -24 -22 7 -20 -13 -31 -66 -38 -60 -8
-82 -22 -102 -64 -14 -29 -20 -33 -55 -33 -26 0 -41 5 -45 16 -12 32 -5 59 22
80 15 12 24 26 20 30 -13 12 -121 -29 -151 -58 -16 -16 -30 -28 -33 -28 -11 0
-1 45 21 96 24 53 25 74 5 74 -5 0 -16 -13 -25 -30 -9 -17 -24 -30 -34 -30
-10 0 -38 -9 -62 -20 -24 -11 -50 -20 -56 -20 -24 0 -13 39 17 62 17 12 30 30
30 39 0 21 -36 49 -63 49 -33 0 -12 25 34 39 24 7 64 21 89 30 25 9 54 16 65
16 36 0 21 29 -30 57 -27 15 -50 33 -50 39 0 7 33 26 74 41 70 27 75 28 93 11
14 -12 21 -14 30 -5 8 8 3 20 -20 47 -18 19 -39 49 -47 65 l-16 30 35 0 c33 0
66 21 66 41 0 5 -18 29 -40 53 -22 24 -40 50 -40 59 0 8 16 24 35 36 19 11 35
26 35 33 0 7 -25 36 -57 64 l-57 51 18 28 c14 21 24 26 43 22 16 -3 27 1 30
10 8 20 -16 35 -44 28 -56 -13 -11 56 74 114 46 31 133 62 133 46z m1341 -56
c18 -45 58 -89 79 -89 12 0 29 18 47 52 l28 52 5 -55 c7 -64 19 -90 54 -108
24 -14 25 -15 10 -50 -8 -20 -51 -72 -94 -116 -44 -44 -80 -84 -80 -89 0 -4
11 -21 25 -38 32 -37 31 -42 -4 -79 -29 -30 -30 -31 -14 -65 16 -33 16 -35 -6
-58 -13 -14 -30 -22 -41 -19 -27 7 -32 -12 -10 -40 l20 -26 -23 -27 -24 -27
-45 64 c-82 115 -177 276 -194 329 -17 52 -17 53 5 69 12 9 24 32 27 51 6 34
7 35 45 32 56 -6 82 19 74 69 -6 34 -5 37 25 42 37 8 60 53 60 117 0 48 13 52
31 9z m-1638 5 c55 -28 58 -33 40 -60 -10 -15 -13 -35 -10 -53 4 -17 0 -36 -8
-47 -24 -31 -17 -49 36 -99 l51 -48 -31 -24 c-43 -34 -40 -63 10 -118 l42 -45
-31 0 c-16 0 -40 -8 -53 -18 l-22 -19 25 -46 26 -46 -69 -27 c-38 -15 -76 -35
-85 -45 -21 -24 -10 -56 28 -79 28 -17 29 -19 12 -28 -11 -5 -37 -13 -59 -17
-88 -16 -136 -66 -100 -105 10 -11 29 -20 43 -20 l24 0 -31 -35 c-33 -38 -37
-55 -21 -86 13 -23 72 -26 110 -4 39 22 46 18 45 -30 -1 -39 -6 -48 -39 -75
-22 -16 -56 -35 -77 -42 -36 -10 -42 -9 -87 19 l-49 30 -54 -28 c-67 -35 -103
-37 -123 -7 -22 31 -20 48 13 111 32 62 29 72 -27 83 -70 14 -75 48 -26 170
14 36 22 69 18 74 -5 4 -31 13 -59 19 -61 15 -85 35 -85 72 0 27 42 92 101
154 31 34 46 79 30 89 -6 4 -11 18 -11 31 0 47 116 117 179 107 28 -4 32 -2
29 14 -2 11 -13 20 -25 22 -27 4 -40 39 -22 58 8 7 55 33 106 58 l91 45 -5 40
c-5 39 -4 42 28 56 45 19 83 19 122 -1z m2048 -19 c17 -19 36 -35 42 -35 6 0
21 -12 32 -27 21 -25 24 -26 64 -16 l42 11 -6 -41 c-4 -23 -20 -109 -35 -192
-16 -82 -31 -176 -35 -207 -4 -32 -12 -58 -18 -58 -5 0 -59 16 -118 35 -59 19
-140 38 -178 41 -66 6 -71 8 -71 31 0 13 -7 35 -16 49 -17 25 -16 25 58 102
41 42 80 93 87 112 7 19 21 51 31 70 11 19 33 63 51 98 17 34 33 62 35 62 3 0
18 -16 35 -35z m2360 -205 c-15 -63 -21 -122 -21 -208 0 -77 -4 -123 -11 -128
-13 -8 -119 94 -119 114 0 8 11 27 25 44 27 32 32 72 14 112 -10 20 -8 29 10
54 12 17 35 63 52 103 17 40 39 84 48 98 16 25 16 25 19 -38 2 -39 -5 -97 -17
-151z m-1667 181 c14 -21 -344 -361 -380 -361 -3 0 -4 51 -2 113 4 112 15 153
55 199 13 15 17 15 42 0 26 -15 31 -14 69 6 31 16 52 20 89 16 37 -4 55 -1 78
15 34 22 42 24 49 12z m-716 -547 l112 -39 5 -130 c2 -71 11 -186 20 -255 18
-150 19 -211 4 -282 -13 -58 -54 -148 -68 -148 -6 0 -62 75 -127 168 -64 92
-166 231 -226 309 -59 78 -108 145 -108 149 0 3 11 19 25 36 14 16 25 42 25
57 0 17 10 37 26 52 23 21 25 30 21 70 -3 26 -3 50 1 54 4 4 45 5 92 3 64 -4
113 -15 198 -44z m-1010 -101 c9 -17 9 -29 -3 -57 -21 -50 -19 -90 10 -186 14
-46 25 -101 25 -122 0 -27 4 -38 15 -38 11 0 15 12 15 50 0 36 6 57 19 71 26
28 141 255 141 279 0 32 15 23 34 -19 l18 -39 -60 -133 c-34 -74 -66 -156 -73
-182 -19 -78 -7 -246 25 -341 15 -43 25 -81 22 -83 -2 -3 11 -50 30 -106 100
-297 135 -471 136 -682 0 -77 -5 -169 -11 -205 -19 -99 -53 -210 -65 -210 -27
0 -206 96 -206 110 0 3 13 14 30 23 35 21 54 52 46 74 -5 12 -13 8 -41 -20
-45 -47 -72 -55 -97 -30 -19 19 -18 21 61 137 45 65 81 124 81 132 0 36 -32 4
-107 -106 l-81 -121 -30 37 c-30 37 -30 37 -12 63 10 14 28 62 40 106 12 44
36 106 52 138 17 31 28 60 25 63 -25 25 -75 -60 -108 -183 -11 -43 -28 -89
-36 -102 -15 -23 -16 -24 -29 -6 -19 25 -18 130 1 228 20 107 20 139 -2 135
-11 -2 -19 -14 -21 -28 -1 -14 -9 -72 -18 -129 -15 -97 -15 -175 0 -212 5 -12
1 -18 -16 -22 -13 -4 -24 -3 -26 2 -2 5 -19 35 -38 67 l-35 58 20 50 c52 135
116 397 130 534 17 160 -17 330 -94 468 -19 34 -46 72 -60 85 -14 13 -39 42
-55 64 -15 22 -50 63 -77 90 -71 71 -80 92 -55 118 27 27 47 17 80 -38 94
-160 242 -309 274 -277 6 6 22 52 36 104 24 85 26 110 26 291 1 164 4 199 16
207 12 7 17 0 26 -38 5 -26 16 -57 22 -69z m1607 -29 c97 -23 134 -27 320 -29
298 -4 418 -24 716 -120 233 -75 346 -89 496 -60 80 15 155 18 207 6 26 -5 35
-19 77 -111 56 -124 74 -206 66 -304 -7 -93 -13 -109 -41 -99 -11 4 -41 7 -66
8 -28 0 -67 11 -103 29 -73 36 -144 34 -206 -7 -32 -22 -40 -23 -45 -11 -9 23
-70 44 -131 44 -51 0 -55 2 -55 24 0 34 -31 68 -92 100 -29 16 -54 30 -56 31
-2 2 4 26 14 54 l16 51 -37 46 c-21 25 -52 52 -70 61 -29 14 -35 14 -76 -4
l-45 -20 -17 24 c-27 35 -71 55 -99 44 -27 -11 -140 -125 -158 -159 l-12 -24
-21 20 c-12 11 -34 24 -49 27 -27 7 -27 8 -13 36 64 122 -86 198 -208 105 -67
-51 -65 -51 -82 -8 -20 48 -53 69 -84 53 -34 -19 -51 -64 -51 -136 0 -36 -3
-65 -7 -65 -5 1 -19 7 -33 15 -37 21 -68 18 -96 -11 -19 -18 -24 -31 -20 -47
3 -12 9 -31 12 -42 4 -16 -3 -24 -31 -38 -20 -9 -37 -17 -39 -17 -8 0 -37 138
-45 213 -5 42 -5 111 0 152 9 79 37 195 48 195 4 0 56 -12 116 -26z m-1507
-46 c23 -7 42 -16 42 -21 0 -12 -80 -157 -86 -157 -3 0 -12 16 -20 35 -23 55
-16 172 10 161 6 -3 30 -11 54 -18z m236 -82 c14 -25 26 -46 26 -49 0 -2 -17
-10 -39 -17 -29 -9 -43 -9 -59 -1 l-22 11 27 55 c15 30 30 52 34 49 4 -2 19
-24 33 -48z m-543 -8 c10 -13 18 -28 19 -35 0 -10 -62 -125 -77 -142 -3 -5
-20 15 -49 56 -15 22 -14 25 16 59 22 26 30 44 27 60 -3 20 0 24 20 24 14 0
33 -10 44 -22z m106 -68 c-7 -84 -32 -198 -48 -215 -6 -6 -24 6 -51 32 l-41
41 48 83 c42 74 47 86 37 111 -10 27 -9 28 25 28 l36 0 -6 -80z m383 -33 c14
0 43 4 66 8 l41 7 73 -103 c41 -57 94 -124 119 -150 l46 -47 -33 -6 c-18 -3
-48 -14 -66 -25 -29 -18 -43 -39 -86 -131 -6 -12 -27 -15 -97 -15 -62 0 -95
-4 -107 -14 -9 -8 -18 -12 -20 -10 -13 14 -37 111 -47 189 -13 100 -6 153 31
253 18 47 25 57 38 51 10 -4 28 -7 42 -7z m-701 -92 c22 -24 41 -48 41 -52 0
-5 -17 -16 -38 -25 -20 -10 -45 -23 -54 -30 -15 -11 -22 -8 -47 22 l-29 35
-34 -31 c-56 -53 -73 -58 -97 -28 -33 41 -27 54 23 54 28 0 52 7 69 20 14 11
37 20 52 20 18 0 31 9 43 30 9 16 20 30 23 30 4 0 25 -20 48 -45z m-459 -140
c8 -10 9 -24 1 -52 -6 -21 -11 -55 -11 -75 0 -21 -4 -38 -9 -38 -13 0 -27 44
-45 140 -16 85 -16 85 6 103 22 18 22 18 34 -23 7 -22 17 -47 24 -55z m569 10
c57 -66 131 -250 131 -330 0 -23 -3 -25 -22 -19 -13 4 -49 8 -80 8 -55 1 -59
3 -108 51 -46 45 -54 49 -102 51 -29 1 -67 7 -84 14 -47 20 -79 6 -110 -45
-25 -44 -46 -56 -59 -34 -4 5 -18 15 -32 20 -25 9 -26 11 -20 83 4 62 44 206
61 223 3 3 17 -9 31 -26 37 -43 76 -40 132 12 l22 20 20 -24 c11 -13 20 -27
21 -31 0 -15 22 -7 73 27 65 44 87 44 126 0z m-670 -22 c6 -21 11 -50 11 -64
0 -64 38 -129 75 -129 28 0 45 37 45 99 0 33 6 56 19 72 28 35 35 18 16 -43
-9 -29 -18 -88 -22 -131 -3 -43 -9 -80 -13 -82 -4 -3 -3 -26 2 -52 5 -27 6
-70 3 -98 -3 -27 -2 -71 3 -97 l9 -47 -42 -17 c-66 -25 -79 -18 -83 41 -1 28
-9 84 -17 125 -17 84 -20 115 -35 285 -5 66 -12 129 -15 141 -11 49 31 46 44
-3z m1653 -219 c60 -293 59 -350 -8 -581 -14 -50 -16 -52 -40 -43 -36 14 -90
12 -154 -5 -84 -22 -100 -20 -100 13 0 41 -53 248 -103 402 l-44 135 21 24
c20 22 26 23 102 17 71 -6 83 -4 105 13 14 11 31 37 37 58 6 21 24 51 39 65
26 25 86 49 107 44 6 -1 22 -65 38 -142z m-1243 -24 c27 -14 49 -17 75 -13 35
5 41 2 87 -43 42 -41 47 -50 35 -63 -7 -9 -20 -29 -29 -46 l-15 -29 -89 3
c-115 3 -156 -12 -227 -90 -39 -41 -57 -55 -63 -46 -13 19 -17 277 -4 277 5 0
27 -11 47 -25 21 -14 42 -24 48 -22 6 2 23 26 39 53 25 42 43 63 55 64 1 0 20
-9 41 -20z m-659 -52 c41 -31 50 -33 122 -33 l77 0 11 -49 c18 -86 30 -181 24
-202 -4 -16 -23 -26 -77 -42 -40 -12 -81 -28 -92 -36 -18 -13 -23 -11 -56 25
-58 62 -83 57 -183 -41 -45 -44 -86 -80 -90 -80 -9 0 -118 81 -133 100 -7 8
-12 33 -10 55 l2 40 55 0 55 0 5 110 c4 98 18 155 37 155 3 0 21 -11 39 -25
18 -14 38 -25 45 -25 6 0 31 18 55 40 24 22 50 40 57 40 7 0 33 -15 57 -32z
m1024 -69 l39 -11 -6 -81 c-9 -123 -87 -455 -132 -564 l-15 -35 -35 26 c-76
58 -175 83 -225 56 -16 -9 -30 0 -88 59 -52 52 -83 74 -128 91 -71 26 -165 31
-246 11 -45 -11 -60 -11 -72 -2 -20 17 -58 100 -51 112 9 14 55 36 95 44 19 4
46 12 60 18 14 6 48 9 76 8 32 -2 63 3 82 13 28 15 31 14 46 -7 l16 -22 23 30
c100 132 156 161 282 150 65 -6 79 -5 95 10 11 10 20 24 20 32 0 8 13 28 29
44 32 32 68 37 135 18z m2624 -109 c49 0 98 -27 123 -67 20 -32 20 -36 6 -44
-83 -47 -164 -139 -173 -199 l-6 -38 -97 -13 c-53 -8 -139 -14 -191 -14 -79 0
-108 5 -175 29 -107 38 -185 38 -377 0 -23 -5 -28 -2 -28 14 0 42 9 50 50 45
30 -4 49 0 82 19 43 25 44 25 175 16 126 -9 134 -9 170 12 21 12 53 41 70 65
21 27 57 58 98 80 36 20 84 56 107 79 l41 43 45 -13 c25 -8 61 -14 80 -14z
m529 -131 c24 -12 63 -44 86 -72 23 -29 63 -73 89 -99 l48 -48 -93 -1 c-50 -1
-117 -4 -147 -8 -39 -5 -63 -3 -84 7 -38 19 -82 11 -142 -26 -27 -17 -73 -38
-102 -48 -48 -17 -55 -17 -80 -4 -43 25 -40 55 10 101 40 37 46 40 88 34 53
-7 100 -24 100 -36 0 -5 9 -9 20 -9 22 0 23 1 14 25 -8 21 -55 45 -105 53
l-40 7 36 42 c77 91 210 127 302 82z m-292 -9 c3 -5 -40 -54 -95 -109 -83 -84
-105 -101 -130 -101 -28 0 -30 2 -24 28 25 106 212 242 249 182z m-3909 -35
c14 -14 38 -54 54 -88 15 -34 37 -74 49 -88 l21 -27 -65 -48 c-62 -47 -76 -66
-56 -78 5 -3 43 21 85 54 58 46 90 64 138 76 128 33 241 2 336 -93 48 -48 112
-157 112 -191 0 -23 -132 -9 -264 26 -153 42 -274 54 -391 41 -49 -5 -116 -13
-147 -16 l-58 -6 -27 59 c-39 85 -43 161 -10 216 27 47 168 188 186 188 7 0
23 -11 37 -25z m4538 -28 c74 -48 106 -87 106 -131 0 -29 0 -29 -48 -23 -88
10 -163 45 -216 101 l-48 51 48 22 c27 13 58 23 70 23 11 0 51 -19 88 -43z
m-2681 -198 c23 -6 37 -15 34 -22 -3 -7 -12 -47 -22 -90 l-17 -77 -49 0 c-26
0 -71 -5 -99 -11 -28 -6 -53 -9 -54 -7 -2 1 -6 45 -9 96 l-6 92 32 0 c18 1 57
7 87 15 30 7 57 14 60 14 3 1 22 -4 43 -10z m-1059 -140 c64 -24 141 -89 174
-148 l23 -41 -33 0 c-53 1 -210 38 -229 56 -9 8 -27 41 -40 71 -22 54 -22 56
-4 69 25 19 45 18 109 -7z m1050 -129 c3 -22 -1 -104 -9 -182 -8 -79 -15 -164
-15 -190 0 -52 -1 -53 -63 -39 -194 44 -189 42 -182 65 31 106 56 221 61 287
6 70 9 80 28 84 12 2 30 6 41 8 11 3 45 5 76 6 l56 1 7 -40z m1050 -283 c15
-16 21 -36 21 -67 0 -25 4 -60 8 -77 8 -29 6 -33 -11 -33 -17 0 -22 9 -27 58
-4 31 -11 76 -15 100 -9 48 -5 51 24 19z"/>
<path style="fill:#FFFFFF;" id="parte7" d="M3016 5782 c-2 -4 4 -43 15 -87 78 -328 79 -581 4 -709 -24 -42 -24
-56 0 -56 23 0 74 124 86 206 13 91 6 250 -16 374 -41 231 -66 309 -89 272z"/>
<path style="fill:#FFFFFF;" id="parte8" d="M2780 5291 c-20 -39 -6 -180 20 -196 22 -14 26 7 14 67 -8 35 -14 69
-14 76 0 24 16 12 28 -21 17 -48 39 -74 51 -62 16 16 -46 155 -70 155 -10 0
-23 -9 -29 -19z"/>
<path style="fill:#FFFFFF;" id="parte9" d="M2621 4928 c-91 -452 -111 -570 -111 -666 0 -80 3 -102 14 -102 10 0
15 25 18 108 5 91 68 451 117 664 9 39 6 48 -15 48 -7 0 -17 -22 -23 -52z"/>
<path style="fill:#FFFFFF;" id="parte10" d="M2845 4918 c-77 -42 -135 -148 -135 -246 0 -57 3 -67 29 -93 19 -18
40 -29 58 -29 32 0 153 54 153 69 0 22 -22 21 -69 -4 -58 -29 -103 -32 -122
-9 -19 23 -16 122 4 159 15 28 16 28 17 7 0 -26 17 -63 34 -74 19 -13 80 -9
102 6 11 8 31 12 47 9 25 -5 27 -9 22 -37 -22 -107 -85 -165 -188 -175 -75 -7
-83 -23 -34 -75 25 -26 43 -36 65 -36 35 0 122 35 122 49 0 19 -18 21 -54 6
-45 -19 -90 -19 -105 -1 -10 12 -5 16 33 21 62 10 129 54 159 107 41 71 66
223 37 223 -8 0 -17 -10 -20 -23 -3 -13 -9 -22 -15 -20 -12 4 -11 13 6 54 7
17 9 42 5 58 -13 51 -100 82 -151 54z m96 -38 c41 -22 8 -115 -54 -150 -40
-23 -60 -5 -69 61 -7 50 -5 56 18 77 27 24 73 29 105 12z"/>
<path style="fill:#FFFFFF;" id="parte1" d="M2630 4098 c0 -157 24 -281 131 -678 24 -90 29 -127 25 -170 -12
-104 -12 -105 4 -105 19 0 28 36 29 125 1 62 -8 108 -49 255 -27 99 -59 223
-70 275 -20 101 -43 313 -38 358 2 19 -2 28 -14 30 -16 3 -18 -6 -18 -90z"/>
<path style="fill:#FFFFFF;" id="parte1" d="M2853 3875 c-23 -62 65 -481 115 -544 30 -38 114 -87 132 -76 19 12
10 25 -27 40 -75 32 -98 69 -136 225 -26 108 -45 227 -50 314 -2 50 -21 73
-34 41z"/>
<path style="fill:#FFFFFF;" id="parte1" d="M2490 3838 c0 -7 8 -35 19 -63 26 -70 34 -158 21 -240 -23 -146 -24
-185 -7 -185 9 0 18 12 21 28 34 175 33 321 -3 415 -13 32 -29 57 -37 57 -8 0
-14 -6 -14 -12z"/>
<path style="fill:#FFFFFF;" id="parte1" d="M3056 3842 c-8 -13 65 -224 103 -300 34 -67 110 -152 136 -152 26 0
17 20 -29 65 -55 53 -98 137 -145 279 -33 102 -51 131 -65 108z"/>
<path style="fill:#FFFFFF;" id="parte1" d="M5325 5658 c-8 -28 -12 -388 -3 -388 21 0 31 66 36 228 4 155 3 172
-12 172 -9 0 -18 -6 -21 -12z"/>
<path style="fill:#FFFFFF;" id="parte1" d="M5515 5250 c-8 -16 -15 -49 -15 -74 0 -25 -5 -57 -10 -72 -8 -19 -8
-30 0 -38 20 -19 40 23 40 83 1 31 7 67 15 81 19 32 19 50 0 50 -8 0 -21 -13
-30 -30z"/>
<path style="fill:#FFFFFF;" id="parte1" d="M1743 5408 c3 -13 19 -63 37 -113 57 -162 71 -238 77 -412 4 -120 2
-170 -7 -193 -18 -43 1 -63 26 -25 23 35 30 190 15 317 -20 176 -104 448 -138
448 -11 0 -14 -7 -10 -22z"/>
<path style="fill:#FFFFFF;" id="parte1" d="M1680 5296 c0 -7 12 -40 27 -72 22 -49 27 -74 27 -144 1 -47 -3 -109
-8 -137 -7 -45 -6 -53 7 -53 22 0 40 85 39 184 -1 83 -20 157 -57 212 -17 26
-35 32 -35 10z"/>
<path style="fill:#FFFFFF;" id="parte1" d="M9318 8100 c-16 -5 -46 -23 -69 -41 l-41 -32 -62 12 c-49 10 -68 10
-89 0 -35 -16 -41 -42 -34 -138 l6 -77 -62 4 c-55 4 -65 8 -90 37 -34 41 -70
50 -143 35 -45 -10 -65 -21 -100 -56 l-44 -44 -66 33 -66 32 -19 -24 c-32 -39
-35 -71 -11 -115 12 -21 20 -41 17 -44 -2 -3 -19 2 -36 11 -43 20 -59 12 -59
-29 0 -23 9 -44 30 -67 17 -19 30 -39 30 -45 0 -18 -55 3 -139 53 -65 37 -86
45 -129 45 -40 0 -57 -5 -81 -26 -26 -22 -31 -33 -31 -72 0 -30 8 -59 25 -87
13 -23 21 -45 18 -49 -4 -3 -22 -3 -40 0 -61 12 -89 -49 -37 -82 l25 -17 -72
-19 c-105 -26 -144 -69 -115 -126 29 -57 130 -123 250 -166 18 -6 18 -8 -7
-34 -15 -16 -27 -37 -27 -48 0 -32 49 -70 122 -94 37 -12 70 -26 74 -31 3 -5
-8 -25 -25 -45 -57 -64 -35 -94 90 -120 41 -8 78 -19 82 -23 5 -5 -6 -25 -23
-45 -27 -30 -29 -37 -16 -42 9 -4 20 -4 23 -1 3 4 17 -3 31 -13 16 -13 40 -20
68 -20 24 0 54 -5 68 -11 24 -11 56 -63 56 -91 0 -7 7 -24 16 -37 18 -25 35
-25 144 -2 30 6 74 6 130 -1 l85 -11 100 -105 c148 -155 147 -142 8 -139
l-118 2 -67 -38 c-66 -37 -68 -38 -142 -31 -55 5 -80 3 -91 -6 -13 -10 -26 -8
-74 14 -88 39 -160 36 -247 -9 l-68 -36 -63 43 c-34 23 -76 62 -93 85 -34 49
-66 65 -129 64 -50 0 -116 -29 -116 -51 0 -17 3 -17 65 6 70 26 113 14 153
-43 18 -25 65 -68 109 -98 l78 -54 51 34 c95 65 170 69 268 14 l53 -30 24 22
c23 21 26 22 78 9 63 -15 90 -10 154 30 62 38 120 51 175 38 23 -5 67 -7 97
-4 l56 5 41 -62 c23 -34 50 -80 61 -102 23 -46 72 -202 72 -229 0 -21 -44 -40
-129 -56 -35 -6 -86 -20 -113 -31 -69 -27 -123 -25 -164 6 -18 14 -36 25 -41
25 -4 0 -49 -20 -98 -45 -114 -57 -164 -64 -265 -36 -94 26 -187 27 -350 1
-176 -27 -346 -79 -365 -110 -14 -23 7 -29 43 -14 209 91 510 128 682 83 99
-25 152 -17 270 42 l80 40 31 -21 c46 -33 98 -36 177 -10 37 13 101 31 142 41
41 9 84 20 95 24 19 6 24 -4 53 -102 30 -97 56 -222 49 -230 -2 -1 -61 -9
-132 -18 -72 -8 -195 -29 -275 -45 -187 -38 -295 -50 -452 -50 -122 0 -128 1
-157 26 -27 23 -32 24 -37 9 -9 -23 25 -55 72 -65 94 -22 330 -5 558 41 164
32 413 66 422 56 9 -8 9 -231 0 -245 -4 -7 -34 -12 -77 -12 -38 0 -122 -11
-187 -25 -171 -37 -510 -79 -1187 -145 -115 -11 -282 -32 -370 -45 -88 -14
-195 -29 -237 -35 -42 -5 -88 -12 -101 -15 -23 -6 -25 -4 -31 55 -5 41 -3 66
4 75 16 20 8 59 -12 63 -13 2 -18 -3 -18 -19 0 -13 -16 -37 -38 -58 -32 -30
-40 -47 -52 -104 -8 -40 -20 -72 -29 -77 -9 -4 -81 -22 -161 -40 -166 -37
-278 -70 -347 -100 -52 -23 -133 -95 -133 -119 0 -24 50 -82 99 -112 62 -40
151 -65 296 -84 100 -13 127 -20 160 -44 22 -15 65 -36 95 -46 30 -10 84 -32
120 -49 62 -30 71 -31 211 -34 136 -4 156 -2 274 27 161 39 250 41 326 7 45
-20 78 -25 194 -31 150 -7 310 -28 285 -37 -74 -28 -278 -35 -365 -13 -41 11
-61 13 -69 5 -22 -22 49 -47 159 -56 83 -8 288 21 306 42 6 8 21 14 34 14 12
0 36 5 53 11 29 10 33 8 64 -27 18 -20 38 -44 44 -51 9 -13 12 -13 23 0 10 13
6 22 -25 57 -49 54 -32 68 40 34 41 -19 68 -24 133 -24 91 0 152 18 260 77 81
45 149 52 218 25 93 -37 157 -43 516 -49 444 -7 432 -7 464 1 35 9 26 31 -11
30 -16 0 -211 3 -434 6 l-405 7 -100 32 c-89 29 -105 31 -150 22 -27 -5 -57
-12 -66 -16 -11 -4 -25 17 -58 90 -103 227 -222 276 -424 176 l-85 -42 -62 45
c-106 78 -175 83 -297 20 -38 -19 -104 -63 -148 -97 -65 -51 -86 -75 -113
-127 l-33 -65 -67 3 c-48 2 -102 -6 -187 -27 -139 -34 -312 -48 -394 -31 -30
5 -82 23 -115 39 -34 16 -81 35 -105 41 -24 6 -54 18 -67 26 -20 14 -21 17 -8
44 8 16 18 52 21 80 l6 52 33 -38 c18 -22 36 -56 39 -76 4 -25 12 -38 22 -38
18 0 17 5 -12 257 -16 132 -16 148 -1 223 20 95 32 130 46 130 12 0 13 -17 16
-255 2 -235 14 -350 34 -350 11 0 16 13 18 50 1 28 7 59 12 70 5 11 19 45 31
75 31 77 43 86 33 25 -7 -44 -8 -81 -4 -142 1 -10 0 -27 -2 -37 -7 -40 21 -24
51 29 17 30 50 74 73 96 43 42 115 85 125 75 4 -3 -15 -28 -41 -56 -26 -28
-54 -66 -62 -85 -16 -40 -19 -95 -4 -95 6 0 37 18 69 40 76 52 143 67 113 25
-4 -6 -21 -21 -39 -33 -33 -24 -56 -71 -43 -92 6 -9 20 -11 51 -5 24 4 63 8
87 8 29 0 42 4 42 14 0 23 -47 35 -92 22 -48 -13 -62 -3 -28 20 47 31 70 60
70 89 0 23 -6 31 -22 35 -33 9 -88 -6 -136 -37 -66 -42 -50 -7 45 98 56 61 64
89 25 94 -56 8 -163 -54 -218 -126 -31 -42 -34 -43 -34 -19 0 14 5 48 11 75 8
33 9 58 2 78 -9 25 -5 40 29 107 36 72 40 97 18 97 -9 0 -130 -226 -150 -282
-8 -20 -17 -35 -20 -33 -13 8 -19 102 -13 195 6 92 6 92 37 105 17 7 63 16
101 20 39 4 133 18 210 30 77 13 237 33 355 45 118 11 296 30 395 41 99 11
266 29 370 40 201 21 372 47 520 79 95 21 170 26 179 11 7 -10 -28 -58 -76
-103 -40 -38 -82 -119 -94 -181 -4 -27 -16 -45 -40 -64 -41 -31 -44 -48 -6
-39 15 4 53 11 84 15 31 5 69 18 84 28 l27 20 35 -23 c38 -26 81 -30 131 -13
23 8 57 9 114 2 110 -13 217 -6 217 13 0 8 -11 19 -24 23 -13 5 -26 16 -29 24
-3 9 -27 28 -54 43 -26 16 -51 32 -54 37 -4 5 6 37 21 71 16 34 34 91 40 127
7 35 14 74 16 87 4 18 11 22 40 22 45 0 454 140 548 187 38 19 86 46 107 60
28 18 65 29 136 39 195 28 289 68 488 209 46 33 151 73 247 94 l40 9 -5 -33
c-3 -18 -22 -76 -41 -129 -63 -167 -96 -344 -96 -516 0 -47 -3 -101 -6 -121
-6 -35 -8 -37 -54 -43 -48 -6 -101 -38 -88 -52 4 -4 28 -1 53 6 69 19 145 9
178 -24 29 -28 48 -29 93 -1 17 11 24 10 45 -6 34 -27 69 -23 120 11 52 35 89
38 129 8 22 -16 44 -22 80 -22 65 0 104 27 108 75 3 28 11 39 50 64 61 39 66
65 17 98 l-36 25 30 35 c42 47 41 84 -1 102 -36 15 -76 4 -130 -36 -34 -24
-34 -20 -3 89 29 104 36 173 17 179 -8 3 -16 -4 -19 -16 -3 -11 -20 -30 -39
-41 -30 -19 -94 -106 -140 -190 l-19 -35 -3 260 c-2 164 1 279 8 311 16 76 60
139 107 154 67 22 131 59 184 106 58 51 103 74 147 74 39 0 94 38 112 78 11
23 25 35 51 42 20 5 51 20 70 33 31 21 43 35 94 119 19 31 24 33 92 39 73 5
85 11 199 105 22 18 17 30 -23 56 -83 54 -149 61 -245 24 -44 -16 -92 -25
-156 -28 l-92 -4 0 35 c0 38 -32 101 -51 101 -6 0 9 20 34 44 45 43 87 111 87
140 0 8 -12 23 -26 33 l-26 19 21 42 c31 61 28 114 -8 144 -15 12 -36 28 -46
33 -16 10 -16 14 -1 63 15 53 10 92 -13 107 -7 4 -6 18 4 42 24 58 20 97 -16
127 -17 14 -35 26 -40 26 -5 0 -22 15 -38 33 l-29 32 -54 -19 c-29 -10 -59
-21 -65 -23 -8 -3 -13 3 -13 14 0 30 -28 61 -81 92 l-49 28 21 27 22 28 -60
60 c-52 52 -67 61 -105 65 -30 4 -55 0 -76 -11 -29 -15 -36 -28 -44 -81 -2
-13 -12 -21 -30 -23 -25 -3 -28 1 -39 42 -6 25 -23 57 -36 71 -23 22 -34 25
-100 25 -114 0 -175 -32 -193 -102 l-11 -38 -30 16 c-17 8 -46 14 -64 12 -29
-3 -37 2 -57 32 -30 44 -54 48 -115 16 -66 -33 -77 -49 -83 -120 -5 -54 -7
-61 -30 -66 -18 -4 -26 -13 -28 -34 -2 -19 -13 -33 -34 -44 -17 -10 -43 -27
-58 -39 l-28 -23 -41 23 c-22 12 -41 24 -41 27 0 3 25 20 55 38 75 45 82 73
29 118 -21 19 -49 37 -61 40 -27 7 -28 8 -6 41 17 26 17 26 -22 60 -44 38 -95
63 -129 63 -14 0 -36 17 -60 45 l-37 45 -62 -6 c-61 -6 -64 -5 -105 29 -53 45
-70 50 -120 38 -48 -10 -52 -8 -52 34 0 18 -6 37 -13 43 -7 6 -56 15 -109 21
-53 5 -106 14 -117 20 -58 32 -118 -9 -167 -114 l-33 -70 -1 56 c0 77 -19 99
-90 107 -46 6 -55 10 -55 27 -1 43 -16 64 -53 75 -42 11 -37 11 -74 0z m80
-42 c7 -7 12 -27 12 -45 0 -40 21 -53 84 -53 51 0 60 -9 58 -59 -3 -67 26
-121 55 -103 6 4 26 41 45 82 19 41 45 83 56 94 22 19 26 19 132 -3 25 -6 64
-10 87 -11 63 0 73 -7 73 -50 0 -52 14 -60 77 -47 44 9 55 8 75 -7 12 -9 39
-28 58 -42 31 -23 41 -25 91 -20 55 7 55 6 87 -33 24 -29 42 -42 70 -47 48 -8
122 -51 122 -70 0 -8 -11 -25 -25 -38 -29 -27 -18 -46 27 -46 27 0 110 -62 98
-73 -3 -2 -38 -25 -79 -51 -40 -26 -70 -50 -67 -53 3 -4 36 -23 73 -43 79 -42
115 -89 87 -112 -9 -7 -27 -23 -40 -35 -14 -13 -36 -23 -49 -23 -45 0 -36 -20
19 -44 66 -29 86 -62 86 -141 l0 -55 -39 0 c-62 0 -73 -18 -65 -104 5 -58 3
-80 -11 -109 -22 -46 -81 -100 -140 -128 -42 -20 -62 -41 -91 -94 -9 -17 -135
-94 -155 -95 -4 0 -33 18 -65 39 l-59 40 -31 -20 c-42 -25 -53 -24 -137 12
-103 45 -110 53 -104 117 5 47 3 54 -18 68 -13 8 -49 18 -79 21 -31 3 -60 11
-65 17 -5 6 -11 37 -13 69 -3 33 -11 65 -20 73 -13 14 -19 13 -50 -6 -57 -33
-124 -37 -187 -10 -60 26 -62 25 -83 -45 -6 -22 -25 -51 -41 -65 -25 -22 -30
-35 -36 -91 -7 -69 -19 -94 -82 -169 -69 -82 -68 -84 73 -187 l123 -91 28 -81
c36 -101 127 -213 127 -155 0 9 -16 34 -35 56 -39 47 -108 237 -130 366 -25
136 -15 393 15 425 4 5 17 6 28 3 19 -6 20 -18 25 -224 5 -230 14 -285 63
-413 15 -37 36 -79 48 -94 l23 -28 69 69 c39 38 119 129 180 203 60 74 114
136 119 138 6 2 19 -3 29 -10 26 -19 12 -41 -101 -160 -146 -152 -188 -264
-164 -434 12 -85 61 -247 100 -333 l20 -45 -37 -23 c-21 -13 -49 -21 -66 -20
-28 3 -30 7 -43 73 -15 74 -27 96 -42 79 -14 -14 26 -205 47 -227 23 -23 77
-28 77 -7 0 8 -9 16 -20 18 -29 6 -43 22 -19 22 11 0 42 11 67 24 26 13 49 20
52 16 20 -32 37 -146 42 -275 6 -170 -6 -243 -58 -351 -36 -77 -32 -89 46
-134 30 -17 55 -36 55 -42 0 -7 -39 -8 -115 -3 -81 5 -129 4 -159 -5 -37 -10
-48 -9 -74 4 -17 9 -33 20 -37 26 -7 11 29 124 50 157 14 21 14 24 -1 30 -23
9 -48 -28 -68 -97 -17 -64 -69 -120 -110 -120 -22 0 -23 2 -15 45 12 64 43
118 99 175 90 90 95 108 95 315 -1 216 4 192 -119 613 -60 204 -104 274 -305
488 -136 144 -128 139 -286 150 -55 4 -94 1 -126 -9 -54 -17 -65 -13 -74 28
-19 79 -79 125 -164 125 -22 0 -44 6 -51 15 -10 12 -7 19 16 41 28 25 28 26 9
40 -21 16 -108 44 -135 44 -30 0 -80 22 -80 34 0 7 14 25 30 41 52 50 35 81
-66 116 -105 36 -128 63 -80 94 34 22 39 52 13 69 -12 8 -58 29 -101 47 -80
33 -166 100 -166 131 0 37 64 64 178 76 69 7 97 23 52 30 -17 3 -80 56 -80 68
0 2 17 4 38 4 67 0 79 36 37 105 -32 51 -31 79 1 112 35 35 79 28 180 -30 74
-43 158 -72 176 -61 20 12 6 64 -27 104 -38 45 -40 59 -7 41 30 -16 57 -13 75
7 15 16 15 21 -8 57 -25 42 -31 71 -16 93 6 11 21 7 69 -17 34 -17 68 -31 76
-31 8 0 23 16 35 35 25 43 88 74 148 75 33 0 46 -5 62 -26 12 -15 21 -33 21
-42 0 -12 10 -13 54 -8 40 5 62 3 84 -8 48 -25 56 -5 48 108 -8 118 -2 125 83
108 77 -16 70 -17 131 28 55 41 104 52 128 28z m2092 -383 c10 -9 21 -33 25
-53 4 -20 11 -45 16 -54 11 -21 59 -24 92 -7 16 9 22 9 25 0 6 -17 32 -13 32
4 0 9 -6 28 -14 44 -8 15 -11 32 -8 38 11 18 62 34 86 27 23 -7 106 -83 106
-97 0 -5 -14 -22 -31 -38 -31 -29 -31 -54 0 -44 29 9 123 -55 135 -93 17 -48
32 -53 93 -30 62 23 107 17 61 -8 -35 -18 -39 -50 -5 -39 57 18 74 17 102 -8
l29 -24 -18 -47 c-13 -33 -23 -46 -37 -46 -31 0 -22 -24 16 -44 40 -22 41 -27
20 -86 -22 -63 -19 -72 33 -105 26 -16 48 -39 50 -49 2 -11 -9 -46 -24 -78
l-28 -59 27 -23 c15 -13 27 -27 27 -31 0 -25 -69 -109 -111 -137 -27 -17 -49
-37 -49 -45 0 -15 18 -17 39 -4 11 7 20 -1 38 -34 13 -24 23 -49 23 -55 0 -6
-21 -33 -47 -61 -42 -45 -45 -50 -26 -55 11 -3 26 -17 32 -31 14 -31 6 -42
-91 -119 -64 -52 -67 -53 -115 -47 -40 4 -52 10 -66 34 -18 33 -50 48 -118 56
l-47 6 24 35 c13 19 24 41 24 48 0 7 12 14 28 16 42 5 32 22 -17 28 -62 7 -76
31 -51 85 27 55 25 61 -19 86 l-39 21 24 58 c12 31 28 78 35 103 10 43 14 47
53 54 26 6 41 14 41 23 0 12 -13 14 -65 12 -78 -4 -105 -20 -142 -88 -36 -65
-77 -100 -127 -109 -39 -6 -54 -26 -31 -40 7 -4 8 -26 4 -56 -5 -33 -2 -58 6
-74 11 -20 10 -28 -4 -50 -9 -14 -21 -25 -26 -25 -6 0 -10 -7 -10 -15 0 -22
36 -18 60 7 21 23 27 76 12 106 -5 9 -7 38 -4 64 4 43 7 48 36 58 43 14 89 60
114 113 23 50 52 79 52 54 0 -33 -62 -186 -97 -238 -73 -111 -78 -150 -34
-285 16 -49 41 -136 56 -194 14 -58 31 -109 36 -114 17 -19 71 49 120 152 27
56 54 102 59 102 12 0 30 -34 30 -58 0 -31 -37 -105 -65 -132 -24 -23 -65
-130 -65 -172 0 -11 -12 -35 -26 -53 -14 -19 -35 -58 -47 -87 -19 -48 -22 -76
-25 -288 -2 -130 1 -314 8 -412 14 -198 11 -211 -50 -243 -29 -15 -33 -15 -60
5 -36 26 -39 38 -43 158 -3 139 -22 116 -22 -28 l0 -120 -27 -11 c-42 -17 -50
-5 -43 64 12 109 35 250 56 336 20 80 16 120 -8 89 -18 -22 -51 -170 -69 -312
-16 -123 -20 -136 -37 -136 -19 0 -20 5 -13 153 10 242 34 365 102 540 19 49
38 112 41 140 4 36 11 51 24 54 38 10 49 101 28 236 -21 141 -49 104 -31 -42
7 -58 9 -108 3 -126 l-8 -30 -7 40 c-4 22 -14 67 -22 101 -9 34 -16 96 -17
138 -2 73 -4 79 -31 101 -35 28 -90 45 -143 45 -26 0 -46 6 -54 17 -8 9 -57
48 -109 86 -52 38 -111 85 -132 104 l-36 35 -62 -33 -61 -34 -20 24 c-29 35
-24 58 21 87 22 15 40 30 40 33 0 4 16 5 36 3 30 -4 35 -2 32 14 -2 12 -19 21
-58 29 -65 13 -103 32 -97 48 2 7 30 27 63 45 32 18 63 37 67 42 14 13 0 44
-53 116 -28 37 -50 78 -50 91 0 39 31 83 57 83 22 0 42 24 30 36 -3 3 -45 1
-95 -3 l-90 -9 5 51 c6 57 -20 124 -57 147 -28 18 -25 35 10 53 35 18 47 54
30 95 -17 41 -8 56 44 81 25 11 48 30 52 42 3 11 20 33 37 48 25 23 31 37 36
91 6 60 7 63 46 85 22 12 47 23 57 23 20 0 63 -67 63 -99 0 -38 23 -36 39 3
17 42 20 42 63 16 47 -28 78 -15 87 39 7 49 38 72 105 82 61 9 110 3 131 -16z
m-679 -808 c-16 -48 -7 -77 50 -154 26 -36 46 -70 43 -75 -3 -4 -24 -18 -47
-29 -49 -25 -97 -67 -97 -86 0 -7 22 -25 48 -40 l49 -27 -39 -36 c-44 -43 -47
-64 -15 -111 30 -45 71 -49 130 -14 41 24 45 24 58 8 8 -9 65 -55 128 -101 81
-60 110 -87 100 -92 -18 -10 -117 -35 -192 -49 -55 -10 -60 -9 -104 19 -66 42
-138 56 -226 43 l-72 -10 -39 35 c-76 67 -148 78 -274 40 -73 -21 -75 -21
-128 -3 -97 33 -151 19 -219 -57 l-39 -43 -91 4 c-49 1 -92 4 -93 6 -12 12 22
58 108 149 54 57 105 117 114 134 11 21 21 29 33 26 10 -3 34 3 54 14 l35 18
45 -33 c56 -41 89 -42 165 -2 72 39 99 62 114 100 9 20 31 39 71 60 123 66
178 158 164 273 l-7 54 43 6 c48 7 132 12 137 9 2 -1 -1 -17 -7 -36z m-1211
-118 c0 -43 5 -55 29 -80 24 -23 38 -29 74 -29 70 0 75 -4 69 -58 -3 -41 0
-53 22 -79 15 -18 36 -35 46 -38 17 -5 4 -25 -89 -138 -140 -170 -206 -240
-222 -235 -18 6 -65 131 -84 226 -12 56 -17 140 -18 263 l-2 181 47 3 c25 3
61 11 80 19 48 21 48 21 48 -35z m-322 -217 c1 -81 9 -178 17 -216 8 -38 13
-71 12 -72 -2 -2 -44 26 -94 63 l-91 66 50 61 c63 75 87 127 88 187 0 36 5 59
14 59 1 0 2 -66 4 -148z m2451 -31 c23 -17 23 -19 7 -42 -18 -27 -21 -61 -6
-89 9 -17 5 -22 -35 -41 -25 -12 -48 -25 -51 -30 -20 -33 -40 37 -25 89 10 33
70 132 80 132 3 0 17 -9 30 -19z m981 -91 l40 -20 -39 -35 c-52 -47 -102 -67
-149 -59 -47 7 -83 -19 -116 -84 -45 -88 -75 -102 -309 -142 -95 -16 -182 -32
-195 -36 -22 -6 -22 -5 -10 22 18 44 34 54 71 43 46 -13 51 -12 84 19 17 15
58 51 92 80 67 59 79 94 42 131 -32 32 -5 42 131 51 90 6 135 14 168 29 59 27
138 27 190 1z m-958 -128 c-30 -37 -47 -71 -39 -79 4 -3 32 -8 62 -11 32 -3
55 -9 55 -16 0 -18 -94 -199 -104 -200 -7 -1 -89 276 -83 279 1 1 16 11 32 22
32 21 87 43 94 36 3 -2 -5 -16 -17 -31z m-1592 -127 c54 -19 104 -19 166 0 65
19 148 19 190 -1 19 -9 47 -32 63 -51 28 -33 30 -34 67 -24 22 6 71 11 110 11
59 0 81 -5 125 -28 32 -16 59 -39 67 -55 13 -26 32 -37 32 -18 0 20 33 41 63
41 18 0 75 12 127 26 166 46 265 28 284 -50 15 -65 1 -79 -100 -99 -57 -11
-122 -17 -179 -15 -81 3 -98 0 -170 -28 -128 -50 -177 -59 -254 -44 -63 12
-70 11 -141 -15 -41 -14 -103 -36 -138 -48 l-63 -21 -64 22 c-109 39 -201 28
-282 -34 -55 -42 -154 -83 -231 -95 -84 -14 -83 -15 -106 66 -37 132 -46 237
-25 319 l11 43 91 -5 c51 -2 101 -9 111 -15 16 -8 23 -5 37 14 50 67 65 83 93
100 37 23 60 24 116 4z m2090 -114 c0 -14 -50 -51 -70 -51 -48 0 -119 -33
-175 -81 -64 -55 -178 -116 -183 -99 -8 22 21 113 45 140 27 33 87 53 238 80
119 21 145 23 145 11z m-790 -175 c5 -13 12 -40 15 -60 7 -36 7 -36 -27 -36
-66 0 -155 -22 -363 -90 -782 -256 -888 -288 -1034 -310 -79 -12 -154 -25
-167 -31 -18 -6 -26 -5 -29 4 -2 6 -20 55 -40 107 -55 143 -55 140 -8 140 77
0 185 42 291 114 83 55 138 58 262 11 42 -16 48 -16 100 0 30 9 90 31 132 48
74 30 80 30 150 20 87 -12 158 0 281 48 75 28 88 30 162 25 61 -5 99 -1 160
13 104 25 104 25 115 -3z m30 -173 l0 -38 -97 -23 c-122 -30 -181 -56 -268
-122 -132 -99 -237 -140 -415 -166 -91 -13 -113 -20 -180 -59 -41 -24 -100
-55 -131 -69 -87 -38 -440 -158 -480 -163 l-36 -5 -9 122 c-8 112 -8 123 9
131 9 6 79 19 155 30 151 21 189 32 562 154 140 46 298 96 350 111 52 15 142
44 200 66 135 50 200 66 278 67 l62 1 0 -37z m420 -460 c0 -3 -14 -56 -32
-117 -25 -90 -38 -119 -70 -155 -41 -47 -44 -56 -26 -67 7 -5 22 6 37 25 30
40 124 113 175 137 28 14 39 15 48 6 10 -10 10 -16 0 -30 -7 -9 -21 -30 -31
-45 -10 -15 -38 -40 -62 -56 -24 -15 -50 -35 -58 -44 -26 -32 14 -30 60 2 23
17 49 31 58 31 16 -1 51 -23 51 -32 0 -3 -23 -19 -51 -37 -47 -29 -51 -34 -46
-61 5 -23 2 -33 -16 -45 -31 -22 -89 -19 -121 6 -15 12 -42 23 -59 24 -27 2
-32 6 -29 26 1 13 -2 64 -7 112 l-10 88 34 35 c19 19 35 39 35 45 0 16 99 159
110 159 6 0 10 -3 10 -7z m-4727 -736 c4 -56 9 -118 13 -137 l6 -35 -30 35
c-21 24 -34 54 -42 96 -14 74 -24 94 -41 77 -9 -9 -8 -24 1 -65 17 -69 17
-183 1 -231 -12 -36 -15 -38 -45 -33 -17 3 -81 13 -143 21 -177 25 -267 61
-314 126 l-22 32 39 37 c22 20 67 47 100 60 57 22 422 117 455 119 13 1 17
-16 22 -102z m1382 -112 c51 -21 139 -108 196 -194 56 -83 60 -113 19 -142
-35 -25 -140 -52 -155 -39 -19 16 -210 40 -320 40 -102 0 -157 10 -189 33 -14
11 -15 17 -6 42 22 58 56 97 141 160 144 108 230 136 314 100z m470 -14 c57
-25 102 -82 152 -188 24 -51 43 -95 43 -98 0 -5 -95 -55 -104 -55 -3 0 -14 17
-25 39 -28 55 -145 159 -187 167 -19 3 -55 1 -80 -5 -26 -7 -47 -11 -48 -9 -2
2 -14 19 -29 38 l-26 36 52 28 c57 33 149 65 187 65 14 0 43 -8 65 -18z m-79
-199 c75 -55 139 -141 119 -160 -14 -15 -150 -7 -196 11 -45 17 -47 19 -37 45
9 22 7 37 -10 74 -23 53 -20 56 44 57 30 1 51 -7 80 -27z"/>
<path style="fill:#FFFFFF;" id="parte1" d="M9596 5971 c-4 -6 -4 -82 0 -171 5 -120 10 -160 20 -160 7 0 15 3 17
8 10 17 -8 325 -20 329 -6 2 -14 0 -17 -6z"/>
<path style="fill:#FFFFFF;" id="parte1" d="M9728 5258 c-3 -7 1 -33 9 -57 19 -64 16 -188 -7 -303 -12 -56 -22
-106 -23 -111 -1 -6 5 -12 14 -14 19 -5 40 69 60 210 18 120 -6 287 -41 287
-4 0 -10 -6 -12 -12z"/>
<path style="fill:#FFFFFF;" id="parte1" d="M9674 5220 c-6 -6 -8 -31 -3 -63 9 -69 -5 -178 -40 -310 -24 -91 -27
-109 -15 -114 8 -3 17 -4 19 -1 2 2 19 58 36 123 28 101 33 138 33 237 1 115
-8 150 -30 128z"/>
<path style="fill:#FFFFFF;" id="parte1" d="M11564 7223 c-18 -85 -49 -187 -74 -250 -38 -95 -98 -189 -111 -176
-10 10 5 347 16 381 3 7 22 12 50 12 32 0 45 4 45 14 0 33 -58 34 -126 2 -36
-17 -55 -21 -62 -14 -6 6 -17 8 -26 5 -13 -5 -13 -10 -1 -34 11 -22 12 -46 3
-118 -5 -49 -8 -183 -6 -296 l3 -207 -32 -11 c-40 -15 -55 -33 -62 -79 -5 -32
-13 -40 -55 -62 -28 -14 -51 -30 -53 -36 -5 -14 74 -69 139 -98 52 -23 170
-56 199 -56 9 0 26 -11 39 -25 16 -17 27 -22 34 -15 15 15 -13 58 -45 69 -18
6 -29 17 -29 29 0 10 -18 62 -39 115 -55 134 -62 179 -63 389 -2 241 9 385 29
393 14 5 15 -12 7 -147 -11 -201 -10 -216 8 -235 12 -12 14 -22 7 -40 -9 -25
-5 -43 11 -43 4 0 17 15 27 34 10 19 37 66 60 104 65 106 143 326 143 401 0
31 -29 26 -36 -6z m-274 -735 c0 -5 18 -55 40 -109 22 -55 40 -108 40 -119 0
-18 -2 -18 -52 -4 -61 18 -144 55 -172 77 -19 14 -18 16 22 36 36 19 42 26 42
54 0 36 14 59 45 75 21 11 35 7 35 -10z"/>
<path style="fill:#FFFFFF;" id="parte1" d="M11595 6050 c-3 -5 4 -54 15 -109 11 -54 20 -138 20 -185 0 -65 3
-86 13 -86 45 0 107 159 77 195 -18 22 -30 9 -31 -33 0 -20 -4 -46 -9 -57 -8
-18 -9 -17 -9 6 -1 33 -28 191 -42 242 -10 36 -22 46 -34 27z"/>
<path style="fill:#FFFFFF;" id="parte1" d="M6775 7150 c-100 -39 -162 -87 -196 -152 -49 -95 1 -142 108 -101 13
5 13 2 -1 -25 -26 -51 -22 -62 27 -62 33 0 60 -11 120 -46 l77 -46 -21 -39
c-11 -22 -20 -59 -21 -83 -1 -51 -3 -55 -42 -80 -20 -12 -25 -21 -18 -28 13
-13 68 7 80 27 6 11 18 10 64 -1 31 -8 98 -20 150 -27 89 -12 93 -14 92 -37
-1 -14 -5 -34 -9 -46 -9 -27 34 -56 82 -56 27 0 45 10 88 51 30 28 61 51 69
51 28 0 17 41 -20 76 -19 19 -39 34 -44 34 -5 0 -6 15 -3 34 7 46 -27 116 -78
160 l-39 33 80 77 c71 67 80 80 78 108 -3 29 2 35 43 58 93 51 101 71 37 100
-105 48 -222 8 -376 -128 l-44 -38 17 -57 c20 -71 13 -115 -20 -123 -40 -10
-78 9 -102 52 -20 36 -52 170 -68 287 -6 43 -9 47 -33 47 -15 -1 -49 -10 -77
-20z m75 -27 c0 -5 7 -48 15 -98 18 -113 41 -192 67 -227 18 -26 17 -48 -1
-48 -4 0 -35 18 -69 39 -33 22 -79 45 -101 52 -45 14 -45 13 -31 39 5 10 7 26
3 35 -5 15 -16 16 -74 11 l-68 -7 8 29 c20 69 59 108 151 151 63 30 100 39
100 24z m603 -19 c26 -8 21 -20 -14 -35 -18 -7 -44 -23 -58 -35 -15 -12 -40
-24 -56 -26 -42 -4 -40 -32 3 -36 17 -2 32 -6 32 -10 0 -4 -39 -45 -86 -93
l-86 -86 46 -38 c66 -54 89 -95 84 -152 -3 -43 -1 -47 34 -71 21 -13 38 -28
38 -33 0 -16 -106 -109 -125 -109 -33 0 -45 18 -33 51 8 23 7 35 -6 54 -9 14
-22 25 -29 25 -28 1 -157 21 -224 36 -66 15 -73 18 -73 40 0 38 28 95 62 132
28 28 38 32 84 32 48 0 52 2 64 30 12 28 10 106 -4 155 -10 35 153 155 238
176 29 7 68 4 109 -7z"/>
<path style="fill:#FFFFFF;" id="parte1" d="M6445 5751 c-3 -6 -3 -26 1 -44 4 -17 7 -53 5 -78 -1 -38 3 -52 26
-79 15 -18 42 -39 61 -47 30 -12 37 -12 57 1 34 22 75 79 86 120 14 49 -10
106 -44 106 -14 0 -27 -7 -31 -15 -8 -23 -25 -18 -36 10 -5 14 -16 25 -25 25
-19 0 -19 -11 -1 -55 11 -26 21 -35 39 -35 14 0 30 7 37 15 17 20 30 10 30
-25 0 -32 -56 -113 -82 -118 -9 -2 -31 10 -48 25 -30 27 -32 33 -34 101 -1 50
-7 77 -18 88 -11 11 -18 13 -23 5z"/>
<path style="fill:#FFFFFF;" id="parte1" d="M6767 5743 c-4 -3 -7 -18 -7 -33 0 -14 -11 -41 -24 -59 -36 -49 -40
-80 -17 -147 41 -124 38 -172 -15 -261 -25 -41 -32 -59 -24 -67 15 -14 45 21
78 92 20 45 24 65 20 128 -3 59 0 74 11 74 7 0 45 9 82 20 84 25 99 44 99 123
l0 59 -52 -7 c-29 -4 -64 -11 -76 -16 -34 -13 -42 -4 -42 52 0 34 -4 49 -13
49 -8 0 -17 -3 -20 -7z m28 -133 c17 -18 20 -19 41 -5 12 8 41 17 63 21 44 7
49 0 35 -53 -7 -24 -83 -58 -144 -65 -33 -3 -35 -1 -44 34 -6 26 -6 46 2 63
14 30 23 31 47 5z"/>
<path style="fill:#FFFFFF;" id="parte1" d="M7437 5704 c-10 -10 3 -56 22 -77 11 -14 24 -17 48 -14 18 3 33 4 33
1 0 -17 -35 -84 -57 -106 -14 -14 -22 -31 -19 -36 3 -6 -3 -13 -14 -17 -11 -3
-36 -27 -57 -51 l-36 -45 -24 30 c-29 37 -71 41 -121 11 l-32 -20 -11 27 c-34
89 -113 84 -160 -9 l-21 -42 -14 32 c-29 69 -134 67 -134 -3 0 -12 -6 -35 -14
-50 -14 -27 -12 -55 4 -55 12 0 50 77 50 100 0 15 7 20 26 20 19 0 28 -8 39
-33 23 -56 39 -62 66 -29 13 16 32 44 41 61 24 44 64 43 83 -1 13 -32 12 -34
-18 -60 -22 -18 -29 -30 -22 -37 7 -7 34 5 83 35 82 50 109 57 125 32 9 -13 6
-21 -14 -37 -16 -13 -21 -23 -14 -30 17 -17 108 32 145 78 28 35 40 42 82 47
53 7 60 26 14 34 l-28 5 22 20 c36 32 60 91 67 160 5 57 4 65 -11 65 -10 0
-20 -9 -23 -20 -3 -10 -16 -26 -29 -35 -22 -14 -24 -14 -34 4 -5 11 -10 27
-10 35 0 16 -21 22 -33 10z"/>
<path style="fill:#FFFFFF;" id="parte1" d="M7310 5612 c0 -85 17 -123 60 -137 39 -12 44 7 9 35 -32 27 -33 30
-34 101 0 62 -3 74 -17 77 -16 3 -18 -6 -18 -76z"/>
<path style="fill:#FFFFFF;" id="parte1" d="M6820 4838 c-43 -15 -98 -21 -255 -28 -197 -8 -338 -26 -605 -74
-170 -31 -231 -52 -248 -89 -21 -43 0 -95 45 -114 44 -18 108 -14 108 7 0 11
-15 17 -53 20 -57 6 -74 20 -70 60 4 34 61 52 313 95 269 46 338 54 555 64
197 9 281 28 288 64 4 21 -7 20 -78 -5z"/>
<path style="fill:#FFFFFF;" id="parte1" d="M3400 4739 c-73 -20 -120 -41 -120 -55 0 -19 17 -18 86 7 50 19 81
22 197 22 133 0 164 7 111 27 -32 12 -227 11 -274 -1z"/>
<path style="fill:#FFFFFF;" id="parte1" d="M4280 4709 c-74 -5 -163 -6 -196 -3 -64 6 -85 -4 -58 -26 11 -10 65
-12 244 -7 233 7 264 11 257 31 -5 14 -76 16 -247 5z"/>
<path style="fill:#FFFFFF;" id="parte1" d="M10722 4568 c-23 -30 -45 -85 -66 -171 l-23 -92 -42 85 c-22 46 -45
88 -49 92 -5 5 -20 4 -35 -1 -21 -8 -27 -20 -37 -66 -12 -57 -10 -279 3 -291
4 -4 13 -2 21 5 11 10 13 35 9 130 -6 114 1 192 15 191 4 -1 29 -47 55 -103
43 -92 49 -111 54 -194 8 -130 8 -131 -75 -89 -38 19 -90 51 -116 71 -31 23
-54 34 -64 30 -27 -11 58 -79 162 -130 107 -53 187 -75 269 -75 38 0 64 -5 71
-14 6 -7 99 -38 206 -69 404 -114 887 -360 1063 -540 153 -157 250 -479 218
-727 -27 -209 -133 -393 -284 -491 -65 -42 -123 -65 -352 -139 -383 -123 -498
-249 -409 -446 100 -224 113 -336 52 -464 -33 -68 -140 -169 -230 -215 -93
-48 -105 -43 -83 31 8 27 15 70 15 97 0 43 -2 47 -24 47 -14 0 -39 -12 -56
-26 l-31 -27 1 89 c1 49 -1 96 -5 105 -3 10 -5 25 -3 35 2 11 -4 20 -14 22
-11 2 -18 -2 -18 -11 0 -7 -16 -35 -35 -62 l-34 -49 -11 28 c-5 15 -10 31 -10
36 0 5 -9 14 -20 20 -13 7 -20 21 -20 40 0 39 -9 60 -27 60 -12 0 -14 -9 -8
-48 6 -46 1 -84 -29 -226 -12 -58 -12 -59 -64 -78 -38 -14 -67 -36 -113 -86
-70 -76 -70 -69 -7 73 40 90 61 196 41 208 -17 11 -92 -34 -121 -72 -16 -20
-54 -82 -86 -138 -32 -57 -60 -103 -63 -103 -2 0 -3 107 -2 239 1 131 -2 244
-5 250 -15 24 -26 -3 -26 -65 0 -52 -5 -72 -26 -106 -27 -42 -55 -147 -75
-276 -6 -41 -15 -70 -19 -65 -4 4 -31 75 -60 158 -29 82 -54 155 -57 162 -7
17 -33 17 -33 -1 0 -7 7 -32 15 -55 11 -33 12 -53 4 -99 -15 -79 -6 -273 16
-350 10 -34 16 -64 14 -67 -13 -12 -493 -98 -551 -98 -54 -1 -65 -20 -23 -39
18 -8 35 -8 62 0 21 6 94 20 163 32 277 47 876 172 1060 221 93 25 250 98 250
116 0 9 8 11 24 7 42 -10 179 69 262 151 92 91 125 158 132 271 5 93 -13 170
-74 305 -49 110 -53 156 -20 213 51 88 170 152 448 240 97 31 208 72 247 92
170 85 299 263 346 478 25 112 16 313 -19 451 -39 153 -112 291 -199 380 -88
87 -233 184 -432 287 -266 137 -426 201 -671 268 -136 38 -192 60 -153 60 18
1 70 45 108 93 26 34 29 42 18 64 -10 22 -16 24 -49 20 -38 -5 -46 1 -28 19
15 15 50 124 50 155 0 15 -4 30 -8 33 -12 7 -106 -51 -161 -100 -56 -50 -66
-54 -57 -20 3 14 7 76 7 138 2 98 -1 119 -20 156 -23 44 -32 50 -49 30z m31
-241 c-1 -129 -6 -181 -17 -209 -9 -21 -16 -46 -16 -57 0 -32 19 -34 31 -4 43
113 112 198 192 240 l30 15 -7 -29 c-15 -60 -73 -148 -124 -188 -28 -22 -51
-46 -51 -52 -2 -25 33 -13 80 27 26 22 58 40 71 40 13 0 30 4 38 9 29 19 29
-2 -2 -39 -36 -46 -117 -90 -164 -90 -38 0 -136 19 -146 29 -4 3 -7 62 -8 131
-1 104 4 141 24 219 33 126 46 155 60 141 7 -7 10 -68 9 -183z m63 -3244 c8
-32 14 -86 14 -120 0 -65 9 -83 30 -58 9 10 10 35 5 85 -5 48 -4 70 4 70 6 0
13 11 17 24 3 14 14 32 24 41 18 16 18 13 13 -82 -4 -74 -11 -111 -29 -152
-18 -39 -21 -58 -14 -65 14 -14 43 23 61 76 7 21 17 38 23 38 5 0 22 12 38 27
15 14 31 24 34 20 4 -4 -1 -33 -11 -66 -10 -32 -16 -73 -13 -89 4 -30 2 -32
-91 -75 -114 -53 -167 -67 -535 -147 -215 -46 -282 -57 -288 -47 -29 46 -57
285 -41 347 9 34 10 32 51 -85 47 -134 53 -147 72 -153 10 -4 12 4 7 34 -4 21
-2 43 4 50 6 7 19 64 29 126 10 62 24 133 31 158 13 44 14 41 19 -101 4 -80
11 -152 16 -160 5 -8 9 -34 9 -59 0 -33 4 -45 15 -45 9 0 16 11 18 25 11 105
171 390 220 390 15 0 -3 -67 -42 -157 -52 -118 -68 -213 -36 -213 4 0 43 38
85 85 67 73 108 105 120 93 2 -1 -7 -28 -20 -58 -22 -51 -23 -80 -5 -80 11 0
60 107 60 130 0 9 8 25 19 34 10 9 21 31 25 49 19 98 39 177 43 173 3 -3 12
-31 19 -63z"/>
<path style="fill:#FFFFFF;" id="parte1" d="M4175 4550 c-11 -18 4 -28 41 -28 35 0 74 -24 74 -47 0 -6 11 -22 25
-35 l25 -23 112 16 c62 9 203 22 313 28 263 14 310 20 310 39 0 11 -10 14 -35
13 -232 -12 -555 -36 -590 -43 -89 -18 -108 -14 -129 28 -11 21 -31 43 -46 50
-32 15 -92 16 -100 2z"/>
<path style="fill:#FFFFFF;" id="parte1" d="M3622 4443 c-35 -50 -59 -106 -101 -234 -24 -72 -39 -133 -35 -143 8
-20 44 -36 80 -36 35 0 26 23 -14 35 -18 5 -32 14 -32 20 0 30 86 261 115 310
32 53 37 75 15 75 -5 0 -17 -12 -28 -27z"/>
<path style="fill:#FFFFFF;" id="parte1" d="M12051 4449 c-48 -51 -81 -174 -81 -301 l0 -53 -33 39 c-22 26 -39
37 -52 35 -45 -9 -77 -142 -56 -233 6 -28 41 -113 79 -190 l67 -138 90 6 c50
3 152 9 228 12 124 6 137 9 137 25 0 16 -8 19 -41 19 -41 0 -41 0 -27 22 9 13
41 39 73 58 55 34 92 80 80 100 -9 14 -74 30 -122 30 -27 0 -43 5 -43 12 0 7
18 38 40 70 48 68 98 172 102 213 2 24 -2 32 -25 43 -24 12 -32 11 -65 -5 -29
-14 -57 -48 -131 -160 -52 -78 -96 -141 -98 -139 -2 1 -7 106 -12 232 -7 192
-11 235 -27 269 -11 22 -24 40 -29 40 -6 0 -15 4 -22 8 -7 4 -20 -2 -32 -14z
m58 -75 c8 -29 14 -165 16 -352 2 -167 6 -307 9 -309 8 -8 23 30 30 74 4 29
32 84 87 170 121 190 156 233 191 233 15 0 17 -5 12 -27 -10 -41 -52 -121 -96
-184 -23 -32 -41 -70 -43 -88 -1 -19 -14 -44 -30 -61 -18 -18 -25 -35 -21 -45
5 -15 12 -12 46 19 22 19 50 38 63 41 29 8 89 -7 94 -22 2 -6 -21 -25 -51 -43
-59 -33 -96 -72 -96 -100 0 -15 -16 -18 -122 -23 -66 -4 -140 -7 -163 -7 l-42
0 -63 133 c-53 109 -65 143 -68 195 -4 60 13 152 28 152 3 0 20 -19 37 -42 36
-52 72 -179 81 -291 5 -63 10 -82 22 -82 23 0 16 132 -14 245 -13 52 -23 97
-21 100 2 4 9 61 14 129 11 116 24 169 57 219 20 30 29 22 43 -34z"/>
<path style="fill:#FFFFFF;" id="parte1" d="M5150 4408 c-14 -6 -43 -11 -65 -12 -28 -1 -40 -5 -40 -16 0 -19 77
-19 146 0 42 12 52 10 125 -14 87 -30 159 -32 159 -6 0 11 -16 17 -60 21 -33
4 -77 14 -97 23 -42 18 -130 20 -168 4z"/>
<path style="fill:#FFFFFF;" id="parte1" d="M459 4191 c-32 -33 -36 -58 -14 -101 19 -36 52 -60 84 -60 22 0 23
-3 17 -37 -19 -104 -19 -110 3 -132 31 -31 63 -26 113 19 44 38 46 39 62 21
20 -22 33 -67 28 -103 -3 -27 -4 -27 -75 -25 -58 2 -72 -1 -72 -13 0 -11 17
-16 66 -21 36 -3 80 -11 97 -18 31 -13 31 -14 17 -42 -8 -15 -15 -44 -15 -63
0 -34 43 -160 61 -180 18 -20 8 -24 -64 -28 -60 -3 -82 -8 -115 -31 -46 -30
-51 -44 -24 -77 15 -19 28 -22 70 -22 61 2 100 -11 109 -35 10 -30 35 -53 57
-53 12 0 64 20 116 45 52 25 104 45 115 45 11 0 36 -19 56 -42 50 -58 83 -57
183 5 42 26 82 47 90 47 7 0 21 -9 31 -20 29 -32 66 -24 149 30 42 27 76 53
76 57 0 4 -16 24 -36 44 -35 36 -36 37 -20 67 23 44 21 105 -5 127 -22 21
-115 28 -158 13 -36 -13 -37 -3 -5 44 38 57 40 124 5 162 -14 14 -33 26 -43
26 -25 0 -188 -77 -214 -101 l-21 -20 -5 74 c-5 81 -30 139 -62 145 -25 5 -87
-58 -117 -116 -12 -26 -30 -77 -39 -115 l-16 -67 -27 28 -28 29 33 69 c22 48
34 88 36 131 4 50 8 64 23 68 28 9 24 35 -6 35 -55 0 -114 -50 -157 -134 l-21
-41 -14 39 c-7 22 -20 47 -29 57 -10 11 -12 19 -5 24 22 13 11 57 -24 98 -28
33 -35 49 -35 83 0 50 7 54 92 53 81 -1 90 -17 39 -70 -22 -23 -38 -46 -35
-51 11 -17 33 -7 68 32 37 42 48 88 24 107 -23 18 -137 22 -195 7 -69 -18 -94
-18 -119 1 -31 24 -72 18 -105 -14z m110 -26 c24 -9 52 -13 62 -10 16 6 19 1
19 -33 0 -38 0 -39 -51 -50 -70 -16 -77 -16 -104 14 -27 29 -32 63 -13 82 16
16 34 15 87 -3z m136 -152 c28 -34 29 -37 11 -47 -10 -6 -39 -28 -63 -48 -78
-66 -99 -46 -70 67 10 38 19 51 38 56 42 12 53 8 84 -28z m220 -120 c-6 -46
-58 -173 -70 -173 -5 0 -66 29 -73 35 -2 1 0 14 3 28 5 17 12 24 21 20 8 -3
21 7 31 27 31 55 73 110 84 110 8 0 9 -15 4 -47z m203 -20 c17 -43 19 -184 3
-212 -9 -16 -10 -26 -2 -34 7 -7 25 6 58 43 36 40 69 63 129 92 89 41 104 44
122 26 14 -14 16 -84 3 -92 -5 -3 -23 -30 -39 -59 -17 -29 -46 -68 -67 -85
-34 -31 -39 -52 -11 -52 6 0 27 16 46 35 18 19 43 35 54 35 12 0 51 3 89 6
100 9 124 -24 72 -100 -14 -20 -25 -40 -25 -43 0 -3 17 -20 37 -38 l37 -32
-54 -36 c-63 -42 -82 -45 -118 -16 -33 26 -53 21 -145 -36 -39 -25 -81 -45
-94 -45 -20 0 -42 21 -69 66 -19 32 -87 23 -183 -25 -94 -46 -117 -50 -126
-22 -12 39 -45 56 -118 61 -39 3 -72 10 -74 15 -5 17 53 46 104 51 30 3 69 -1
103 -11 96 -28 100 -29 100 -12 0 9 -15 21 -33 28 -23 8 -40 25 -55 53 -62
118 -77 189 -53 235 l12 22 29 -21 c36 -26 107 -106 126 -142 15 -28 44 -38
44 -15 0 7 -12 29 -26 50 -24 36 -25 41 -15 103 11 75 51 167 88 207 15 15 30
27 34 27 3 0 11 -12 17 -27z"/>
<path style="fill:#FFFFFF;" id="parte1" d="M4310 4157 c0 -8 26 -21 63 -31 34 -9 105 -40 157 -68 l94 -51 146
-8 c150 -8 365 -31 459 -49 72 -13 91 -13 91 4 0 8 -19 18 -47 25 -76 18 -376
52 -518 60 -129 7 -131 7 -206 49 -122 68 -239 101 -239 69z"/>
<path style="fill:#FFFFFF;" id="parte1" d="M6175 4121 c-8 -14 5 -19 66 -26 149 -17 217 -46 316 -136 103 -93
197 -133 334 -140 54 -3 64 -1 67 14 3 13 -3 17 -29 17 -64 0 -165 23 -225 51
-34 16 -93 57 -133 93 -79 71 -131 99 -224 121 -70 17 -163 20 -172 6z"/>
<path style="fill:#FFFFFF;" id="parte1" d="M4367 4034 c-3 -4 2 -23 13 -43 10 -20 21 -54 25 -74 l7 -37 -83 0
c-46 0 -100 5 -119 10 -37 11 -324 69 -445 91 -38 6 -88 18 -109 26 -27 9 -43
10 -50 3 -23 -23 53 -50 224 -79 63 -11 169 -31 235 -46 66 -14 143 -30 170
-36 28 -5 124 -9 215 -8 123 2 185 -2 243 -15 42 -9 82 -14 87 -11 5 3 20 -3
32 -14 38 -36 97 -49 358 -81 298 -36 474 -67 620 -110 118 -34 130 -35 176
-18 30 11 35 9 75 -26 40 -33 118 -66 160 -66 9 0 22 -7 30 -16 7 -8 40 -28
73 -43 69 -32 89 -51 105 -101 6 -20 25 -53 43 -74 33 -40 195 -164 338 -258
135 -88 202 -163 221 -245 25 -110 -89 -233 -257 -278 -44 -12 -140 -18 -369
-25 -488 -13 -569 -33 -672 -164 -61 -79 -109 -100 -305 -135 -201 -36 -277
-45 -593 -71 -337 -27 -480 -46 -595 -80 -99 -28 -144 -50 -154 -75 -3 -8 1
-33 9 -56 22 -62 19 -76 -17 -88 -58 -18 -208 -40 -418 -61 -113 -11 -267 -27
-342 -36 -77 -8 -158 -12 -183 -8 l-46 6 24 32 c63 82 97 194 100 325 2 94
-12 121 -28 56 -5 -23 -25 -56 -43 -75 -18 -19 -59 -78 -92 -131 -32 -53 -66
-101 -74 -109 -14 -11 -16 -9 -16 16 1 45 36 192 64 269 14 39 26 87 26 108 0
21 7 49 16 62 18 28 15 60 -6 60 -8 0 -17 -9 -20 -21 -3 -11 -24 -37 -48 -58
-52 -48 -104 -151 -134 -269 -22 -84 -40 -107 -46 -56 -1 13 20 143 47 289 47
249 51 305 22 275 -6 -6 -31 -125 -56 -265 -25 -140 -47 -259 -49 -265 -2 -5
-44 31 -94 81 -50 51 -93 89 -96 86 -12 -11 -6 -31 17 -59 15 -18 38 -84 67
-193 24 -91 46 -171 48 -179 9 -24 -303 -8 -583 30 -212 29 -267 32 -470 32
-202 0 -262 -4 -495 -33 -221 -28 -299 -34 -470 -34 -113 -1 -234 1 -270 4
-53 4 -65 2 -65 -10 0 -24 77 -33 305 -33 181 0 255 5 470 31 472 58 572 58
1029 1 322 -41 553 -45 619 -13 24 12 51 20 62 17 10 -3 34 0 53 6 27 9 40 9
63 -4 36 -19 48 -19 84 0 25 13 29 13 34 -1 5 -14 23 -16 129 -11 67 3 163 10
212 16 50 5 162 17 250 26 197 19 400 52 437 71 36 19 42 47 24 108 -19 62
-16 65 109 100 118 34 247 51 550 76 309 25 390 34 580 65 266 44 310 62 386
157 23 29 56 63 75 75 73 50 215 69 584 78 140 3 284 11 320 17 84 13 194 66
247 118 150 144 95 315 -153 477 -141 91 -310 219 -337 255 -14 18 -28 45 -32
60 -6 24 -3 29 29 42 42 18 58 58 33 84 -17 17 -17 17 -33 -36 -2 -7 -16 -17
-30 -22 -23 -9 -31 -7 -51 12 l-24 23 24 20 c13 11 38 27 55 37 36 19 54 48
42 68 -7 11 -15 7 -38 -18 -17 -18 -35 -32 -41 -32 -6 0 -26 -14 -45 -30 l-35
-31 -37 18 c-60 29 -62 42 -19 113 21 34 51 70 66 79 16 9 29 24 29 34 0 22
-8 21 -48 -3 -27 -17 -65 -66 -118 -156 -10 -17 -14 -18 -60 -3 -54 17 -53 15
-29 99 19 68 17 145 -5 145 -11 0 -16 -17 -21 -70 -3 -38 -11 -83 -18 -99
l-12 -29 -25 24 c-14 13 -37 43 -51 67 -14 23 -29 42 -33 42 -20 0 -20 -23 0
-57 38 -64 -6 -67 -200 -15 -144 39 -287 63 -605 102 -272 34 -312 46 -307 91
7 58 6 72 -4 76 -6 2 -18 -15 -27 -38 l-16 -42 -43 7 c-24 4 -65 11 -93 16
-27 5 -85 9 -127 9 -76 1 -78 1 -84 29 -20 93 -54 149 -77 126z m-1378 -1881
c-4 -21 -19 -67 -32 -103 -30 -78 -60 -249 -51 -285 8 -32 -19 -65 -52 -65
-48 0 -58 75 -21 143 13 23 31 74 41 112 26 104 90 235 116 235 4 0 4 -17 -1
-37z m156 -217 c-19 -89 -53 -162 -98 -210 -32 -34 -41 -38 -69 -32 -37 7 -47
15 -31 24 14 9 68 87 124 179 39 65 79 116 85 110 2 -2 -3 -33 -11 -71z m-379
-74 c11 -16 13 -36 8 -71 -4 -29 -2 -56 5 -69 9 -17 7 -23 -11 -36 -12 -9 -25
-12 -29 -8 -7 6 -79 260 -79 276 0 11 89 -66 106 -92z"/>
<path style="fill:#FFFFFF;" id="parte1" d="M9288 3999 c-47 -35 -132 -58 -255 -69 -120 -12 -144 -19 -121 -37
16 -13 189 2 273 23 69 17 148 62 153 87 5 23 -17 21 -50 -4z"/>
<path style="fill:#FFFFFF;" id="parte1" d="M9210 3904 c-52 -14 -130 -27 -173 -31 -78 -6 -99 -15 -79 -35 27
-27 364 42 370 75 4 21 0 21 -118 -9z"/>
<path style="fill:#FFFFFF;" id="parte1" d="M6322 3834 c2 -14 13 -20 38 -22 19 -1 62 -9 94 -18 89 -24 249 -44
261 -33 17 16 -8 26 -95 38 -47 7 -107 18 -135 26 -27 7 -76 17 -108 21 -54 6
-59 5 -55 -12z"/>
<path style="fill:#FFFFFF;" id="parte1" d="M9958 3805 c-5 -5 -8 -14 -8 -22 0 -10 23 -13 98 -13 219 0 432 -57
432 -115 0 -6 9 -20 19 -32 15 -16 36 -21 108 -26 49 -4 152 -21 229 -38 201
-45 292 -82 394 -158 57 -43 80 -51 80 -27 0 17 -101 91 -170 126 -112 57
-408 130 -524 130 -70 0 -65 -3 -127 72 -33 41 -78 59 -204 83 -93 18 -316 31
-327 20z"/>
<path style="fill:#FFFFFF;" id="parte1" d="M8015 3540 c-13 -21 7 -27 107 -33 116 -7 230 -33 314 -73 49 -23 59
-33 79 -78 30 -68 55 -88 148 -125 122 -49 155 -68 187 -112 43 -60 57 -134
41 -223 -18 -97 -18 -111 -2 -111 20 0 41 85 41 171 0 139 -50 219 -172 273
-171 75 -181 81 -210 143 -32 67 -70 93 -195 132 -109 34 -325 57 -338 36z"/>
<path style="fill:#FFFFFF;" id="parte1" d="M4845 3535 c-5 -2 -23 -6 -38 -10 -33 -7 -110 -76 -164 -146 l-37
-49 -19 30 c-11 17 -32 37 -48 45 -26 14 -29 13 -48 -11 -31 -39 -44 -101 -38
-171 4 -35 4 -63 1 -63 -11 0 -50 24 -88 53 -36 29 -39 29 -51 13 -22 -30 -27
-82 -11 -120 l15 -36 -49 0 c-58 0 -126 -25 -140 -51 -16 -29 -11 -85 9 -110
26 -32 78 -29 222 15 l114 35 25 -23 c72 -67 142 -60 244 26 44 37 50 40 70
28 89 -57 117 -54 233 22 l63 40 31 -26 c40 -34 76 -33 146 4 43 23 64 29 89
24 38 -7 74 10 74 35 0 10 -7 32 -15 47 -8 16 -15 51 -15 77 0 40 -5 54 -28
77 -49 48 -102 49 -243 4 -13 -4 -17 4 -22 36 -8 62 -32 83 -87 78 -25 -3 -71
-17 -103 -32 -32 -16 -61 -26 -63 -23 -3 3 -1 22 5 44 14 48 14 99 1 124 -11
19 -15 21 -35 14z m5 -77 c0 -51 -28 -114 -64 -147 -28 -26 -34 -51 -13 -51 7
0 26 13 41 28 17 18 38 29 56 30 16 0 51 10 77 22 112 51 143 45 143 -29 0
-35 -5 -53 -20 -66 -23 -21 -26 -45 -7 -45 8 0 24 11 36 24 27 29 140 66 199
66 62 0 85 -25 93 -101 3 -35 9 -72 13 -81 7 -16 2 -18 -38 -18 -32 0 -64 -9
-106 -31 -57 -30 -60 -31 -84 -15 -14 9 -33 30 -41 46 -18 35 -35 39 -42 10
-3 -11 -37 -40 -76 -65 -82 -52 -123 -58 -171 -22 -52 39 -54 39 -93 4 -109
-98 -166 -111 -232 -52 -21 19 -45 33 -52 30 -8 -3 -40 21 -77 59 -49 51 -62
71 -62 95 0 17 3 31 6 31 16 0 95 -55 123 -86 22 -24 37 -32 43 -26 6 6 6 17
-1 30 -15 27 -14 214 1 247 14 31 21 31 48 3 17 -19 21 -34 19 -84 -3 -94 24
-115 37 -28 12 82 172 260 237 264 4 0 7 -19 7 -42z m-465 -448 c16 -16 27
-31 24 -33 -8 -7 -155 -46 -196 -53 -36 -5 -43 -3 -53 16 -6 12 -9 32 -6 45 9
34 15 36 187 53 8 1 28 -11 44 -28z"/>
<path style="fill:#FFFFFF;" id="parte1" d="M10740 3468 c0 -11 22 -18 84 -27 83 -13 174 -45 313 -112 68 -32 72
-36 73 -67 0 -18 5 -42 10 -52 6 -11 61 -44 123 -73 61 -30 132 -68 157 -85
44 -30 60 -33 60 -9 0 18 -89 73 -207 129 -56 27 -104 54 -104 61 -1 6 -2 28
-3 47 -1 34 -3 36 -106 87 -139 69 -239 103 -327 110 -61 5 -73 3 -73 -9z"/>
<path style="fill:#FFFFFF;" id="parte1" d="M11432 3284 c2 -11 23 -22 58 -31 136 -34 239 -104 406 -275 104
-106 124 -148 106 -226 -8 -35 -7 -45 5 -49 21 -8 26 2 31 66 7 93 -9 124
-122 239 -168 172 -269 242 -403 276 -76 20 -85 20 -81 0z"/>
<path style="fill:#FFFFFF;" id="parte1" d="M10012 3228 c-11 -29 -23 -68 -27 -85 -3 -18 -10 -33 -14 -33 -14 0
-58 -74 -75 -123 -8 -25 -23 -95 -32 -154 -19 -132 -28 -152 -43 -97 -6 21
-17 64 -25 94 -18 67 -40 100 -56 84 -7 -7 -6 -21 5 -47 8 -21 22 -67 31 -104
8 -37 26 -93 40 -125 31 -73 30 -129 -1 -196 -21 -45 -22 -54 -9 -59 8 -3 21
3 29 13 20 27 45 111 45 149 0 29 4 33 34 39 24 5 64 35 142 107 214 199 287
235 457 227 168 -9 277 -76 343 -211 49 -101 77 -133 169 -192 99 -64 119 -97
91 -150 -46 -84 -163 -103 -646 -104 -375 0 -439 7 -526 53 -27 15 -57 32 -66
38 -22 16 -36 2 -22 -20 16 -24 79 -59 154 -83 60 -20 89 -22 410 -24 512 -4
664 19 719 109 48 76 21 135 -94 211 -92 61 -111 82 -161 185 -18 38 -51 87
-73 108 -141 136 -395 161 -570 54 -33 -20 -106 -79 -160 -130 -135 -125 -153
-140 -183 -147 -23 -6 -29 -2 -43 24 -9 19 -11 31 -5 31 18 0 37 58 49 150 14
96 39 198 52 206 5 3 9 -1 9 -8 0 -24 -39 -253 -50 -288 -14 -48 -13 -70 5
-70 19 0 30 41 70 275 19 110 43 227 54 259 25 70 26 86 7 86 -8 0 -23 -23
-34 -52z"/>
<path style="fill:#FFFFFF;" id="parte1" d="M5652 3031 c-57 -20 -132 -83 -132 -111 0 -27 34 -50 71 -50 19 0 64
7 101 14 65 14 108 12 108 -5 0 -13 138 -11 146 2 10 17 -16 29 -65 29 -43 0
-43 0 -27 23 28 38 29 47 5 67 -24 20 -109 50 -138 50 -9 -1 -40 -9 -69 -19z
m144 -36 c22 -9 34 -19 30 -27 -3 -7 -9 -21 -12 -30 -4 -12 -14 -15 -39 -11
-18 3 -70 -2 -115 -11 -97 -20 -118 -12 -79 30 53 58 144 79 215 49z"/>
<path style="fill:#FFFFFF;" id="parte1" d="M1074 2867 c-3 -9 4 -46 16 -83 11 -36 18 -69 15 -73 -4 -3 -49 -6
-101 -5 -69 1 -94 -2 -94 -11 0 -20 25 -25 125 -25 l93 0 17 -47 c22 -59 34
-298 16 -316 -8 -8 -11 -7 -11 4 0 8 -14 29 -30 48 -37 40 -67 37 -118 -12
-59 -56 -89 -138 -72 -196 11 -41 -1 -46 -50 -21 -53 27 -97 23 -123 -11 -26
-36 -16 -79 30 -130 20 -22 34 -41 32 -42 -2 -2 -36 -13 -76 -25 -104 -33
-143 -92 -93 -142 17 -17 33 -20 113 -20 103 0 190 19 254 54 42 24 42 24 60
4 53 -59 131 -61 239 -8 65 32 67 32 101 16 52 -25 97 -20 192 23 125 56 124
56 161 25 38 -32 75 -35 140 -10 44 18 46 18 87 -4 52 -28 87 -21 108 20 12
24 13 35 4 52 -10 19 -7 25 26 52 l37 32 -56 52 c-43 39 -73 56 -123 72 -36
11 -76 20 -89 20 -22 0 -24 4 -24 43 0 69 -22 82 -134 81 -60 -1 -117 -9 -166
-24 -141 -40 -151 -43 -156 -37 -3 3 11 29 30 57 50 73 47 95 -24 141 -24 16
-24 16 -6 45 30 46 57 64 104 64 48 0 59 23 17 34 -60 15 -113 -16 -160 -94
-30 -49 -46 -63 -104 -94 -38 -20 -71 -36 -72 -36 -2 0 -5 46 -5 103 -1 57 -9
129 -18 163 -9 34 -16 65 -16 69 0 5 33 5 74 2 77 -7 93 -3 75 20 -8 9 -36 13
-90 13 l-78 0 -22 73 c-26 82 -44 111 -55 84z m349 -487 c15 -7 27 -21 27 -30
0 -25 -90 -142 -127 -165 -18 -11 -32 -26 -33 -32 0 -20 34 -15 63 7 14 11 40
20 58 20 17 0 75 14 128 31 110 36 269 51 296 29 34 -28 3 -85 -56 -105 -19
-7 -36 -20 -37 -30 -3 -15 1 -17 25 -11 15 4 43 15 61 23 58 27 197 -12 264
-75 27 -25 27 -26 8 -39 -13 -9 -31 -12 -50 -8 -33 7 -70 -9 -70 -31 0 -12 8
-13 33 -9 29 6 36 3 50 -19 21 -31 21 -31 1 -50 -14 -15 -18 -14 -44 4 -33 24
-87 26 -137 5 -48 -20 -60 -19 -95 10 -41 34 -73 32 -177 -15 -97 -44 -141
-49 -195 -23 -35 16 -36 16 -107 -20 -99 -51 -153 -51 -210 0 -34 31 -43 35
-57 25 -54 -39 -128 -64 -221 -74 -119 -13 -151 -7 -151 27 0 30 26 48 104 70
40 12 74 15 107 11 40 -5 49 -4 49 8 0 9 -13 19 -30 23 -36 10 -120 106 -120
138 0 12 7 28 16 35 13 11 23 10 60 -8 57 -28 100 -29 109 -2 3 11 3 39 0 63
-9 55 16 117 61 157 19 16 39 30 44 30 6 0 23 -15 39 -32 l29 -33 -19 -37
c-22 -43 -25 -98 -6 -98 7 0 18 19 24 43 17 62 43 90 130 135 43 22 87 47 98
55 11 9 22 14 25 13 3 -1 17 -8 33 -16z"/>
<path style="fill:#FFFFFF;" id="parte1" d="M7827 2607 c5 -70 2 -89 -15 -123 -44 -86 -136 -144 -324 -203 -494
-155 -511 -162 -548 -208 -17 -22 -21 -36 -16 -68 3 -23 8 -48 11 -58 4 -10
-2 -25 -17 -40 -31 -31 -144 -58 -358 -87 -224 -30 -543 -90 -559 -106 -30
-27 17 -25 195 10 99 19 251 44 339 56 381 50 453 84 429 199 -13 61 -2 81 54
110 43 21 192 71 412 136 85 25 192 64 236 85 162 78 232 203 193 343 -5 20
-16 37 -23 37 -11 0 -13 -18 -9 -83z"/>
<path style="fill:#FFFFFF;" id="parte1" d="M1436 2642 c-11 -19 19 -29 116 -41 114 -14 218 -4 218 22 0 10 -26
13 -107 13 -60 -1 -133 3 -164 8 -36 5 -59 4 -63 -2z"/>
<path style="fill:#FFFFFF;" id="parte1" d="M9515 2512 c-36 -22 -95 -88 -95 -106 0 -8 25 -17 66 -25 108 -20
174 -61 220 -137 9 -14 15 -16 24 -8 9 9 8 18 -3 40 -32 61 -108 112 -199 135
-27 6 -48 15 -48 19 0 16 62 60 85 60 34 0 77 18 70 30 -10 17 -88 11 -120 -8z"/>
<path style="fill:#FFFFFF;" id="parte1" d="M10874 2493 c-11 -37 -22 -49 -78 -81 -51 -30 -66 -49 -50 -64 6 -7
111 55 137 80 21 22 27 73 10 79 -7 3 -16 -4 -19 -14z"/>
<path style="fill:#FFFFFF;" id="parte1" d="M11289 2388 c-1 -1 -3 -16 -5 -32 -5 -45 -30 -62 -149 -100 -144 -47
-219 -60 -327 -54 -80 5 -88 4 -88 -12 0 -15 12 -20 66 -25 36 -4 85 -5 110
-1 39 5 44 3 44 -14 0 -18 7 -20 84 -20 92 0 267 32 303 55 36 24 58 64 44 78
-10 9 -17 6 -33 -16 -24 -33 -44 -42 -141 -62 -81 -17 -255 -21 -182 -4 86 20
253 81 273 100 35 31 43 97 15 107 -7 2 -14 2 -14 0z"/>
<path style="fill:#FFFFFF;" id="parte1" d="M9383 2134 c-3 -9 0 -19 6 -24 31 -18 -130 -96 -297 -143 -104 -30
-154 -53 -202 -93 -31 -27 -32 -30 -26 -81 6 -48 4 -56 -18 -77 -34 -34 -165
-73 -292 -86 -60 -6 -160 -20 -223 -31 -62 -10 -128 -19 -147 -19 -35 0 -53
-15 -36 -32 7 -7 34 -7 84 0 40 6 125 18 188 27 271 38 311 45 374 71 88 35
109 62 104 132 -5 50 -3 55 27 77 40 31 86 50 206 86 182 54 314 128 307 172
-4 26 -46 43 -55 21z"/>
<path style="fill:#FFFFFF;" id="parte1" d="M7790 1973 c-15 -20 -20 -35 -15 -53 4 -14 9 -41 12 -62 7 -50 -14
-62 -163 -92 -255 -53 -318 -67 -336 -77 -28 -15 -46 -49 -53 -101 -6 -42 -11
-48 -44 -61 -54 -22 -700 -164 -914 -202 -182 -31 -230 -47 -194 -61 35 -13
477 74 1044 206 112 26 143 50 143 108 0 69 16 79 195 117 296 63 307 66 337
96 31 30 34 52 16 112 -11 36 -10 41 10 57 12 10 22 23 22 29 0 21 -39 11 -60
-16z"/>
<path style="fill:#FFFFFF;" id="parte1" d="M4759 1765 c-19 -7 -55 -23 -79 -35 -37 -19 -52 -21 -99 -15 -94 13
-146 8 -211 -21 -75 -34 -130 -91 -130 -137 0 -30 -5 -34 -84 -75 -75 -38
-167 -115 -166 -139 0 -5 16 -29 35 -54 23 -32 52 -56 92 -75 56 -28 63 -29
210 -29 126 0 152 -2 150 -14 -6 -38 163 -38 313 0 93 23 124 38 140 69 16 30
-15 39 -38 11 -27 -33 -151 -62 -282 -67 l-115 -4 85 23 c47 12 112 36 145 52
l60 30 0 52 c-1 51 -1 51 35 57 98 16 207 62 285 121 39 30 53 36 79 31 35 -6
67 8 51 23 -6 5 -28 12 -50 15 -36 6 -45 3 -95 -35 -69 -53 -136 -84 -235
-109 l-78 -20 -41 44 c-32 35 -55 48 -110 65 -37 12 -77 21 -87 21 -10 0 -19
6 -19 13 1 17 88 107 106 107 7 0 43 14 78 30 148 70 233 63 321 -24 28 -28
58 -62 67 -76 12 -19 19 -22 28 -13 10 9 8 19 -9 46 -29 47 -104 115 -146 133
-42 17 -158 17 -206 -1z m-202 -88 c3 -4 -13 -27 -36 -52 -22 -24 -41 -48 -41
-53 0 -5 -37 -14 -82 -21 -46 -6 -93 -14 -105 -17 -18 -5 -23 -2 -23 14 0 43
76 106 160 133 27 9 117 6 127 -4z m35 -176 c37 -10 78 -26 92 -35 28 -18 60
-73 70 -123 7 -30 5 -33 -31 -51 -92 -47 -173 -64 -329 -69 -84 -3 -172 -3
-196 1 -54 8 -114 45 -145 89 l-23 31 32 33 c17 18 66 50 108 72 128 67 295
88 422 52z"/>
<path style="fill:#FFFFFF;" id="parte1" d="M9850 1623 c1 -10 7 -29 15 -43 8 -14 14 -45 15 -70 0 -66 -27 -92
-230 -228 -174 -117 -175 -118 -212 -187 -43 -83 -100 -137 -174 -164 -29 -11
-190 -55 -356 -97 -166 -42 -315 -82 -329 -90 -15 -7 -44 -34 -64 -58 -22 -27
-54 -52 -85 -65 -27 -12 -175 -48 -327 -81 -367 -80 -466 -104 -601 -146 -63
-20 -130 -38 -150 -41 -42 -7 -65 -21 -56 -35 9 -15 85 -1 204 38 121 39 297
81 631 153 322 69 332 73 400 144 66 68 44 60 434 158 154 39 303 81 332 94
72 32 134 93 171 167 27 55 41 70 109 116 43 29 124 84 180 123 56 38 114 85
129 104 37 49 42 108 14 173 -22 50 -50 70 -50 35z"/>
<path style="fill:#FFFFFF;" id="parte1" d="M5327 1574 c-3 -4 0 -21 8 -40 18 -43 14 -46 -115 -80 -120 -31 -194
-65 -211 -95 -16 -31 3 -46 27 -21 29 30 70 47 197 82 65 18 125 40 134 48 10
11 13 26 10 50 -8 47 -32 74 -50 56z"/>
<path style="fill:#FFFFFF;" id="parte1" d="M12075 1310 c-13 -26 -45 -164 -45 -197 0 -7 7 -13 15 -13 15 0 28
38 40 120 4 25 12 53 17 63 9 18 11 18 28 2 10 -9 21 -36 25 -58 10 -64 15
-77 31 -77 17 0 17 10 4 81 -7 40 -18 61 -40 82 -39 35 -56 34 -75 -3z"/>
<path style="fill:#FFFFFF;" id="parte1" d="M5104 1262 c-62 -79 -272 -140 -553 -162 -118 -9 -161 -21 -134 -38
21 -13 313 17 428 44 133 31 241 81 284 129 17 20 31 40 31 45 0 20 -36 8 -56
-18z"/>
<path style="fill:#FFFFFF;" id="parte1" d="M8301 1226 c-18 -14 -56 -30 -84 -36 -102 -23 -210 -62 -339 -121
-196 -91 -247 -108 -423 -140 -88 -17 -236 -48 -330 -69 -93 -22 -189 -42
-212 -46 -34 -5 -43 -11 -43 -26 0 -17 5 -19 33 -13 17 4 142 31 277 60 135
29 279 59 320 65 104 15 212 52 365 123 161 74 230 100 336 127 88 21 159 60
159 85 0 22 -22 18 -59 -9z"/>
<path style="fill:#FFFFFF;" id="parte1" d="M12097 1053 c-11 -10 -8 -151 2 -158 15 -9 21 9 28 89 5 63 3 76 -9
76 -8 0 -18 -3 -21 -7z"/>
<path style="fill:#FFFFFF;" id="parte1" d="M11958 1004 c-3 -3 -1 -19 6 -35 10 -27 7 -37 -22 -89 -17 -32 -32
-66 -32 -74 0 -9 -31 -30 -77 -53 -43 -20 -82 -39 -87 -41 -5 -3 5 21 23 53
17 32 31 69 31 82 0 24 -40 73 -60 73 -26 0 -99 -46 -147 -92 l-52 -51 -6 39
c-11 63 -66 175 -84 172 -22 -4 -107 -177 -122 -246 -7 -34 -9 -91 -6 -139 7
-98 4 -100 -80 -53 -29 17 -57 30 -62 30 -16 0 -34 -60 -28 -97 4 -20 20 -54
38 -75 17 -22 29 -40 28 -42 -2 -1 -49 -12 -103 -24 -128 -28 -160 -47 -164
-93 -2 -26 3 -40 19 -55 42 -38 258 -18 385 37 l42 17 9 -31 c5 -19 21 -39 40
-50 29 -17 35 -17 91 -3 32 9 85 27 116 41 31 14 62 25 69 25 7 0 25 -19 41
-41 24 -35 32 -40 55 -34 40 10 122 53 163 85 27 22 38 26 46 17 6 -7 23 -19
39 -29 27 -16 30 -15 86 13 70 34 77 35 119 9 37 -22 100 -26 116 -7 6 6 12
28 14 47 2 27 11 39 38 57 79 51 82 53 68 71 -30 36 -192 92 -269 92 l-31 0
33 41 32 41 -21 20 c-26 27 -104 34 -186 19 -33 -6 -61 -9 -64 -7 -2 3 5 18
17 34 30 43 27 75 -10 106 -17 14 -39 26 -50 26 -25 0 -25 1 16 74 39 70 42
91 19 124 -15 22 -26 27 -36 16z m-460 -219 c3 -55 0 -82 -17 -125 -25 -64
-26 -80 -7 -80 14 0 56 86 56 113 0 9 28 45 62 82 89 96 168 131 168 75 0 -37
-78 -177 -115 -207 -35 -28 -46 -53 -22 -53 17 0 58 29 80 57 10 13 23 23 28
23 6 0 47 18 92 39 112 54 129 56 164 27 l27 -24 -25 -33 c-15 -19 -29 -44
-33 -57 -4 -13 -32 -39 -62 -58 -53 -34 -63 -47 -44 -59 10 -6 113 55 124 74
4 6 26 11 49 11 23 0 62 5 85 11 44 10 112 3 112 -11 0 -18 -71 -94 -99 -106
-17 -7 -31 -20 -31 -29 0 -18 4 -18 55 0 22 8 65 14 96 15 59 0 170 -29 203
-53 19 -14 19 -15 -5 -27 -44 -23 -69 -54 -76 -93 -5 -35 -8 -38 -32 -32 -14
3 -43 17 -63 31 l-38 24 -69 -34 -69 -35 -26 24 c-14 13 -26 33 -26 45 0 28
-28 25 -40 -4 -5 -13 -24 -35 -42 -49 -34 -26 -131 -77 -145 -77 -4 0 -21 18
-36 40 -34 48 -47 49 -130 12 -76 -35 -153 -55 -178 -47 -25 8 -34 47 -20 86
6 18 11 38 11 45 0 22 -28 16 -35 -6 -14 -45 -176 -99 -320 -107 -82 -5 -103
-3 -113 9 -17 21 -6 44 26 57 15 6 78 22 140 36 82 19 118 23 132 15 26 -14
50 -12 50 4 0 7 -15 20 -32 27 -18 7 -52 33 -75 56 -34 34 -43 50 -43 78 0 41
4 42 48 15 32 -20 130 -45 139 -36 2 2 -3 39 -12 83 -12 61 -14 93 -6 139 11
67 41 153 72 204 l21 34 21 -39 c12 -25 22 -67 25 -110z"/>
<path style="fill:#FFFFFF;" id="parte1" d="M3055 879 c-92 -12 -559 -90 -564 -94 -2 -2 -1 -11 3 -20 4 -10 13
-14 28 -10 13 3 129 23 258 44 275 46 454 64 600 59 93 -3 105 -1 108 15 3 16
-10 17 -180 16 -101 -1 -214 -5 -253 -10z"/>
<path style="fill:#FFFFFF;" id="parte1" d="M5465 819 c-237 -48 -335 -59 -628 -69 -450 -16 -559 -32 -662 -101
-90 -60 -126 -67 -420 -73 -249 -6 -418 -17 -755 -52 -95 -10 -201 -14 -272
-12 -90 4 -118 2 -118 -7 0 -36 144 -42 405 -16 116 11 262 25 325 31 63 7
248 15 410 19 328 9 348 12 453 85 85 59 231 79 662 91 237 6 378 22 610 68
129 26 160 35 163 50 4 22 0 21 -173 -14z"/>
<path style="fill:#FFFFFF;" id="parte1" d="M9221 709 c-20 -45 -51 -208 -51 -265 0 -42 -5 -60 -17 -71 -40 -31
-137 -73 -283 -123 -85 -29 -249 -88 -364 -131 -125 -47 -224 -79 -246 -79
-42 0 -74 -25 -46 -36 34 -13 113 8 292 76 100 38 262 97 359 130 97 33 204
74 237 91 91 46 152 109 198 203 l40 81 0 -45 c0 -59 9 -90 26 -90 10 0 13 21
12 88 -1 62 4 99 17 130 13 31 15 46 7 54 -8 8 -17 1 -31 -23 -12 -19 -21 -41
-21 -50 0 -8 -13 -25 -30 -37 -16 -13 -30 -28 -30 -36 0 -20 -58 -132 -77
-147 -15 -13 -15 -9 -9 36 4 28 16 94 28 148 16 72 19 100 10 109 -8 8 -14 5
-21 -13z"/>
<path style="fill:#FFFFFF;" id="parte1" d="M9527 703 c-3 -5 -12 -35 -22 -68 -20 -72 -52 -129 -94 -169 -17 -17
-31 -35 -31 -40 -1 -18 -92 -56 -133 -56 -31 0 -38 -3 -35 -17 8 -42 153 -8
166 39 2 10 10 18 17 18 18 0 90 81 113 127 24 46 51 143 45 161 -5 13 -19 16
-26 5z"/>
<path style="fill:#FFFFFF;" id="parte1" d="M6585 395 c-44 -13 -104 -27 -132 -31 -67 -8 -75 -34 -10 -34 54 0
290 63 295 78 6 19 -65 13 -153 -13z"/>
<path style="fill:#FFFFFF;" id="parte1" d="M5625 405 c-5 -1 -42 -8 -82 -15 -44 -7 -81 -19 -95 -32 -19 -17 -24
-17 -26 -4 -8 37 -249 40 -377 5 -70 -20 -104 -23 -280 -23 -184 -1 -204 -3
-255 -23 -31 -13 -77 -23 -105 -23 -27 0 -90 -7 -140 -15 -49 -8 -118 -15
-152 -15 -51 0 -63 -3 -63 -16 0 -15 13 -16 123 -9 199 12 381 11 562 -4 113
-9 240 -12 380 -8 l209 6 26 29 c41 49 56 52 248 52 200 0 287 12 303 43 15
27 2 36 -67 47 -55 9 -186 12 -209 5z m198 -46 c-12 -12 -323 -27 -312 -15 13
14 98 24 209 25 83 1 111 -2 103 -10z m-475 -15 l30 -6 -40 -40 -40 -40 -337
5 c-185 3 -354 10 -376 14 l-40 9 30 7 c79 17 135 18 234 7 105 -13 110 -13
202 13 52 14 108 28 124 30 51 7 181 7 213 1z"/>
</g>
</svg>
