<?xml version="1.0" standalone="no"?>
<!DOCTYPE svg PUBLIC "-//W3C//DTD SVG 20010904//EN"
 "http://www.w3.org/TR/2001/REC-SVG-20010904/DTD/svg10.dtd">
<svg version="1.0" xmlns="http://www.w3.org/2000/svg"
 width="1280.000000pt" height="976.000000pt" viewBox="0 0 1280.000000 976.000000"
 preserveAspectRatio="xMidYMid meet">
<metadata>
Created by potrace 1.15, written by Peter Selinger 2001-2017
</metadata>
<g transform="translate(0.000000,976.000000) scale(0.100000,-0.100000)"
fill="#000000" stroke="none">
<g id="Background">
	<rect id="parte19" style="fill:#F0F0F1;" width="500" height="500"/>
</g>
<g id="Graphic_Elements">
<path id="parte1" d="M1680 9701 c-52 -32 -156 -97 -230 -144 -74 -48 -166 -103 -205 -123
l-70 -36 -110 61 c-60 34 -127 75 -147 91 -41 33 -61 36 -98 15 -14 -8 -50
-14 -80 -15 -68 0 -133 -30 -292 -131 -62 -39 -155 -94 -205 -121 l-93 -50
-62 41 c-65 43 -91 51 -82 27 8 -20 75 -65 114 -76 68 -20 135 11 382 178
l157 105 76 -2 c103 -3 169 -22 305 -86 64 -30 129 -55 146 -55 37 0 193 92
414 241 168 114 185 127 179 133 -2 3 -47 -21 -99 -53z"/>
<path id="parte1" d="M2035 9750 c-16 -7 -11 -9 20 -9 29 -1 36 2 25 9 -17 11 -19 11 -45
0z"/>
<path id="parte1" d="M2240 9752 c0 -1 21 -12 46 -22 56 -25 95 -25 137 -3 31 17 32 18 7
20 -47 4 -190 8 -190 5z"/>
<path id="parte1" d="M2570 9752 c0 -17 106 -110 178 -156 l71 -45 87 29 c104 35 115 36
139 10 34 -37 165 -121 282 -180 l120 -60 154 40 c85 22 164 40 176 40 42 0
118 31 324 132 l206 100 156 -63 156 -62 93 40 c121 54 158 63 246 63 77 0
101 8 143 46 l25 24 55 -19 c90 -31 218 -89 324 -146 132 -71 256 -121 356
-145 l83 -19 52 40 c81 62 120 79 187 79 48 0 70 6 120 34 79 44 138 53 209
32 29 -9 64 -25 76 -36 23 -19 24 -24 23 -167 -2 -214 -20 -568 -32 -643 -12
-67 -39 -124 -64 -134 -34 -13 -39 30 -36 324 1 179 -2 296 -8 313 -23 59
-101 13 -101 -59 0 -19 -2 -34 -5 -34 -3 0 -18 11 -33 25 -38 36 -64 29 -78
-20 -16 -51 -17 -237 -3 -462 l11 -178 64 -67 c89 -92 118 -157 122 -273 1
-49 -1 -95 -5 -102 -7 -9 -31 -7 -103 7 -112 21 -456 112 -465 122 -2 2 -17
59 -34 127 -70 285 -149 321 -150 69 -1 -84 -4 -101 -21 -118 -22 -22 -16 -22
-150 10 -124 30 -188 40 -340 50 -202 14 -251 22 -530 90 -135 32 -324 75
-420 95 -96 20 -274 58 -395 85 -121 27 -268 59 -326 70 -59 11 -201 49 -315
84 -371 113 -451 125 -879 133 l-320 5 -290 -116 -290 -116 -110 0 c-132 0
-206 12 -278 45 -100 47 -179 34 -485 -79 -187 -69 -314 -104 -407 -112 -79
-7 -135 -21 -135 -35 0 -15 73 -10 214 16 151 28 294 73 529 165 l158 62 77
-31 c252 -101 410 -81 902 112 l165 64 105 -4 c614 -22 794 -44 975 -118 105
-43 259 -81 750 -181 121 -25 366 -81 545 -124 358 -87 478 -111 686 -135 191
-21 307 -41 457 -77 l128 -30 -3 -37 c-2 -30 -9 -38 -36 -50 -43 -19 -46 -36
-39 -197 l5 -134 -28 0 c-19 0 -33 -7 -40 -19 -16 -30 -12 -107 6 -125 23 -24
34 -73 34 -156 l0 -76 -107 -22 c-60 -12 -191 -35 -293 -52 -207 -33 -286 -53
-442 -111 -113 -41 -327 -100 -438 -120 -36 -6 -141 -12 -235 -13 -170 -2
-170 -2 -375 -55 -230 -59 -450 -121 -526 -149 -171 -64 -35 -51 185 17 361
112 605 161 806 161 150 0 321 36 598 126 201 65 252 78 422 104 72 12 238 45
370 75 276 62 406 81 595 90 234 10 452 44 901 140 316 67 371 78 559 105 174
26 350 62 815 170 543 125 661 150 786 160 132 11 158 15 724 104 673 107 683
108 1010 111 218 2 324 7 425 22 l135 19 315 -58 c919 -166 1013 -181 960
-148 -29 18 -153 43 -574 115 -237 41 -476 83 -531 92 -88 16 -133 18 -365 11
-559 -15 -764 -32 -1175 -98 -132 -21 -357 -54 -500 -74 -143 -20 -339 -48
-436 -61 -96 -14 -247 -41 -335 -60 -87 -20 -217 -47 -289 -61 -150 -29 -248
-52 -429 -101 -128 -34 -129 -34 -240 -23 -204 19 -360 41 -536 75 -96 18
-229 41 -295 49 -203 27 -265 47 -265 83 0 9 18 39 39 67 22 28 42 63 46 78 6
23 3 28 -19 34 -43 10 -23 34 73 86 43 24 65 78 58 144 -12 119 -62 147 -107
62 -47 -89 -78 -50 -72 89 2 27 8 36 39 50 72 34 114 162 132 398 10 135 6
145 -56 145 -29 0 -36 -5 -47 -32 -8 -18 -17 -73 -21 -123 -8 -104 -21 -165
-37 -165 -14 0 -5 474 10 513 14 34 34 34 107 1 81 -37 135 -35 286 12 103 31
138 38 209 38 102 0 148 -19 291 -115 117 -79 349 -219 363 -219 6 0 27 -16
47 -36 l37 -36 45 35 c66 50 153 89 218 96 41 5 76 19 129 51 106 64 134 62
326 -25 165 -75 217 -95 245 -95 28 0 23 15 -8 29 l-28 13 47 44 c66 62 92 60
244 -15 129 -63 164 -77 164 -64 -1 14 -73 60 -193 123 l-116 61 -109 -55
c-60 -31 -113 -56 -118 -56 -5 0 -76 36 -158 80 l-149 79 -79 -34 c-43 -18
-92 -45 -109 -59 -29 -24 -41 -28 -139 -41 -25 -3 -67 -17 -95 -32 -43 -22
-58 -25 -117 -21 -56 4 -86 14 -170 57 -57 28 -155 88 -218 132 -136 97 -226
142 -314 159 -61 11 -67 11 -172 -23 -161 -52 -189 -58 -259 -58 -70 0 -90 7
-151 57 l-41 33 -6 98 c-8 133 -28 183 -76 183 -22 0 -72 -55 -102 -111 -18
-33 -40 -64 -49 -69 -12 -6 -52 2 -130 25 -62 19 -117 35 -121 35 -5 0 -41
-21 -80 -47 -66 -44 -74 -46 -131 -45 -69 2 -97 -10 -178 -79 l-49 -41 -73 12
c-93 16 -182 49 -278 104 -162 93 -303 154 -408 175 -77 16 -95 14 -138 -16
-34 -24 -49 -27 -124 -29 -76 -1 -96 -6 -183 -43 -53 -22 -113 -41 -132 -41
-35 0 -158 46 -255 95 l-48 24 -104 -56 c-198 -108 -301 -153 -423 -184 -257
-67 -273 -69 -386 -40 -96 25 -187 76 -290 164 l-82 70 -46 -17 c-25 -10 -71
-27 -101 -39 l-55 -20 -93 69 c-106 80 -152 109 -152 96z m4215 -427 c-8 -215
-15 -425 -15 -467 0 -76 1 -78 25 -78 13 0 47 9 75 20 l50 20 0 -26 c0 -29
-22 -75 -45 -94 -9 -8 -35 -16 -58 -19 l-42 -6 0 -125 0 -125 47 -25 47 -25
42 40 42 40 -6 -54 c-8 -65 -17 -76 -85 -109 -33 -15 -63 -39 -78 -61 l-25
-36 23 -15 c69 -47 69 -42 2 -112 l-62 -63 -4 -210 c-3 -126 -9 -218 -16 -231
-8 -16 -28 -23 -90 -32 -43 -7 -86 -10 -95 -6 -34 13 -39 98 -28 451 l10 337
-73 76 c-95 99 -114 147 -126 319 -5 69 -10 183 -10 254 l0 127 71 0 71 0 -7
-252 -7 -253 34 -20 c49 -29 70 -33 99 -19 64 32 87 145 99 484 13 379 45 561
112 648 17 23 33 40 34 39 2 -2 -3 -178 -11 -392z m165 -339 c0 -74 -9 -126
-21 -126 -10 0 -12 72 -3 147 9 71 24 57 24 -21z m-1170 -626 c17 -63 23 -119
25 -215 3 -181 27 -218 96 -145 22 23 39 34 39 27 0 -14 -63 -77 -107 -108
-21 -15 -23 -26 -33 -215 -16 -283 -10 -261 -76 -270 -37 -4 -59 -3 -67 5 -6
6 -14 45 -18 87 -4 55 -12 83 -28 105 -29 40 -21 59 24 59 l36 0 -6 88 c-3 48
-8 120 -11 161 l-5 73 28 -6 c15 -4 36 -9 46 -12 16 -5 17 11 17 238 0 147 4
237 9 228 5 -9 19 -54 31 -100z m120 -256 c0 -20 -38 -74 -51 -74 -12 0 -2 36
19 68 17 26 32 29 32 6z m264 -58 c21 -9 77 -19 125 -22 94 -7 151 -25 151
-48 0 -8 -8 -28 -17 -44 -15 -27 -16 -38 -5 -101 19 -112 13 -304 -11 -327 -4
-4 -225 -16 -479 -27 l-88 -3 0 186 0 186 46 44 c66 64 104 126 104 171 l0 37
68 -18 c37 -9 84 -25 106 -34z m706 -116 c30 -6 127 -22 215 -35 149 -24 513
-90 633 -115 28 -7 52 -15 52 -20 0 -8 -12 -11 -245 -45 -231 -35 -411 -69
-588 -111 -82 -20 -150 -34 -153 -31 -11 11 -25 206 -20 267 9 91 15 112 35
105 9 -2 41 -9 71 -15z"/>
<path id="parte1" d="M11611 9539 c-32 -19 -37 -20 -73 -6 -44 18 -56 8 -32 -28 20 -30 44
-45 74 -45 20 0 110 74 110 91 0 16 -44 9 -79 -12z"/>
<path id="parte1" d="M8044 9436 c-7 -19 31 -66 54 -66 8 0 30 10 49 21 29 18 32 24 21 35
-7 7 -37 16 -65 20 -44 5 -54 4 -59 -10z"/>
<path id="parte1" d="M10235 9363 c-16 -9 -55 -35 -85 -58 -30 -23 -59 -44 -65 -47 -5 -3
-41 0 -80 7 -38 8 -71 12 -73 10 -2 -2 29 -20 68 -40 l73 -37 31 24 c90 67
160 108 185 108 15 0 45 -13 67 -29 21 -15 66 -39 99 -52 53 -20 77 -23 200
-23 137 0 142 1 215 33 41 18 86 35 100 38 30 5 321 -77 397 -112 80 -36 80
-61 1 -111 -47 -30 -229 -112 -288 -130 -57 -17 -200 -17 -305 0 l-80 14 -137
-71 c-134 -68 -209 -119 -197 -131 5 -6 159 69 301 147 l57 31 88 -22 c134
-33 147 -34 208 -23 75 14 185 62 505 220 299 148 354 169 409 152 20 -6 110
-51 201 -101 217 -118 315 -156 291 -112 -8 15 -3 26 27 54 64 61 198 130 293
151 57 13 75 39 30 45 -32 5 -87 -17 -291 -115 l-176 -84 -144 86 c-141 83
-216 115 -270 115 -42 0 -83 -16 -241 -92 l-145 -70 -80 54 c-91 62 -197 101
-324 118 -127 18 -213 6 -310 -40 l-80 -39 -102 29 c-139 39 -206 63 -264 94
-56 30 -68 31 -109 9z"/>
<path id="parte1" d="M8177 9298 c24 -42 53 -46 108 -14 69 41 65 46 -35 46 l-92 0 19 -32z"/>
<path id="parte1" d="M9835 9239 c-82 -44 -216 -150 -197 -157 13 -4 188 97 229 132 41 36
20 52 -32 25z"/>
<path id="parte1" d="M12480 8990 c0 -5 9 -10 21 -10 11 0 17 5 14 10 -3 6 -13 10 -21 10
-8 0 -14 -4 -14 -10z"/>
<path id="parte1" d="M9710 8924 c-30 -19 -96 -57 -147 -85 l-92 -50 -65 41 c-37 22 -71
40 -76 40 -5 0 -69 -34 -142 -75 -73 -42 -182 -99 -242 -128 -198 -94 -250
-122 -260 -139 -18 -29 1 -31 46 -5 24 13 72 37 108 52 93 39 268 128 387 196
l103 60 73 -41 c41 -22 79 -40 86 -40 7 0 76 39 153 86 l140 86 51 -27 c29
-16 119 -67 201 -114 l148 -86 -53 -23 c-32 -14 -48 -27 -43 -32 14 -14 85 8
115 36 14 13 32 24 40 24 16 0 39 19 39 32 0 4 -12 8 -27 8 -34 0 -177 64
-341 153 -68 37 -129 67 -135 67 -7 0 -37 -16 -67 -36z"/>
<path id="parte1" d="M8450 8870 c-12 -8 -12 -10 3 -16 21 -8 35 2 21 16 -5 5 -15 6 -24 0z"/>
<path id="parte1" d="M8592 8753 c3 -19 48 -32 48 -14 0 10 -31 31 -45 31 -4 0 -5 -8 -3
-17z"/>
<path id="parte1" d="M8720 8650 c0 -13 7 -20 20 -20 23 0 26 10 8 28 -18 18 -28 15 -28
-8z"/>
<path id="parte1" d="M3227 8293 c-10 -9 -8 -43 2 -43 5 0 14 7 21 15 17 21 -4 48 -23 28z"/>
<path id="parte1" d="M3360 8251 c-7 -13 -7 -22 0 -26 15 -9 30 4 30 26 0 25 -16 25 -30 0z"/>
<path id="parte1" d="M3077 8234 c-11 -11 -8 -52 4 -60 6 -3 17 0 25 8 13 13 13 17 -3 37
-10 12 -22 19 -26 15z"/>
<path id="parte1" d="M3201 8193 c-44 -22 -79 -78 -87 -138 -7 -58 -24 -75 -75 -75 -70 0
-99 -12 -165 -71 -83 -73 -117 -78 -171 -24 -19 19 -36 35 -36 35 -1 0 -2 -17
-2 -37 0 -35 -2 -38 -32 -41 -28 -3 -31 -5 -21 -21 9 -15 5 -32 -20 -85 l-32
-68 41 -60 c22 -33 39 -60 37 -61 -52 -30 -130 -93 -172 -138 -89 -95 -116
-207 -81 -325 19 -65 41 -175 50 -248 l7 -59 -42 33 c-41 32 -43 33 -56 15
-37 -50 -3 -75 103 -75 l66 0 -6 28 c-3 15 -9 36 -13 47 -4 11 10 1 32 -23 50
-56 96 -64 172 -32 51 22 66 23 163 8 9 -2 45 29 84 72 144 159 195 251 195
354 l0 53 86 7 c100 7 131 19 202 76 l54 42 -4 83 c-5 121 -40 163 -164 194
l-69 17 -6 70 c-3 38 -13 83 -22 101 -9 18 -17 34 -17 37 0 2 17 10 38 16 62
20 119 58 141 94 31 49 28 116 -5 156 -50 59 -109 74 -173 43z m123 -55 c14
-13 32 -40 40 -60 l14 -37 -43 -40 c-52 -47 -84 -58 -126 -41 -37 16 -55 42
-64 92 -7 34 -4 41 28 73 30 30 42 35 80 35 34 0 53 -6 71 -22z m-209 -230
c100 -87 108 -224 15 -270 -113 -57 -260 24 -260 142 0 129 154 209 245 128z
m-309 -129 c29 -27 37 -73 20 -113 -13 -32 -81 -96 -101 -96 -5 0 -36 21 -67
46 l-57 47 24 46 c23 46 57 83 85 94 25 10 73 -2 96 -24z m141 -170 c32 -12
66 -28 76 -37 19 -17 24 -87 6 -98 -17 -10 -179 77 -179 95 0 32 13 61 26 61
7 0 39 -10 71 -21z m423 -9 c68 -35 89 -113 51 -195 -32 -70 -93 -105 -181
-105 -91 0 -150 48 -158 129 -2 28 -2 61 2 75 9 35 54 86 91 102 47 21 149 18
195 -6z m-531 -85 c134 -43 217 -126 242 -243 26 -122 -22 -250 -137 -371
l-72 -74 -30 22 c-39 27 -44 27 -108 -9 -58 -34 -69 -29 -58 25 12 67 -49 56
-81 -14 -10 -23 -21 -41 -24 -41 -3 1 -21 21 -39 46 -183 249 -133 525 118
647 41 20 83 37 92 37 9 0 53 -11 97 -25z"/>
<path id="parte1" d="M3220 7390 c0 -11 5 -20 10 -20 6 0 10 9 10 20 0 11 -4 20 -10 20 -5
0 -10 -9 -10 -20z"/>
<path id="parte1" d="M2850 7380 c0 -5 9 -10 21 -10 11 0 17 5 14 10 -3 6 -13 10 -21 10
-8 0 -14 -4 -14 -10z"/>
<path id="parte1" d="M2850 7200 c0 -5 7 -10 15 -10 8 0 15 5 15 10 0 6 -7 10 -15 10 -8 0
-15 -4 -15 -10z"/>
<path id="parte1" d="M2720 6950 c0 -5 9 -10 21 -10 11 0 17 5 14 10 -3 6 -13 10 -21 10
-8 0 -14 -4 -14 -10z"/>
<path id="parte1" d="M3455 8160 c-3 -5 3 -10 14 -10 12 0 21 5 21 10 0 6 -6 10 -14 10 -8
0 -18 -4 -21 -10z"/>
<path id="parte1" d="M2990 8045 c0 -8 5 -15 10 -15 6 0 10 7 10 15 0 8 -4 15 -10 15 -5 0
-10 -7 -10 -15z"/>
<path id="parte1" d="M1610 8030 c0 -5 9 -10 20 -10 11 0 20 5 20 10 0 6 -9 10 -20 10 -11
0 -20 -4 -20 -10z"/>
<path id="parte1" d="M2920 8020 c0 -19 3 -21 12 -12 9 9 9 15 0 24 -9 9 -12 7 -12 -12z"/>
<path id="parte1" d="M3450 8020 c0 -13 7 -20 20 -20 23 0 26 10 8 28 -18 18 -28 15 -28
-8z"/>
<path id="parte1" d="M1730 7995 c0 -8 5 -15 10 -15 6 0 10 7 10 15 0 8 -4 15 -10 15 -5 0
-10 -7 -10 -15z"/>
<path id="parte1" d="M2821 7970 c0 -37 2 -41 9 -22 6 13 6 31 0 45 -7 18 -9 14 -9 -23z"/>
<path id="parte1" d="M1600 7916 c-30 -24 -68 -65 -85 -91 -40 -64 -148 -135 -207 -135
-18 0 -18 -1 2 -28 26 -35 18 -61 -21 -69 l-29 -5 20 -25 c11 -14 27 -52 36
-85 12 -41 35 -84 71 -131 29 -39 53 -76 53 -84 0 -7 18 -24 39 -37 51 -33 92
-77 142 -153 l40 -61 -17 -68 c-20 -81 -37 -123 -71 -177 l-25 -40 -85 7 c-46
3 -99 12 -117 20 -93 39 -152 137 -144 241 3 33 15 79 26 101 22 44 86 106
145 143 40 25 48 36 18 26 -27 -8 -83 17 -108 49 -28 35 -34 33 -22 -6 5 -18
9 -45 9 -60 0 -36 -28 -37 -60 -3 -29 31 -38 32 -33 1 3 -13 16 -29 29 -35 21
-9 23 -14 14 -31 -6 -12 -27 -28 -46 -37 -32 -16 -45 -33 -24 -33 25 0 8 -53
-30 -94 -22 -24 -40 -50 -40 -59 0 -15 3 -15 28 0 43 24 59 12 67 -49 4 -29
16 -68 27 -86 27 -44 14 -77 -34 -87 l-33 -8 25 -10 c30 -11 456 -23 496 -13
l28 7 -30 24 c-23 19 -27 26 -16 36 10 11 26 10 86 -5 89 -23 133 -16 181 25
27 24 36 42 45 87 6 31 14 71 19 89 8 29 6 33 -21 44 -42 17 -106 95 -114 138
-3 20 -15 51 -25 69 -24 42 -24 56 3 92 15 21 19 33 11 41 -7 7 -21 -4 -47
-36 -33 -40 -76 -61 -76 -36 0 8 29 54 70 108 l20 28 -25 80 c-14 44 -25 83
-25 88 0 4 12 7 26 7 70 0 124 57 127 135 2 53 -24 94 -73 110 -41 14 -43 20
-31 74 5 22 5 41 1 41 -5 0 -10 -5 -12 -10 -2 -7 -19 -5 -47 5 -62 22 -70 20
-131 -29z m104 1 c21 -16 18 -45 -6 -61 -33 -20 -69 20 -54 60 7 18 36 18 60
1z m-124 -91 c0 -18 -26 -40 -34 -27 -9 14 4 41 20 41 8 0 14 -6 14 -14z m80
-50 c-18 -34 -40 -41 -40 -14 0 28 30 62 44 48 6 -6 5 -18 -4 -34z m167 19
c60 -42 9 -189 -60 -171 -86 21 -105 129 -29 170 35 19 62 20 89 1z m-229 -84
c41 -29 90 -105 109 -170 39 -135 -21 -243 -135 -243 -94 1 -175 65 -208 165
-27 81 3 175 76 241 39 35 47 38 85 33 24 -2 57 -14 73 -26z m40 -511 c-2 -50
11 -78 31 -66 6 4 11 24 11 45 0 44 16 62 45 51 54 -21 60 -84 10 -110 -40
-20 -44 -27 -35 -67 6 -23 5 -33 -3 -30 -17 5 -129 198 -123 212 5 13 44 25
58 17 5 -2 7 -25 6 -52z m228 -158 c33 -26 54 -76 54 -129 0 -83 -49 -123
-151 -123 -58 0 -89 19 -89 55 0 84 85 215 138 215 15 0 37 -8 48 -18z"/>
<path id="parte1" d="M3397 7926 c-3 -8 -2 -18 3 -21 13 -8 24 15 12 27 -6 6 -11 4 -15 -6z"/>
<path id="parte1" d="M3310 7875 c-20 -24 1 -38 28 -19 12 8 22 19 22 25 0 15 -36 10 -50
-6z"/>
<path id="parte1" d="M1410 7832 c0 -10 22 -32 32 -32 4 0 8 9 8 20 0 13 -7 20 -20 20 -11
0 -20 -4 -20 -8z"/>
<path id="parte1" d="M1335 7780 c-3 -5 3 -10 14 -10 12 0 21 5 21 10 0 6 -6 10 -14 10 -8
0 -18 -4 -21 -10z"/>
<path id="parte1" d="M3366 7724 c-23 -22 -9 -39 17 -21 11 7 23 19 25 25 5 17 -24 15 -42
-4z"/>
<path id="parte1" d="M3480 7632 c0 -5 9 -17 20 -27 27 -24 50 -6 25 19 -17 17 -45 22 -45
8z"/>
<path id="parte1" d="M2420 7532 c0 -5 14 -21 30 -37 27 -26 30 -27 30 -8 0 11 -8 27 -18
36 -20 18 -42 22 -42 9z"/>
<path id="parte1" d="M12060 7521 c-7 -13 -7 -22 0 -26 15 -9 30 4 30 26 0 25 -16 25 -30
0z"/>
<path id="parte1" d="M11910 7496 c-8 -11 -9 -20 0 -36 14 -25 30 -17 30 15 0 30 -14 39
-30 21z"/>
<path id="parte1" d="M3530 7481 c0 -11 28 -41 39 -41 18 0 20 15 4 32 -17 19 -43 24 -43
9z"/>
<path id="parte1" d="M12140 7480 c-11 -7 -7 -10 18 -10 20 0 31 4 27 10 -8 13 -26 13 -45
0z"/>
<path id="parte1" d="M1262 7458 c-16 -16 -15 -38 2 -38 17 0 30 30 18 42 -4 4 -13 3 -20
-4z"/>
<path id="parte1" d="M11970 7412 c-40 -20 -80 -74 -80 -109 0 -33 -38 -47 -191 -73 l-124
-20 -83 -88 c-111 -118 -190 -222 -255 -339 l-54 -98 -6 -160 -5 -160 48 -54
48 -54 -51 -61 c-108 -130 -154 -278 -144 -460 4 -61 9 -120 13 -132 5 -19 -2
-21 -108 -37 -196 -29 -504 -111 -538 -143 -25 -24 26 -17 165 21 272 74 495
102 680 85 231 -21 546 -40 970 -60 241 -12 459 -25 483 -31 49 -11 69 -4 52
16 -22 26 -247 54 -439 55 -82 0 -83 0 -77 23 14 46 34 185 41 277 9 132 6
126 72 133 71 7 133 45 190 114 23 30 49 75 57 104 19 64 32 79 63 79 30 0 28
33 -2 38 -29 5 -45 31 -45 71 0 47 -22 126 -48 178 -12 23 -22 46 -22 51 0 5
18 21 40 36 22 14 40 31 40 36 0 19 -35 10 -80 -21 -41 -27 -50 -30 -119 -27
l-75 3 -14 48 c-15 54 -47 77 -107 77 -77 0 -144 -53 -165 -130 -13 -47 5 -98
48 -143 23 -24 27 -36 25 -79 0 -27 -6 -55 -12 -61 -7 -7 -48 9 -133 53 -68
34 -124 64 -126 65 -2 2 21 43 51 93 55 92 88 165 107 239 6 24 22 51 37 62
14 12 21 21 15 21 -17 0 -40 72 -53 163 l-12 85 36 32 c78 68 101 140 69 214
-35 78 -108 106 -182 68z m107 -54 c45 -42 48 -124 7 -169 -22 -24 -51 -24
-91 1 -56 34 -67 136 -21 182 25 25 71 18 105 -14z m-125 -200 c56 -96 72
-164 65 -278 -8 -151 -65 -294 -168 -424 -22 -27 -39 -52 -39 -57 0 -4 25 -5
55 -2 46 5 63 1 109 -21 79 -39 164 -135 220 -249 63 -129 80 -199 80 -332 0
-99 -3 -118 -30 -185 -34 -87 -19 -81 -243 -100 -146 -12 -210 -9 -401 20 -69
11 -199 26 -289 35 -102 9 -168 20 -172 27 -11 18 -24 153 -21 228 5 159 76
312 173 377 29 19 59 28 107 33 47 4 61 9 47 14 -11 4 -44 17 -73 28 -164 63
-198 278 -84 522 69 147 158 255 270 330 80 53 143 75 237 86 127 13 117 17
157 -52z m366 -484 c27 -18 30 -69 6 -102 -26 -37 -95 -82 -125 -82 -68 0 -67
134 1 187 21 17 91 16 118 -3z m188 -130 c95 -45 136 -272 75 -410 -37 -84
-132 -164 -194 -164 -75 0 -164 193 -155 331 13 176 154 300 274 243z"/>
<path id="parte1" d="M11856 7083 c-11 -11 -6 -23 8 -23 8 0 17 4 20 9 7 10 -19 23 -28 14z"/>
<path id="parte1" d="M12207 7383 c-9 -9 22 -43 40 -43 20 0 16 28 -6 40 -23 12 -26 12
-34 3z"/>
<path id="parte1" d="M11800 7350 c0 -5 7 -10 15 -10 8 0 15 5 15 10 0 6 -7 10 -15 10 -8
0 -15 -4 -15 -10z"/>
<path id="parte1" d="M2310 7290 c0 -11 5 -20 10 -20 6 0 10 9 10 20 0 11 -4 20 -10 20 -5
0 -10 -9 -10 -20z"/>
<path id="parte1" d="M11620 7290 c0 -13 7 -20 20 -20 11 0 20 4 20 10 0 5 -9 14 -20 20
-17 9 -20 8 -20 -10z"/>
<path id="parte1" d="M11720 7290 c0 -19 3 -21 12 -12 9 9 9 15 0 24 -9 9 -12 7 -12 -12z"/>
<path id="parte1" d="M3500 7278 c0 -16 5 -28 10 -28 13 0 13 20 0 40 -8 12 -10 9 -10 -12z"/>
<path id="parte1" d="M11514 7249 c-8 -14 21 -43 35 -35 17 11 13 24 -8 36 -14 7 -22 7
-27 -1z"/>
<path id="parte1" d="M12202 7188 c2 -13 9 -23 17 -23 23 0 24 23 1 35 -19 10 -21 9 -18
-12z"/>
<path id="parte1" d="M1865 7181 c-7 -12 12 -24 25 -16 11 7 4 25 -10 25 -5 0 -11 -4 -15
-9z"/>
<path id="parte1" d="M11410 7166 c0 -8 4 -17 9 -20 10 -7 23 19 14 28 -11 11 -23 6 -23
-8z"/>
<path id="parte1" d="M2287 7122 c-21 -23 -21 -32 -3 -32 19 0 48 29 41 41 -9 14 -20 11
-38 -9z"/>
<path id="parte1" d="M2282 6998 c-18 -18 -15 -40 6 -36 9 2 18 13 20 26 4 24 -7 29 -26
10z"/>
<path id="parte1" d="M12106 6983 c-11 -11 -6 -23 8 -23 8 0 17 4 20 9 7 10 -19 23 -28 14z"/>
<path id="parte1" d="M11220 6920 c0 -5 6 -10 14 -10 8 0 18 5 21 10 3 6 -3 10 -14 10 -12
0 -21 -4 -21 -10z"/>
<path id="parte1" d="M1092 6838 c-7 -7 -12 -20 -12 -30 0 -16 3 -17 20 -8 11 6 20 20 20
30 0 23 -10 26 -28 8z"/>
<path id="parte1" d="M11158 6832 c-24 -5 -23 -32 0 -32 10 0 26 6 37 13 17 13 17 14 -1
18 -10 3 -27 3 -36 1z"/>
<path id="parte1" d="M12257 6824 c-11 -11 -9 -64 3 -64 18 0 30 36 17 54 -7 9 -16 14 -20
10z"/>
<path id="parte1" d="M12324 6795 c-4 -9 -2 -21 4 -27 15 -15 44 -1 40 19 -4 23 -36 29
-44 8z"/>
<path id="parte1" d="M12150 6760 c0 -19 3 -21 12 -12 9 9 9 15 0 24 -9 9 -12 7 -12 -12z"/>
<path id="parte1" d="M12435 6750 c-3 -5 3 -10 15 -10 12 0 18 5 15 10 -3 6 -10 10 -15 10
-5 0 -12 -4 -15 -10z"/>
<path id="parte1" d="M1070 6715 c-7 -9 -10 -18 -7 -21 10 -11 37 5 37 21 0 19 -14 19 -30
0z"/>
<path id="parte1" d="M12476 6694 c-3 -9 -3 -20 0 -25 8 -13 34 9 34 27 0 19 -26 18 -34
-2z"/>
<path id="parte1" d="M925 6690 c-4 -6 -3 -16 3 -22 6 -6 12 -6 17 2 4 6 3 16 -3 22 -6 6
-12 6 -17 -2z"/>
<path id="parte1" d="M11090 6660 c0 -23 10 -26 28 -8 18 18 15 28 -8 28 -13 0 -20 -7 -20
-20z"/>
<path id="parte1" d="M12661 6551 c-17 -11 -7 -41 12 -41 19 0 40 26 32 40 -8 12 -25 13
-44 1z"/>
<path id="parte1" d="M11042 6477 c-22 -23 -29 -47 -14 -47 18 0 52 33 52 51 0 25 -12 24
-38 -4z"/>
<path id="parte1" d="M12680 6420 c0 -5 9 -10 21 -10 11 0 17 5 14 10 -3 6 -13 10 -21 10
-8 0 -14 -4 -14 -10z"/>
<path id="parte1" d="M11067 6342 c-20 -22 -23 -66 -4 -60 21 7 43 56 31 68 -7 7 -15 5
-27 -8z"/>
<path id="parte1" d="M6745 6309 c-456 -42 -892 -205 -1132 -421 -111 -101 -68 -92 -346
-73 l-244 17 -159 -50 c-88 -28 -177 -55 -199 -61 -73 -20 -168 -13 -327 25
-164 38 -288 54 -288 36 0 -15 47 -29 174 -51 137 -25 306 -64 306 -71 0 -3
-33 -26 -73 -52 -104 -68 -255 -195 -378 -318 -82 -83 -124 -137 -190 -241
-151 -238 -293 -506 -315 -593 -9 -37 -77 -69 -206 -95 -121 -25 -210 -61
-303 -122 -85 -55 -131 -99 -268 -257 -99 -113 -127 -153 -127 -183 0 -26 48
-89 168 -223 128 -141 187 -214 180 -221 -11 -11 -152 70 -203 117 -31 28 -97
101 -147 162 -169 205 -477 504 -571 552 -17 10 -129 44 -247 76 -241 66 -391
87 -635 91 l-140 2 -138 -67 c-202 -98 -261 -141 -361 -261 -46 -56 -129 -140
-185 -187 l-101 -85 0 -186 0 -185 55 -23 c34 -14 66 -36 81 -57 17 -22 41
-38 68 -46 24 -7 56 -27 76 -49 30 -31 47 -39 125 -57 50 -12 204 -37 343 -57
l254 -35 160 -101 c89 -56 181 -110 204 -121 24 -10 61 -39 81 -64 73 -87 180
-143 463 -244 179 -63 305 -122 323 -152 9 -13 -5 -33 -72 -104 -137 -148
-206 -262 -266 -444 -40 -121 -57 -150 -136 -237 -46 -51 -85 -106 -112 -162
-38 -76 -42 -92 -42 -158 0 -67 -2 -73 -21 -73 -45 0 -483 -31 -568 -40 -106
-11 -176 -28 -176 -43 0 -6 24 -7 68 -3 37 4 103 11 147 16 44 5 128 9 187 9
59 1 152 6 207 12 l101 11 63 -31 c66 -32 137 -43 357 -56 101 -6 205 -20 236
-32 10 -3 12 0 9 10 -8 18 -48 37 -80 37 -22 0 -25 5 -25 34 0 18 -9 45 -20
59 -26 33 -25 43 4 63 23 14 28 14 60 -1 40 -19 82 -68 115 -132 12 -24 24
-43 26 -43 3 0 38 9 77 20 72 20 72 20 110 0 39 -20 69 -25 81 -14 3 4 -20 24
-52 44 -32 21 -62 43 -66 49 -4 8 -14 4 -30 -14 -27 -29 -53 -31 -95 -10 -35
18 -50 43 -50 83 0 43 21 57 63 41 34 -12 122 -6 132 10 2 5 -21 11 -53 14
-31 3 -70 10 -87 17 l-30 11 50 43 c40 35 46 44 33 52 -8 5 -18 23 -20 39 -3
17 -14 51 -24 77 -10 26 -15 51 -10 55 4 4 25 -11 47 -34 30 -33 39 -50 39
-78 0 -38 18 -47 41 -19 11 14 10 21 -4 46 -22 38 -21 44 3 75 28 35 25 50
-12 73 -42 26 -48 17 -13 -20 l28 -29 -26 -10 c-33 -13 -69 -1 -90 29 -12 18
-16 19 -27 5 -16 -20 -46 -19 -54 1 -4 9 -4 31 -1 48 4 24 -1 38 -19 59 -14
15 -26 27 -28 27 -2 0 -3 -33 -3 -73 0 -66 -3 -77 -39 -135 l-39 -63 16 -35
c10 -19 17 -50 17 -69 0 -33 2 -35 33 -35 41 0 84 -27 67 -44 -6 -6 -52 -14
-103 -18 -51 -3 -101 -8 -112 -10 -13 -2 -20 3 -20 12 0 10 12 16 33 18 17 2
32 9 31 15 0 7 -13 44 -29 82 l-28 70 60 63 c62 64 68 85 28 90 -29 5 -50 -21
-50 -58 0 -31 -23 -55 -68 -71 l-32 -11 35 -39 c63 -70 41 -140 -41 -125 -45
9 -49 19 -19 54 14 16 25 33 25 36 0 3 -16 6 -37 6 l-36 0 6 -150 c4 -84 3
-150 -2 -150 -15 0 -75 167 -69 193 2 8 -7 23 -20 34 -21 16 -22 21 -11 46 6
14 20 29 31 32 27 9 78 55 78 71 0 26 -28 14 -84 -37 l-56 -51 -10 27 c-14 38
-12 56 10 93 24 39 33 40 57 6 l19 -25 -4 38 c-3 43 22 101 53 117 32 17 36
28 30 76 -7 56 13 92 42 74 19 -11 83 -91 83 -102 0 -4 -16 -17 -35 -30 -40
-25 -47 -47 -12 -37 56 16 126 97 130 149 3 41 -18 43 -29 4 -8 -26 -15 -33
-34 -33 -23 0 -25 4 -30 60 -4 45 -9 61 -22 63 -12 2 -15 -2 -11 -17 7 -28
-23 -28 -32 -1 -9 30 12 120 39 164 l23 39 14 -29 c8 -17 24 -30 37 -32 26 -4
29 14 5 40 -24 27 -5 79 57 155 52 64 86 85 101 62 6 -10 27 -13 72 -11 61 3
67 1 101 -28 57 -51 46 -84 -12 -35 -47 39 -68 32 -36 -14 15 -21 15 -23 -5
-37 -12 -9 -21 -26 -21 -40 0 -32 42 -74 74 -74 14 0 40 -9 58 -19 30 -18 138
-44 138 -34 0 2 -7 18 -16 34 -29 58 -14 63 53 19 80 -51 99 -59 203 -76 47
-7 97 -19 111 -24 l26 -11 -60 -119 -60 -120 -5 -128 -5 -129 67 -88 c36 -48
63 -91 60 -96 -3 -5 -52 -9 -110 -9 l-104 0 0 28 c0 28 -24 72 -39 72 -5 0 -6
-20 -3 -45 3 -29 1 -45 -6 -45 -37 0 -82 112 -82 206 l-1 49 -24 -28 c-35 -40
-35 -100 1 -123 34 -23 31 -71 -4 -66 -21 3 -23 1 -17 -19 4 -12 16 -36 26
-53 l19 -31 0 42 0 42 58 -25 c31 -14 59 -28 61 -30 3 -3 -25 -32 -62 -65 -37
-33 -65 -64 -62 -69 10 -16 44 3 106 56 97 84 142 88 271 23 72 -37 85 -37 59
0 -12 16 -21 31 -21 34 0 2 20 10 45 17 40 11 48 11 64 -5 37 -33 254 -42 251
-10 0 6 -24 9 -54 7 -35 -2 -71 4 -109 18 -47 18 -78 23 -165 29 -30 2 -110
93 -143 163 -30 65 -34 82 -33 153 1 111 66 335 98 335 6 0 74 -23 151 -51
146 -54 290 -89 363 -89 50 0 102 24 102 47 0 13 -7 14 -42 7 -70 -14 -158 -9
-248 15 -87 23 -326 117 -335 131 -8 13 101 25 213 24 56 -1 166 -10 244 -20
l141 -18 23 -50 c13 -28 27 -79 33 -113 23 -145 139 -400 323 -710 96 -161
168 -259 364 -500 142 -174 225 -254 360 -351 55 -38 107 -79 117 -90 18 -20
18 -21 -2 -31 -11 -6 -39 -11 -64 -11 -56 0 -135 -24 -167 -51 l-25 -21 25 7
c14 4 66 11 115 16 50 6 138 21 196 35 129 29 201 31 249 5 19 -11 45 -25 58
-32 34 -19 36 -5 7 45 -17 29 -36 48 -51 51 -13 3 -35 7 -49 10 -17 4 -31 18
-42 40 -17 36 -12 56 11 40 75 -56 97 -57 52 -5 -14 17 -26 39 -26 49 0 26
-22 49 -55 57 -30 7 -30 7 -12 -14 24 -26 15 -42 -23 -42 -38 0 -72 43 -68 84
3 30 5 31 58 36 58 5 75 25 50 55 -16 20 -32 8 -24 -17 5 -16 2 -19 -13 -16
-14 2 -19 14 -21 56 -4 66 13 76 65 36 l38 -29 -22 31 c-32 44 -102 106 -113
99 -6 -4 -10 -47 -10 -96 l0 -90 -46 7 c-38 5 -51 3 -75 -15 -41 -30 -63 -14
-54 39 6 33 3 40 -21 59 -40 32 -48 25 -18 -14 32 -42 25 -54 -36 -62 l-42 -6
7 34 c13 58 12 64 -13 61 -28 -4 -40 23 -19 46 22 25 30 64 18 95 -8 21 -17
27 -41 27 -39 0 -90 21 -114 48 -26 30 -7 52 46 52 31 0 45 -6 69 -32 29 -32
29 -32 29 -8 0 14 -14 56 -30 95 -22 50 -28 78 -24 101 3 18 2 40 -4 50 -8 15
-13 10 -31 -30 -12 -29 -29 -50 -41 -53 -11 -3 -23 -17 -26 -32 -3 -14 -7 -30
-7 -34 -1 -4 -23 6 -49 22 l-46 29 -28 -29 c-31 -33 -31 -33 16 -19 46 13 80
-8 80 -50 0 -37 -25 -40 -66 -8 -31 25 -26 13 19 -45 16 -21 42 -44 58 -53 22
-11 29 -22 29 -45 0 -21 6 -32 23 -38 46 -18 108 -104 88 -124 -17 -17 -71 12
-89 50 -9 18 -19 33 -24 33 -11 0 -10 -7 8 -46 18 -38 69 -74 105 -74 13 0 30
-9 36 -19 7 -10 34 -26 62 -36 50 -16 72 -42 49 -56 -17 -11 -46 -3 -81 23
-16 11 -31 18 -34 15 -11 -12 21 -50 54 -64 30 -12 44 -13 79 -3 34 10 51 9
95 -4 92 -27 89 -32 -27 -54 l-109 -20 -70 53 c-91 70 -152 133 -322 340 -187
228 -224 280 -343 485 -146 250 -173 307 -167 345 5 29 2 34 -26 46 -31 13
-32 17 -38 85 -8 83 -32 175 -60 222 -10 18 -19 49 -19 69 0 20 -5 52 -12 70
-10 29 -9 36 8 60 43 57 46 56 146 -44 l93 -92 75 37 c51 25 80 46 91 67 31
57 92 30 177 -78 59 -76 136 -144 297 -267 96 -73 161 -111 321 -191 l201 -99
474 0 c321 0 529 -5 644 -14 296 -25 386 -28 480 -16 176 22 265 23 430 4 214
-25 268 -24 410 9 66 16 163 31 215 34 85 5 101 3 145 -17 43 -20 72 -24 215
-29 288 -10 683 9 915 46 103 16 205 47 205 64 0 13 -42 11 -140 -6 -289 -51
-663 -81 -886 -71 -173 8 -247 19 -348 55 l-79 27 -189 -48 -189 -48 -172 21
c-204 24 -372 28 -480 9 -57 -9 -128 -11 -260 -6 -439 16 -833 25 -1103 26
l-290 0 -139 71 c-145 74 -283 157 -382 230 -87 64 -167 143 -367 364 -363
399 -455 521 -487 649 -17 69 -58 118 -167 198 -220 162 -289 251 -367 478
-50 141 -79 186 -146 220 -46 24 -356 119 -414 126 -24 4 -58 2 -75 -5 -25 -8
-38 -7 -61 4 -56 29 -66 91 -22 137 30 32 43 35 43 12 0 -20 36 -34 232 -88
230 -63 294 -72 394 -53 165 31 513 184 572 251 74 85 24 139 -285 306 -84 45
-153 84 -153 87 0 10 101 -7 143 -24 23 -9 63 -29 88 -45 129 -78 403 -152
460 -123 44 23 177 136 394 335 457 419 677 583 1005 750 171 86 235 128 242
158 13 50 -65 132 -127 132 -59 0 -175 69 -272 163 -24 23 -43 44 -43 48 0 4
21 11 48 15 62 9 95 26 167 89 251 217 646 366 1102 415 156 17 431 8 548 -18
113 -25 161 -44 250 -97 109 -66 127 -73 195 -81 69 -8 80 9 12 20 -37 6 -62
17 -224 105 -172 93 -467 130 -793 100z m-1532 -535 c95 -22 175 -59 276 -128
90 -61 150 -94 232 -127 68 -26 109 -56 109 -78 0 -31 -52 -68 -245 -171 -374
-200 -517 -309 -985 -745 -342 -320 -372 -342 -441 -330 -64 11 -213 62 -293
99 -106 51 -231 131 -234 151 -10 49 90 253 296 599 l106 180 134 110 c176
146 266 213 387 285 238 144 467 198 658 155z m-3884 -1454 c255 -32 407 -64
696 -145 l120 -34 174 -178 c95 -98 216 -230 269 -293 118 -143 195 -223 248
-260 22 -16 93 -50 158 -76 64 -25 131 -56 149 -68 30 -21 33 -21 50 -6 10 10
48 25 85 34 124 32 122 34 -25 35 l-142 1 -107 118 c-106 115 -198 231 -191
239 6 5 236 -45 333 -73 47 -13 120 -42 162 -63 l78 -39 47 -171 46 -171 110
-118 c60 -64 119 -130 131 -145 26 -33 20 -60 -12 -55 -17 2 -22 9 -20 26 3
37 -20 22 -45 -28 -24 -46 -31 -100 -13 -100 6 0 23 20 39 44 l28 45 37 -45
c21 -24 41 -42 46 -39 4 3 6 23 3 45 -7 50 14 62 64 35 45 -24 105 -92 101
-113 -6 -30 -37 -26 -44 5 -17 72 -44 60 -44 -19 0 -48 13 -69 33 -49 25 25
47 11 76 -48 l30 -58 -45 -44 c-68 -66 -72 -78 -38 -106 45 -35 54 -30 54 30
0 58 18 94 43 84 8 -3 27 -26 42 -51 l27 -46 -23 -19 -24 -20 40 5 c77 9 145
-65 145 -158 0 -54 -15 -76 -75 -108 l-46 -25 -50 28 c-59 32 -63 33 -49 7 18
-34 2 -58 -69 -100 -37 -22 -71 -40 -75 -40 -5 0 -27 15 -50 33 l-41 32 18
-28 c10 -16 17 -31 14 -33 -2 -2 -46 0 -98 6 -263 27 -380 30 -518 10 l-133
-19 -112 94 c-106 90 -156 142 -156 164 0 5 -14 14 -30 20 -17 5 -86 48 -153
94 -149 103 -223 140 -397 202 -226 79 -381 165 -416 230 -12 23 -35 41 -78
61 -33 16 -152 85 -265 152 l-206 124 -66 -11 c-96 -15 -238 10 -258 47 -8 15
-26 17 -134 14 l-125 -3 -21 34 c-30 48 -43 58 -96 65 -25 4 -46 12 -47 17 -2
25 59 36 242 45 203 10 262 22 172 35 -45 6 -438 -10 -484 -19 -21 -5 -75 53
-84 90 -4 13 -5 84 -2 156 l4 131 190 186 c251 245 307 287 481 361 76 32 143
59 149 59 5 1 83 -8 173 -19z m2202 -11 c151 -50 320 -143 411 -227 l59 -55
-23 -24 c-24 -26 -215 -126 -322 -168 -123 -48 -252 -76 -351 -76 -73 0 -117
8 -231 39 -188 52 -218 67 -222 111 -12 128 198 317 443 397 88 29 154 30 236
3z m-954 -2016 c-3 -10 -5 -2 -5 17 0 19 2 27 5 18 2 -10 2 -26 0 -35z m1795
-182 c63 -62 70 -87 22 -84 -54 4 -158 103 -139 133 16 26 57 8 117 -49z
m-1550 9 c25 -26 29 -36 24 -63 -12 -61 -51 -62 -44 -1 4 30 1 34 -19 34 -25
0 -39 21 -29 45 9 24 35 18 68 -15z m-104 -22 c21 -21 14 -48 -13 -48 -25 0
-51 32 -40 50 8 14 39 12 53 -2z m1554 -38 c83 -86 53 -124 -40 -50 -50 39
-69 70 -57 90 14 23 51 8 97 -40z m-98 -37 c49 -35 81 -76 71 -93 -13 -21 -48
-8 -96 37 -55 51 -73 78 -64 93 8 12 35 1 89 -37z m-1598 -479 c16 -27 24 -53
21 -65 -4 -13 2 -33 15 -50 18 -23 19 -31 8 -44 -32 -39 -109 2 -113 61 -1 19
-12 35 -30 48 l-28 19 42 43 c23 24 46 41 51 38 4 -3 20 -25 34 -50z m-564
-171 c-35 -33 -36 -35 -17 -49 10 -8 24 -14 31 -14 16 0 71 -84 79 -122 9 -40
-6 -50 -74 -45 -40 3 -59 9 -71 25 -36 44 -33 155 7 260 l16 43 33 -32 33 -32
-37 -34z m290 -153 c42 -48 64 -88 54 -97 -12 -12 -84 -7 -101 7 -10 8 -15 30
-15 65 0 79 12 84 62 25z m2553 -360 c8 -26 -1 -40 -26 -40 -13 0 -19 7 -19
23 0 40 34 53 45 17z m69 -213 c8 -12 7 -20 -2 -29 -16 -16 -47 13 -38 37 7
19 25 16 40 -8z m270 -269 c17 -23 6 -48 -20 -48 -18 0 -44 39 -37 56 8 21 40
17 57 -8z m33 -163 c38 -8 83 -41 83 -61 0 -36 -122 -28 -170 12 -16 14 -30
30 -30 34 0 11 51 29 70 25 8 -2 29 -6 47 -10z"/>
<path id="parte1" d="M1560 3950 c0 -5 9 -10 21 -10 11 0 17 5 14 10 -3 6 -13 10 -21 10
-8 0 -14 -4 -14 -10z"/>
<path id="parte1" d="M897 3872 c-19 -21 -22 -32 -7 -32 10 0 34 39 27 46 -2 2 -11 -4 -20
-14z"/>
<path id="parte1" d="M693 3830 c-37 -22 -53 -48 -53 -84 0 -18 4 -24 14 -20 8 3 17 -2 20
-14 7 -21 93 -72 122 -72 11 0 40 16 67 35 l47 35 -25 49 c-42 84 -123 114
-192 71z m131 -36 c9 -3 16 -16 16 -29 0 -37 -106 -74 -117 -40 -1 6 6 25 17
43 20 32 47 40 84 26z"/>
<path id="parte1" d="M1592 3660 c7 -11 19 -20 27 -20 11 0 10 5 -4 20 -10 11 -22 20 -27
20 -4 0 -3 -9 4 -20z"/>
<path id="parte1" d="M1828 3553 c19 -24 38 -43 43 -43 20 0 7 20 -33 52 l-43 33 33 -42z"/>
<path id="parte1" d="M1810 3472 c0 -15 38 -44 44 -34 6 9 -4 20 -31 36 -7 4 -13 3 -13 -2z"/>
<path id="parte1" d="M2377 3434 c31 -43 53 -61 53 -43 0 8 -17 27 -37 44 l-38 29 22 -30z"/>
<path id="parte1" d="M3261 3237 c-14 -18 -4 -27 31 -27 32 0 35 7 11 26 -23 17 -28 17
-42 1z"/>
<path id="parte1" d="M3380 3240 c0 -5 7 -10 15 -10 8 0 15 5 15 10 0 6 -7 10 -15 10 -8 0
-15 -4 -15 -10z"/>
<path id="parte1" d="M805 3220 c-3 -5 3 -10 14 -10 12 0 21 5 21 10 0 6 -6 10 -14 10 -8
0 -18 -4 -21 -10z"/>
<path id="parte1" d="M2850 3195 c-22 -58 -6 -85 49 -85 33 0 34 0 16 20 -9 10 -20 34 -24
51 -8 42 -28 48 -41 14z"/>
<path id="parte1" d="M2370 3195 c0 -8 92 -65 104 -65 14 0 -26 40 -56 56 -28 14 -48 18
-48 9z"/>
<path id="parte1" d="M2980 3196 c0 -9 37 -12 55 -5 15 6 11 8 -17 8 -21 1 -38 -1 -38 -3z"/>
<path id="parte1" d="M3350 3159 c0 -35 35 -99 54 -99 7 0 25 14 42 31 l29 32 -38 -7 c-21
-4 -45 -10 -53 -13 -11 -4 -14 4 -14 35 0 23 -4 44 -10 47 -6 4 -10 -7 -10
-26z"/>
<path id="parte1" d="M2657 3160 c-9 -13 -14 -26 -12 -29 9 -8 38 26 33 40 -3 8 -10 5 -21
-11z"/>
<path id="parte1" d="M3152 3083 c-33 -103 -32 -113 7 -140 48 -32 72 -31 40 3 -20 22 -24
35 -22 82 1 32 5 72 8 90 11 57 -12 34 -33 -35z"/>
<path id="parte1" d="M2911 3067 c-17 -44 -13 -73 15 -106 42 -50 72 -38 37 15 -9 14 -22
47 -29 72 l-12 47 -11 -28z"/>
<path id="parte1" d="M3480 3047 c0 -7 9 -18 19 -24 11 -7 24 -28 31 -47 15 -45 45 -56 74
-26 l21 23 -23 -6 c-18 -4 -25 0 -33 21 -6 15 -20 37 -31 50 -23 24 -58 30
-58 9z"/>
<path id="parte1" d="M2620 3040 c0 -5 9 -10 20 -10 11 0 20 5 20 10 0 6 -9 10 -20 10 -11
0 -20 -4 -20 -10z"/>
<path id="parte1" d="M3046 2999 c-15 -22 -26 -42 -23 -45 5 -6 67 66 67 78 0 18 -17 5
-44 -33z"/>
<path id="parte1" d="M2777 3023 c-9 -9 22 -43 40 -43 20 0 16 28 -6 40 -23 12 -26 12 -34
3z"/>
<path id="parte1" d="M1940 3011 c0 -13 29 -35 37 -28 7 8 -15 37 -28 37 -5 0 -9 -4 -9 -9z"/>
<path id="parte1" d="M3326 2977 c-15 -19 -26 -38 -26 -42 0 -11 49 35 61 58 17 30 -8 19
-35 -16z"/>
<path id="parte1" d="M3443 2999 c-30 -11 -43 -39 -43 -92 0 -30 6 -49 18 -60 24 -22 66
-22 83 0 13 15 10 16 -28 11 -24 -4 -45 -2 -48 2 -3 5 6 39 19 76 14 38 24 69
23 70 -1 1 -12 -2 -24 -7z"/>
<path id="parte1" d="M3245 2990 c-4 -6 -3 -16 3 -22 6 -6 12 -6 17 2 4 6 3 16 -3 22 -6 6
-12 6 -17 -2z"/>
<path id="parte1" d="M1900 2890 c50 -46 80 -65 80 -52 0 5 -28 28 -62 51 l-63 42 45 -41z"/>
<path id="parte1" d="M2050 2921 c0 -11 62 -61 75 -61 11 0 -35 49 -57 61 -12 6 -18 6 -18
0z"/>
<path id="parte1" d="M2576 2901 c-8 -12 3 -41 15 -41 5 0 9 11 9 25 0 25 -14 34 -24 16z"/>
<path id="parte1" d="M3245 2881 c-3 -10 -2 -26 1 -36 7 -17 8 -17 21 1 7 10 13 26 13 36
0 24 -27 23 -35 -1z"/>
<path id="parte1" d="M3070 2854 c0 -38 9 -50 43 -63 57 -22 74 -15 91 36 9 25 14 48 13
50 -2 2 -18 -15 -36 -37 -17 -22 -36 -40 -41 -40 -4 0 -22 19 -39 42 l-31 42
0 -30z"/>
<path id="parte1" d="M3312 2811 c-48 -36 -62 -67 -36 -85 16 -12 16 -14 -7 -29 -13 -9
-52 -19 -86 -23 l-63 -7 32 -16 c21 -11 35 -26 40 -47 6 -24 15 -33 35 -36 16
-3 37 -8 48 -12 l20 -7 -20 15 c-11 8 -29 22 -40 30 -20 14 -20 15 10 46 38
40 66 37 82 -10 11 -31 12 -32 12 -9 1 41 21 88 42 100 28 15 35 -13 15 -64
-9 -24 -16 -46 -16 -50 0 -10 31 4 88 41 l53 35 34 -33 c19 -18 37 -46 40 -62
6 -24 12 -30 35 -30 3 -1 17 2 33 6 26 6 27 5 21 -21 -10 -45 -33 -73 -84
-105 l-48 -30 15 -36 c18 -46 48 -72 82 -72 26 1 26 1 -5 14 -33 15 -44 33
-44 71 0 29 26 45 72 45 44 0 58 15 58 61 0 44 -37 103 -68 107 -31 5 -47 38
-33 68 13 30 47 31 78 3 20 -19 23 -20 29 -6 5 14 -12 87 -21 87 -1 0 -29 -16
-61 -35 -86 -52 -98 -47 -104 45 -6 82 -4 83 -42 -13 -14 -35 -46 -54 -54 -32
-3 8 -4 22 0 30 6 16 -18 45 -38 45 -7 0 -25 -13 -41 -30 -16 -16 -32 -30 -37
-30 -15 0 -8 42 12 67 39 50 22 57 -38 14z"/>
<path id="parte1" d="M2820 2800 c0 -19 3 -21 12 -12 9 9 9 15 0 24 -9 9 -12 7 -12 -12z"/>
<path id="parte1" d="M2505 2784 c32 -25 55 -35 55 -26 0 15 -36 42 -56 42 -18 -1 -18 -1
1 -16z"/>
<path id="parte1" d="M2209 2770 c24 -21 51 -26 51 -12 0 10 -45 32 -63 32 -7 -1 -1 -10
12 -20z"/>
<path id="parte1" d="M2995 2778 c-4 -10 -4 -26 0 -35 8 -17 8 -17 12 0 3 9 3 25 0 35 -4
16 -4 16 -12 0z"/>
<path id="parte1" d="M2140 2742 c0 -5 9 -17 20 -27 15 -14 20 -15 20 -4 0 8 -9 20 -20 27
-11 7 -20 8 -20 4z"/>
<path id="parte1" d="M2410 2691 c0 -8 69 -41 119 -56 42 -13 13 15 -43 41 -54 25 -76 30
-76 15z"/>
<path id="parte1" d="M2724 2656 c3 -22 10 -44 16 -50 17 -17 12 48 -6 70 -14 18 -15 17
-10 -20z"/>
<path id="parte1" d="M3020 2660 c0 -5 9 -10 20 -10 11 0 20 5 20 10 0 6 -9 10 -20 10 -11
0 -20 -4 -20 -10z"/>
<path id="parte1" d="M2895 2640 c-8 -13 13 -60 27 -60 13 0 5 63 -9 67 -6 2 -14 -1 -18
-7z"/>
<path id="parte1" d="M2386 2609 c7 -13 106 -60 112 -54 8 8 -11 26 -48 45 -43 22 -75 26
-64 9z"/>
<path id="parte1" d="M3755 2610 c3 -5 13 -10 21 -10 8 0 14 5 14 10 0 6 -9 10 -21 10 -11
0 -17 -4 -14 -10z"/>
<path id="parte1" d="M3480 2591 c-11 -22 -14 -74 -3 -84 14 -15 33 18 33 59 0 47 -12 57
-30 25z"/>
<path id="parte1" d="M2675 2590 c-3 -5 3 -10 15 -10 12 0 18 5 15 10 -3 6 -10 10 -15 10
-5 0 -12 -4 -15 -10z"/>
<path id="parte1" d="M3800 2550 c-11 -26 -10 -33 5 -50 25 -27 35 -25 35 8 0 35 -10 72
-20 72 -4 0 -13 -14 -20 -30z"/>
<path id="parte1" d="M2750 2560 c0 -5 7 -10 15 -10 8 0 15 5 15 10 0 6 -7 10 -15 10 -8 0
-15 -4 -15 -10z"/>
<path id="parte1" d="M3095 2550 c-3 -5 -1 -18 4 -27 9 -16 10 -14 11 10 0 28 -5 34 -15
17z"/>
<path id="parte1" d="M3363 2525 l-28 -26 34 14 c19 7 36 18 39 25 6 20 -15 14 -45 -13z"/>
<path id="parte1" d="M2950 2530 c0 -13 48 -36 57 -26 9 8 -6 22 -34 31 -14 4 -23 2 -23
-5z"/>
<path id="parte1" d="M3560 2500 c-10 -19 -9 -21 12 -18 13 2 23 9 23 17 0 23 -23 24 -35
1z"/>
<path id="parte1" d="M3180 2501 c0 -14 52 -29 73 -22 17 6 16 8 -8 19 -31 14 -65 16 -65
3z"/>
<path id="parte1" d="M2774 2491 c10 -16 65 -43 79 -38 13 4 -27 31 -62 42 -16 5 -21 4
-17 -4z"/>
<path id="parte1" d="M3806 2448 c-19 -29 -35 -87 -36 -127 0 -38 15 -14 40 62 24 76 23
106 -4 65z"/>
<path id="parte1" d="M2730 2432 c0 -15 24 -32 45 -32 19 1 19 1 -4 20 -24 21 -41 26 -41
12z"/>
<path id="parte1" d="M3001 2416 c-34 -36 -11 -64 23 -30 17 16 22 54 8 54 -5 0 -19 -11
-31 -24z"/>
<path id="parte1" d="M3375 2430 c-11 -17 5 -30 36 -30 36 0 38 13 4 28 -31 14 -32 15 -40
2z"/>
<path id="parte1" d="M3204 2365 l-22 -33 22 -6 c26 -7 86 -8 86 -1 0 13 -46 75 -55 74 -5
0 -20 -15 -31 -34z"/>
<path id="parte1" d="M3415 2372 c-40 -13 -45 -17 -26 -20 27 -4 109 16 117 29 8 13 -35 9
-91 -9z"/>
<path id="parte1" d="M2921 2284 c21 -20 44 -34 54 -32 12 2 5 12 -29 36 -61 42 -69 41
-25 -4z"/>
<path id="parte1" d="M3420 2300 c0 -11 5 -20 10 -20 6 0 10 9 10 20 0 11 -4 20 -10 20 -5
0 -10 -9 -10 -20z"/>
<path id="parte1" d="M3950 2300 c0 -11 5 -20 10 -20 6 0 10 9 10 20 0 11 -4 20 -10 20 -5
0 -10 -9 -10 -20z"/>
<path id="parte1" d="M3194 2256 c-8 -22 3 -33 18 -18 9 9 9 15 0 24 -9 9 -13 7 -18 -6z"/>
<path id="parte1" d="M4060 2262 c0 -5 13 -21 29 -36 41 -40 62 -28 22 12 -32 31 -51 40
-51 24z"/>
<path id="parte1" d="M3850 2242 c0 -23 19 -42 42 -42 24 0 23 12 -5 38 -28 27 -37 28 -37
4z"/>
<path id="parte1" d="M2900 2214 c0 -17 28 -49 36 -41 4 4 -2 17 -14 30 -12 12 -22 17 -22
11z"/>
<path id="parte1" d="M3990 2201 c-16 -30 -12 -36 10 -16 21 19 26 35 10 35 -5 0 -14 -9
-20 -19z"/>
<path id="parte1" d="M3700 2197 c0 -16 57 -73 66 -65 8 9 -25 57 -47 69 -14 7 -19 6 -19
-4z"/>
<path id="parte1" d="M3520 2145 c0 -18 24 -30 40 -20 8 5 8 11 -1 21 -15 19 -39 18 -39
-1z"/>
<path id="parte1" d="M3055 2131 c11 -18 94 -63 107 -58 7 2 -16 18 -50 36 -35 18 -61 28
-57 22z"/>
<path id="parte1" d="M3847 2129 c8 -8 16 -8 30 0 16 9 14 10 -11 11 -22 0 -27 -3 -19 -11z"/>
<path id="parte1" d="M3580 2080 c0 -5 6 -10 14 -10 8 0 18 5 21 10 3 6 -3 10 -14 10 -12
0 -21 -4 -21 -10z"/>
<path id="parte1" d="M3200 2060 c0 -5 9 -10 21 -10 11 0 17 5 14 10 -3 6 -13 10 -21 10
-8 0 -14 -4 -14 -10z"/>
<path id="parte1" d="M3100 3870 c0 -5 6 -10 14 -10 8 0 18 5 21 10 3 6 -3 10 -14 10 -12
0 -21 -4 -21 -10z"/>
<path id="parte1" d="M3250 3820 c0 -5 9 -10 20 -10 11 0 20 5 20 10 0 6 -9 10 -20 10 -11
0 -20 -4 -20 -10z"/>
<path id="parte1" d="M0 6271 c0 -12 123 -74 207 -104 99 -36 302 -73 281 -51 -3 3 -78 25
-167 49 -89 25 -196 60 -238 80 -84 39 -83 38 -83 26z"/>
<path id="parte1" d="M8190 6195 c-184 -25 -320 -68 -320 -100 0 -17 15 -15 115 16 76 25
219 53 365 73 63 9 126 17 140 20 14 2 -27 3 -90 4 -63 0 -158 -6 -210 -13z"/>
<path id="parte1" d="M8695 6175 c443 -97 717 -197 939 -343 165 -109 243 -234 198 -318
-10 -19 -14 -20 -169 -7 -87 7 -237 24 -333 38 -242 34 -760 83 -1069 101
-143 8 -154 14 -191 104 -21 53 -138 291 -146 299 -2 2 -6 2 -9 -1 -10 -9 23
-97 95 -256 68 -151 75 -161 104 -166 47 -9 204 -23 451 -41 347 -25 538 -44
705 -70 334 -52 557 -59 600 -20 47 42 3 163 -95 261 -214 216 -747 423 -1157
449 -82 5 -81 5 77 -30z"/>
<path id="parte1" d="M865 6161 c-39 -6 -39 -7 22 -14 72 -8 478 -23 963 -37 l335 -9 260
-74 c276 -79 328 -92 414 -102 30 -3 108 -19 173 -35 131 -32 280 -55 650
-100 267 -32 349 -37 331 -19 -18 18 -77 27 -333 54 -405 42 -536 61 -691 101
-31 7 -92 19 -135 24 -43 6 -151 33 -239 60 -340 104 -440 117 -1150 145 -383
15 -531 17 -600 6z"/>
<path id="parte1" d="M587 6143 c18 -2 50 -2 70 0 21 2 7 4 -32 4 -38 0 -55 -2 -38 -4z"/>
<path id="parte1" d="M11040 6130 c0 -13 7 -20 20 -20 23 0 26 10 8 28 -18 18 -28 15 -28
-8z"/>
<path id="parte1" d="M12677 6114 c-11 -11 5 -34 24 -34 22 0 24 11 7 28 -13 13 -22 15
-31 6z"/>
<path id="parte1" d="M8104 6016 c18 -45 34 -66 48 -66 17 0 -3 44 -34 75 l-30 30 16 -39z"/>
<path id="parte1" d="M11015 6020 c-18 -8 -17 -9 8 -9 16 -1 26 3 22 9 -3 6 -7 10 -8 9 -1
0 -11 -4 -22 -9z"/>
<path id="parte1" d="M7725 6008 c-8 -21 11 -57 69 -132 70 -89 74 -127 16 -157 -49 -26
-228 -46 -555 -64 -461 -25 -580 -35 -827 -66 -165 -22 -439 12 -611 74 -58
21 -92 39 -188 100 -25 17 -29 17 -29 3 0 -64 358 -198 586 -218 107 -10 139
-9 285 11 238 31 316 38 599 56 663 40 755 49 787 81 45 45 27 145 -41 227
-20 23 -47 56 -60 72 -21 25 -26 27 -31 13z"/>
<path id="parte1" d="M12600 5980 c0 -11 5 -20 10 -20 6 0 10 9 10 20 0 11 -4 20 -10 20
-5 0 -10 -9 -10 -20z"/>
<path id="parte1" d="M1805 5946 c-29 -13 -83 -91 -71 -103 3 -3 21 8 41 26 44 38 70 45
149 39 123 -10 299 -112 455 -263 l94 -91 -17 -32 c-18 -35 -48 -54 -114 -71
-55 -15 -76 -46 -61 -89 16 -45 29 -40 29 12 l0 43 65 6 c36 4 71 9 76 13 6 3
26 30 45 60 34 54 35 54 85 54 58 0 111 -24 154 -70 17 -17 42 -38 58 -46 15
-8 27 -21 27 -29 0 -8 -30 -50 -67 -93 -36 -42 -73 -85 -81 -95 -8 -9 -18 -37
-22 -62 l-7 -45 71 -2 c107 -4 230 2 240 12 14 14 -35 23 -165 29 l-126 6 93
100 93 100 58 0 c36 0 72 -7 96 -19 46 -23 136 -112 143 -143 7 -27 45 -31 63
-9 19 23 -3 53 -57 79 -33 16 -52 33 -64 58 -19 41 -92 79 -151 79 -39 0 -90
31 -157 95 -25 24 -59 50 -76 58 -34 18 -138 37 -197 37 -34 0 -47 9 -127 84
-109 104 -179 156 -284 212 -126 67 -228 88 -291 60z"/>
<path id="parte1" d="M5960 5926 c0 -4 68 -46 76 -46 12 0 2 39 -12 44 -18 7 -64 8 -64 2z"/>
<path id="parte1" d="M8485 5919 c-24 -5 -20 -7 23 -8 28 0 52 1 52 3 0 8 -47 11 -75 5z"/>
<path id="parte1" d="M5770 5890 c0 -5 9 -10 20 -10 11 0 20 5 20 10 0 6 -9 10 -20 10 -11
0 -20 -4 -20 -10z"/>
<path id="parte1" d="M6968 5893 c23 -2 59 -2 80 0 20 2 1 4 -43 4 -44 0 -61 -2 -37 -4z"/>
<path id="parte1" d="M8620 5890 c0 -5 9 -10 20 -10 11 0 20 5 20 10 0 6 -9 10 -20 10 -11
0 -20 -4 -20 -10z"/>
<path id="parte1" d="M12450 5885 c0 -29 15 -47 35 -43 16 3 15 6 -8 33 -23 26 -26 28 -27
10z"/>
<path id="parte1" d="M1573 5866 c-59 -19 -163 -77 -249 -141 l-74 -55 0 -113 c0 -61 -5
-130 -11 -152 -17 -68 -17 -68 51 -102 74 -37 96 -39 305 -27 l140 7 -40 19
c-32 15 -54 18 -110 13 -210 -17 -230 -17 -268 -2 l-37 16 0 159 0 160 53 39
c68 50 135 91 225 138 39 21 72 41 72 46 0 11 -5 11 -57 -5z"/>
<path id="parte1" d="M5856 5873 c-11 -11 -6 -23 8 -23 8 0 17 4 20 9 7 10 -19 23 -28 14z"/>
<path id="parte1" d="M6660 5870 c-12 -8 -12 -10 3 -16 21 -8 35 2 21 16 -5 5 -15 6 -24 0z"/>
<path id="parte1" d="M10995 5871 c-7 -12 12 -24 25 -16 11 7 4 25 -10 25 -5 0 -11 -4 -15
-9z"/>
<path id="parte1" d="M7458 5863 c12 -2 32 -2 45 0 12 2 2 4 -23 4 -25 0 -35 -2 -22 -4z"/>
<path id="parte1" d="M5935 5840 c-4 -6 7 -10 25 -10 18 0 29 4 25 10 -3 6 -15 10 -25 10
-10 0 -22 -4 -25 -10z"/>
<path id="parte1" d="M6233 5833 c-40 -20 -43 -35 -5 -23 44 13 82 29 82 35 0 10 -46 3
-77 -12z"/>
<path id="parte1" d="M8395 5840 c-3 -5 3 -10 14 -10 12 0 21 5 21 10 0 6 -6 10 -14 10 -8
0 -18 -4 -21 -10z"/>
<path id="parte1" d="M8520 5840 c0 -5 18 -10 41 -10 24 0 38 4 34 10 -3 6 -22 10 -41 10
-19 0 -34 -4 -34 -10z"/>
<path id="parte1" d="M8910 5840 c0 -5 16 -10 36 -10 21 0 33 4 29 10 -3 6 -19 10 -36 10
-16 0 -29 -4 -29 -10z"/>
<path id="parte1" d="M6030 5820 c-12 -8 -12 -10 3 -16 21 -8 35 2 21 16 -5 5 -15 6 -24 0z"/>
<path id="parte1" d="M9198 5813 c12 -2 30 -2 40 0 9 3 -1 5 -23 4 -22 0 -30 -2 -17 -4z"/>
<path id="parte1" d="M8709 5800 c13 -6 94 -12 180 -15 109 -3 144 -2 116 5 -61 14 -326
23 -296 10z"/>
<path id="parte1" d="M1725 5788 c-27 -14 -45 -38 -45 -60 0 -28 12 -21 48 27 33 46 33 53
-3 33z"/>
<path id="parte1" d="M7095 5790 c-4 -6 7 -10 25 -10 18 0 29 4 25 10 -3 6 -15 10 -25 10
-10 0 -22 -4 -25 -10z"/>
<path id="parte1" d="M12407 5773 c-15 -14 -7 -43 12 -43 26 0 36 17 21 35 -14 16 -23 19
-33 8z"/>
<path id="parte1" d="M6330 5760 c0 -5 7 -10 15 -10 8 0 15 5 15 10 0 6 -7 10 -15 10 -8 0
-15 -4 -15 -10z"/>
<path id="parte1" d="M8495 5760 c3 -5 13 -10 21 -10 8 0 14 5 14 10 0 6 -9 10 -21 10 -11
0 -17 -4 -14 -10z"/>
<path id="parte1" d="M9161 5755 c3 -2 47 -20 98 -40 70 -26 102 -34 127 -29 66 12 31 32
-100 58 -76 16 -134 21 -125 11z"/>
<path id="parte1" d="M5950 5740 c0 -5 9 -10 21 -10 11 0 17 5 14 10 -3 6 -13 10 -21 10
-8 0 -14 -4 -14 -10z"/>
<path id="parte1" d="M6030 5720 c-12 -8 -12 -10 3 -16 21 -8 35 2 21 16 -5 5 -15 6 -24 0z"/>
<path id="parte1" d="M12380 5638 c0 -16 19 -38 33 -38 4 0 7 10 5 22 -3 25 -38 39 -38 16z"/>
<path id="parte1" d="M9945 5540 c11 -5 58 -20 105 -35 318 -98 672 -414 844 -754 81 -158
203 -602 261 -950 29 -167 31 -228 10 -258 -8 -12 -53 -42 -99 -67 -46 -25
-89 -53 -97 -62 -13 -16 -11 -17 16 -10 16 4 75 30 130 58 l100 50 45 -50 c25
-28 97 -106 161 -174 217 -231 278 -322 265 -393 -16 -84 -59 -62 -126 65 -49
95 -112 180 -179 243 -42 40 -81 60 -81 42 0 -2 27 -36 59 -73 115 -134 204
-294 240 -432 l20 -75 -61 -59 c-112 -107 -306 -219 -444 -256 -42 -12 -107
-38 -143 -59 -84 -48 -146 -72 -301 -116 -69 -20 -193 -65 -275 -100 -83 -35
-171 -69 -197 -74 -26 -6 -120 -14 -209 -18 -138 -5 -161 -4 -154 8 5 8 22 33
38 57 114 169 231 597 197 722 -8 29 -19 44 -38 52 -31 14 -564 18 -623 5 -27
-5 -40 -15 -48 -35 -23 -57 -51 -188 -71 -333 -29 -209 -97 -459 -171 -626
-27 -62 -21 -93 24 -127 25 -18 42 -21 130 -21 117 1 187 19 320 86 l79 40 -4
-63 c-3 -45 -15 -87 -43 -148 -21 -46 -48 -114 -59 -150 -18 -56 -26 -67 -56
-82 -43 -21 -168 -39 -510 -74 -360 -38 -637 -39 -861 -5 l-155 23 -175 -21
c-95 -12 -232 -26 -304 -32 -71 -6 -137 -15 -145 -20 -27 -15 157 -9 340 11
224 25 338 25 558 -1 220 -25 374 -27 522 -5 63 10 138 16 165 14 41 -2 8 -11
-192 -52 -134 -27 -243 -53 -243 -57 0 -5 12 -6 28 -4 15 3 77 14 137 25 187
34 253 41 465 50 113 5 216 13 230 19 19 7 0 9 -75 8 -103 -2 -195 8 -195 22
0 9 332 51 398 51 23 0 42 -4 42 -9 0 -5 -12 -32 -26 -60 -25 -47 -26 -54 -14
-95 23 -83 -4 -216 -71 -344 -47 -89 -60 -102 -108 -102 -61 0 -211 -51 -211
-71 0 -15 31 -10 113 16 127 41 192 33 404 -50 86 -34 124 -44 151 -40 20 2
84 10 142 16 114 12 165 28 92 29 -60 0 -80 14 -108 73 l-24 52 0 -62 0 -63
-62 0 c-109 0 -181 55 -164 124 3 14 26 42 51 63 48 39 55 53 29 53 -45 0
-114 -92 -114 -152 0 -40 -29 -43 -104 -11 -44 19 -66 34 -66 45 0 9 18 50 39
91 43 81 56 137 66 268 4 48 13 98 20 112 7 15 11 35 8 46 -8 30 41 73 112
101 51 20 77 24 178 23 64 0 117 3 117 7 0 4 -7 13 -15 20 -16 13 -151 10
-299 -7 l-59 -6 6 66 c11 113 57 173 132 170 l44 -1 -34 34 c-30 30 -35 41
-35 83 0 57 30 104 106 168 l49 40 150 5 c170 6 209 16 415 103 144 61 200 81
255 90 64 11 103 25 220 78 125 56 222 92 278 100 l37 6 0 -57 c-1 -170 -39
-272 -137 -362 -92 -84 -289 -175 -338 -157 -15 7 -16 15 -9 75 19 144 8 242
-27 242 -5 0 -9 -39 -9 -86 0 -84 -26 -238 -68 -399 -18 -69 -18 -71 4 -195
29 -157 39 -193 63 -214 27 -24 36 -4 22 47 -39 146 -45 187 -44 292 2 162 4
165 95 191 181 50 362 176 459 319 l34 50 0 144 0 144 108 64 c117 69 226 164
251 217 9 19 16 51 16 73 0 26 10 53 30 83 24 36 30 56 30 97 0 129 -89 266
-278 431 -39 35 -100 103 -135 152 l-64 89 -32 163 c-102 517 -217 924 -304
1080 -63 112 -158 230 -296 368 -242 240 -471 372 -644 369 -33 0 -38 -2 -22
-9z m75 -2876 c-36 -398 -238 -756 -494 -880 -138 -67 -317 -84 -357 -35 -17
21 -18 25 -2 59 30 69 101 287 127 392 14 58 37 182 50 275 13 94 32 203 41
242 l17 73 306 2 c169 2 311 0 315 -3 5 -4 3 -60 -3 -125z"/>
<path id="parte1" d="M7925 5503 c-33 -1 -175 -7 -315 -13 -497 -21 -651 -54 -758 -161
-88 -88 -115 -182 -172 -604 -31 -229 -43 -357 -51 -540 -12 -319 -23 -420
-64 -610 -43 -195 -80 -444 -68 -455 4 -4 43 -38 87 -74 l78 -66 307 5 c636
12 1202 26 1376 35 177 10 436 38 453 49 4 3 28 42 51 86 l43 80 -1 105 c-2
160 -31 686 -42 765 -27 198 -176 678 -308 995 l-81 195 -90 58 c-131 84 -301
159 -355 155 -16 -1 -57 -3 -90 -5z m219 -72 c128 -53 201 -96 256 -151 39
-39 57 -73 132 -255 47 -115 104 -268 127 -340 55 -180 129 -466 141 -550 14
-106 29 -359 36 -656 l7 -266 -33 -60 -33 -60 -131 -17 c-235 -32 -295 -35
-826 -46 -617 -13 -1077 -9 -1132 10 -20 7 -61 38 -92 69 l-55 56 13 65 c8 36
17 99 21 140 3 41 15 114 26 162 34 155 48 278 64 570 17 307 25 390 55 563
10 61 28 181 40 269 35 269 83 361 222 432 131 67 406 97 914 102 l151 2 97
-39z"/>
<path id="parte1" d="M7037 5184 c-11 -11 -8 -52 4 -60 6 -3 17 0 25 8 13 13 13 17 -3 37
-10 12 -22 19 -26 15z"/>
<path id="parte1" d="M7100 5002 c0 -4 7 -18 16 -31 21 -29 41 -14 25 18 -11 20 -41 30
-41 13z"/>
<path id="parte1" d="M8316 4821 c-4 -5 -2 -20 3 -33 9 -21 10 -21 10 10 1 32 -3 39 -13
23z"/>
<path id="parte1" d="M6950 4770 c0 -11 5 -20 10 -20 6 0 10 9 10 20 0 11 -4 20 -10 20 -5
0 -10 -9 -10 -20z"/>
<path id="parte1" d="M6904 4575 c-4 -9 -2 -21 4 -27 15 -15 44 -1 40 19 -4 23 -36 29 -44
8z"/>
<path id="parte1" d="M7305 4550 c-4 -6 -3 -16 3 -22 6 -6 12 -6 17 2 4 6 3 16 -3 22 -6 6
-12 6 -17 -2z"/>
<path id="parte1" d="M8290 4539 c0 -11 5 -17 10 -14 6 3 10 13 10 21 0 8 -4 14 -10 14 -5
0 -10 -9 -10 -21z"/>
<path id="parte1" d="M7570 4350 c0 -5 11 -10 25 -10 14 0 25 5 25 10 0 6 -11 10 -25 10
-14 0 -25 -4 -25 -10z"/>
<path id="parte1" d="M8040 4350 c0 -5 9 -10 20 -10 11 0 20 5 20 10 0 6 -9 10 -20 10 -11
0 -20 -4 -20 -10z"/>
<path id="parte1" d="M6900 4315 c0 -8 5 -15 10 -15 6 0 10 7 10 15 0 8 -4 15 -10 15 -5 0
-10 -7 -10 -15z"/>
<path id="parte1" d="M8364 4247 c-8 -21 2 -35 16 -21 5 5 6 15 0 24 -8 12 -10 12 -16 -3z"/>
<path id="parte1" d="M7196 4228 c-9 -12 -16 -26 -16 -31 0 -13 29 12 41 35 14 26 -6 23
-25 -4z"/>
<path id="parte1" d="M6875 4100 c-4 -6 -3 -16 3 -22 6 -6 12 -6 17 2 4 6 3 16 -3 22 -6 6
-12 6 -17 -2z"/>
<path id="parte1" d="M8445 4000 c9 -29 24 -50 36 -50 15 0 10 13 -17 45 -25 29 -25 29
-19 5z"/>
<path id="parte1" d="M6850 3891 c0 -12 5 -21 10 -21 6 0 10 6 10 14 0 8 -4 18 -10 21 -5
3 -10 -3 -10 -14z"/>
<path id="parte1" d="M7031 3821 c-1 -27 2 -32 11 -23 8 8 8 17 0 34 -10 22 -11 21 -11
-11z"/>
<path id="parte1" d="M6830 3770 c0 -5 9 -10 20 -10 11 0 20 5 20 10 0 6 -9 10 -20 10 -11
0 -20 -4 -20 -10z"/>
<path id="parte1" d="M6825 3620 c-4 -6 -3 -16 3 -22 6 -6 12 -6 17 2 4 6 3 16 -3 22 -6 6
-12 6 -17 -2z"/>
<path id="parte1" d="M8577 3554 c-8 -9 11 -44 24 -44 6 0 9 10 7 22 -3 22 -19 34 -31 22z"/>
<path id="parte1" d="M8426 3453 c-11 -11 -6 -23 8 -23 8 0 17 4 20 9 7 10 -19 23 -28 14z"/>
<path id="parte1" d="M7180 3420 c0 -5 20 -10 45 -10 25 0 45 5 45 10 0 6 -20 10 -45 10
-25 0 -45 -4 -45 -10z"/>
<path id="parte1" d="M7335 3420 c-3 -5 3 -10 14 -10 12 0 21 5 21 10 0 6 -6 10 -14 10 -8
0 -18 -4 -21 -10z"/>
<path id="parte1" d="M8068 3418 c26 -6 58 -6 85 0 38 9 34 10 -43 10 -77 0 -81 -1 -42
-10z"/>
<path id="parte1" d="M7833 3393 c15 -2 39 -2 55 0 15 2 2 4 -28 4 -30 0 -43 -2 -27 -4z"/>
<path id="parte1" d="M6800 3346 c0 -14 5 -28 10 -31 6 -4 10 7 10 24 0 17 -4 31 -10 31
-5 0 -10 -11 -10 -24z"/>
<path id="parte1" d="M8245 3345 l-110 -24 75 5 c86 6 160 22 160 35 0 11 7 12 -125 -16z"/>
<path id="parte1" d="M7085 3340 c3 -5 13 -10 21 -10 8 0 14 5 14 10 0 6 -9 10 -21 10 -11
0 -17 -4 -14 -10z"/>
<path id="parte1" d="M7160 3320 c0 -5 9 -10 21 -10 11 0 17 5 14 10 -3 6 -13 10 -21 10
-8 0 -14 -4 -14 -10z"/>
<path id="parte1" d="M7960 3306 c0 -15 21 -26 51 -26 25 0 24 16 0 30 -27 14 -51 13 -51
-4z"/>
<path id="parte1" d="M7416 3299 c-66 -11 -84 -29 -28 -29 56 0 143 20 136 31 -6 10 -39
10 -108 -2z"/>
<path id="parte1" d="M7653 3293 c-18 -7 -16 -38 2 -53 19 -16 40 -8 40 15 0 11 11 25 25
32 24 12 24 13 -15 12 -22 0 -46 -3 -52 -6z"/>
<path id="parte1" d="M8221 3279 c-86 -15 -74 -22 24 -16 108 6 175 26 85 25 -30 0 -79 -4
-109 -9z"/>
<path id="parte1" d="M7988 3243 c12 -2 30 -2 40 0 9 3 -1 5 -23 4 -22 0 -30 -2 -17 -4z"/>
<path id="parte1" d="M6922 3218 c-18 -18 -15 -40 6 -36 9 2 18 13 20 26 4 24 -7 29 -26
10z"/>
<path id="parte1" d="M7035 3220 c-3 -5 3 -10 15 -10 12 0 18 5 15 10 -3 6 -10 10 -15 10
-5 0 -12 -4 -15 -10z"/>
<path id="parte1" d="M7185 3220 c-3 -5 3 -10 14 -10 12 0 21 5 21 10 0 6 -6 10 -14 10 -8
0 -18 -4 -21 -10z"/>
<path id="parte1" d="M7335 3220 c-3 -5 3 -10 14 -10 12 0 21 5 21 10 0 6 -6 10 -14 10 -8
0 -18 -4 -21 -10z"/>
<path id="parte1" d="M7490 3190 c0 -5 7 -10 15 -10 8 0 15 5 15 10 0 6 -7 10 -15 10 -8 0
-15 -4 -15 -10z"/>
<path id="parte1" d="M6060 5383 c-766 -434 -1005 -613 -1354 -1018 -66 -77 -155 -177
-197 -223 -100 -109 -124 -157 -124 -244 l0 -67 -40 -3 c-40 -3 -40 -3 -38
-43 6 -95 187 -320 336 -418 322 -212 827 -370 1187 -371 166 -1 250 18 301
64 64 61 26 83 -177 105 -232 24 -247 29 -124 36 58 4 173 7 256 8 143 1 152
2 171 24 44 48 60 99 102 327 17 91 47 244 66 340 140 694 180 1254 101 1427
-21 44 -33 57 -68 73 -46 20 -203 51 -253 49 -17 0 -79 -29 -145 -66z m368 -9
c57 -39 82 -137 89 -344 8 -250 -25 -557 -103 -970 -46 -241 -127 -612 -157
-720 l-23 -85 -314 -7 -313 -7 -121 71 c-171 100 -404 212 -512 247 -91 30
-345 151 -457 218 -91 55 -108 113 -61 207 30 60 45 79 270 341 181 212 282
313 447 448 330 271 743 512 1012 592 96 29 209 33 243 9z m-1983 -1639 c22
-18 112 -73 200 -122 88 -50 214 -125 280 -168 236 -153 410 -229 615 -269 47
-9 182 -25 300 -35 198 -18 270 -32 270 -52 0 -4 -12 -17 -26 -28 -117 -92
-478 -59 -861 78 -445 159 -771 386 -859 597 -27 65 0 64 81 -1z m260 -97 c29
-13 33 -28 7 -28 -19 0 -42 18 -42 32 0 11 4 10 35 -4z m239 -105 c115 -29
527 -243 580 -302 19 -21 19 -21 -11 -21 -91 0 -378 132 -584 268 -158 105
-189 134 -103 96 31 -14 85 -32 118 -41z"/>
<path id="parte1" d="M6465 5199 c-5 -7 -12 -110 -16 -228 -4 -119 -10 -238 -14 -264 -10
-63 1 -60 15 6 43 195 54 550 15 486z"/>
<path id="parte1" d="M5862 5158 c-14 -14 -16 -42 -2 -33 14 9 32 45 22 45 -4 0 -13 -5
-20 -12z"/>
<path id="parte1" d="M5356 4849 c-15 -12 -25 -23 -22 -26 7 -7 66 26 66 37 0 16 -15 12
-44 -11z"/>
<path id="parte1" d="M6382 4780 c-6 -19 -27 -118 -47 -219 -20 -102 -56 -275 -81 -385
-25 -111 -63 -298 -85 -417 -21 -119 -41 -225 -45 -235 -6 -17 -5 -17 9 2 20
27 38 97 86 349 23 116 65 319 95 452 30 133 62 289 71 347 18 115 17 165 -3
106z"/>
<path id="parte1" d="M5130 4676 c-6 -9 -10 -21 -8 -28 3 -8 9 -4 17 10 15 28 9 39 -9 18z"/>
<path id="parte1" d="M4897 4462 c-20 -21 -37 -46 -37 -56 0 -18 1 -18 18 -3 17 16 67 97
60 97 -2 0 -21 -17 -41 -38z"/>
<path id="parte1" d="M5665 4450 c-4 -6 -3 -16 3 -22 6 -6 12 -6 17 2 4 6 3 16 -3 22 -6 6
-12 6 -17 -2z"/>
<path id="parte1" d="M5582 4298 c-18 -18 -15 -28 8 -28 13 0 20 7 20 20 0 23 -10 26 -28
8z"/>
<path id="parte1" d="M4740 4231 c-12 -24 -13 -41 -2 -41 8 0 32 43 32 55 0 13 -21 3 -30
-14z"/>
<path id="parte1" d="M6315 4138 c-19 -86 -65 -371 -60 -377 5 -5 24 69 50 198 25 122 41
251 32 251 -3 0 -13 -33 -22 -72z"/>
<path id="parte1" d="M5495 4000 c-3 -5 3 -10 14 -10 12 0 21 5 21 10 0 6 -6 10 -14 10 -8
0 -18 -4 -21 -10z"/>
<path id="parte1" d="M5370 3752 c0 -14 11 -21 26 -15 8 3 11 9 8 14 -7 11 -34 12 -34 1z"/>
<path id="parte1" d="M6218 3643 c-6 -16 -12 -53 -14 -83 l-4 -55 14 44 c29 87 32 163 4
94z"/>
<path id="parte1" d="M5340 3629 c0 -11 5 -17 10 -14 6 3 10 13 10 21 0 8 -4 14 -10 14 -5
0 -10 -9 -10 -21z"/>
<path id="parte1" d="M6170 3461 c0 -12 5 -21 10 -21 6 0 10 6 10 14 0 8 -4 18 -10 21 -5
3 -10 -3 -10 -14z"/>
<path id="parte1" d="M6087 3362 c-19 -21 -22 -32 -7 -32 10 0 34 39 27 46 -2 2 -11 -4
-20 -14z"/>
<path id="parte1" d="M10013 5416 c7 -43 42 -98 133 -211 146 -182 238 -351 344 -640 35
-93 92 -244 128 -335 119 -304 130 -343 162 -584 27 -204 53 -266 114 -266 11
0 9 10 -11 45 -33 60 -49 123 -68 275 -21 165 -48 277 -89 369 -19 42 -39 94
-46 116 -7 22 -32 83 -55 135 -23 52 -52 127 -65 165 -91 280 -234 549 -407
771 -81 102 -95 127 -87 147 3 9 -4 22 -18 31 -33 24 -41 20 -35 -18z"/>
<path id="parte1" d="M8740 5404 c-130 -11 -128 -10 -139 -63 -13 -63 -4 -96 63 -213 73
-129 140 -279 193 -428 56 -159 62 -183 122 -545 56 -334 76 -512 91 -815 11
-202 12 -205 38 -233 65 -69 153 -82 542 -81 274 0 333 3 455 22 351 55 556
141 587 245 23 75 15 247 -16 372 -69 269 -258 773 -363 965 -84 153 -188 311
-286 435 -85 109 -217 234 -276 265 -42 21 -156 45 -291 61 -93 11 -631 21
-720 13z m638 -29 c130 -18 206 -38 307 -77 105 -41 169 -82 230 -149 101
-111 382 -538 429 -652 41 -100 255 -704 281 -793 38 -132 46 -214 33 -342
l-12 -114 -55 -27 c-103 -52 -246 -91 -511 -141 -262 -50 -504 -51 -778 -4
-168 29 -173 37 -183 314 -9 221 -16 282 -55 490 -30 160 -75 433 -99 615 -18
125 -21 137 -98 305 -43 96 -110 235 -149 307 -64 122 -69 137 -66 185 l3 53
70 7 c39 4 113 14 165 21 127 19 361 20 488 2z"/>
<path id="parte1" d="M8909 5203 c14 -27 71 -78 71 -65 0 6 -14 27 -31 47 -33 37 -57 48
-40 18z"/>
<path id="parte1" d="M9000 5085 c26 -37 53 -65 62 -65 19 0 5 20 -34 51 -25 19 -37 25
-28 14z"/>
<path id="parte1" d="M8940 4945 c0 -9 5 -15 11 -13 6 2 11 8 11 13 0 5 -5 11 -11 13 -6 2
-11 -4 -11 -13z"/>
<path id="parte1" d="M8995 4780 c-9 -15 14 -40 31 -33 22 8 18 43 -5 43 -11 0 -23 -5 -26
-10z"/>
<path id="parte1" d="M9070 4589 c0 -11 5 -17 10 -14 6 3 10 13 10 21 0 8 -4 14 -10 14 -5
0 -10 -9 -10 -21z"/>
<path id="parte1" d="M9120 4415 c0 -8 5 -15 10 -15 6 0 10 7 10 15 0 8 -4 15 -10 15 -5 0
-10 -7 -10 -15z"/>
<path id="parte1" d="M9965 4350 c3 -5 17 -10 31 -10 13 0 24 5 24 10 0 6 -14 10 -31 10
-17 0 -28 -4 -24 -10z"/>
<path id="parte1" d="M9172 4213 c2 -10 13 -19 26 -21 24 -4 29 7 10 26 -18 18 -40 15 -36
-5z"/>
<path id="parte1" d="M9400 3946 c0 -14 5 -26 10 -26 6 0 10 9 10 19 0 11 -4 23 -10 26 -6
4 -10 -5 -10 -19z"/>
<path id="parte1" d="M9232 3878 c-15 -15 -16 -58 -2 -58 16 0 35 49 24 60 -7 7 -14 6 -22
-2z"/>
<path id="parte1" d="M9257 3703 c-9 -9 -9 -43 1 -43 11 0 32 37 25 44 -8 8 -18 8 -26 -1z"/>
<path id="parte1" d="M9383 3620 c0 -41 2 -58 4 -37 2 20 2 54 0 75 -2 20 -4 3 -4 -38z"/>
<path id="parte1" d="M9250 3540 c0 -33 14 -40 28 -12 12 21 5 42 -14 42 -9 0 -14 -11 -14
-30z"/>
<path id="parte1" d="M10370 3414 c-120 -30 -292 -56 -426 -63 -141 -8 -170 -16 -211 -54
-22 -20 -27 -20 -155 -9 -73 7 -144 12 -158 12 l-25 -1 28 -24 c26 -23 57 -30
112 -27 11 1 155 8 320 17 165 9 318 20 340 24 l40 8 -35 6 c-19 4 -64 8 -100
10 l-65 2 130 28 c122 26 285 74 285 83 0 6 -19 3 -80 -12z m-450 -94 c0 -5
-9 -10 -21 -10 -11 0 -17 5 -14 10 3 6 13 10 21 10 8 0 14 -4 14 -10z"/>
<path id="parte1" d="M9255 3401 c-7 -12 12 -24 25 -16 11 7 4 25 -10 25 -5 0 -11 -4 -15
-9z"/>
<path id="parte1" d="M9465 3361 c-8 -14 7 -20 59 -27 60 -9 61 10 2 25 -54 13 -53 13 -61
2z"/>
<path id="parte1" d="M10350 3333 c-31 -15 -32 -17 -13 -20 20 -4 83 21 83 32 0 10 -36 4
-70 -12z"/>
<path id="parte1" d="M9270 3280 c0 -11 5 -20 10 -20 6 0 10 9 10 20 0 11 -4 20 -10 20 -5
0 -10 -9 -10 -20z"/>
<path id="parte1" d="M9350 3240 c0 -5 9 -10 20 -10 11 0 20 5 20 10 0 6 -9 10 -20 10 -11
0 -20 -4 -20 -10z"/>
<path id="parte1" d="M10040 3225 c-10 -12 -9 -15 8 -15 11 0 25 7 32 15 10 12 9 15 -8 15
-11 0 -25 -7 -32 -15z"/>
<path id="parte1" d="M9745 3220 c-4 -6 5 -10 19 -10 14 0 26 5 26 10 0 6 -9 10 -19 10
-11 0 -23 -4 -26 -10z"/>
<path id="parte1" d="M9870 3220 c-11 -7 -7 -10 18 -10 20 0 31 4 27 10 -8 13 -26 13 -45
0z"/>
<path id="parte1" d="M9430 3190 c0 -5 6 -10 14 -10 8 0 18 5 21 10 3 6 -3 10 -14 10 -12
0 -21 -4 -21 -10z"/>
<path id="parte1" d="M9530 3190 c0 -5 6 -10 14 -10 8 0 18 5 21 10 3 6 -3 10 -14 10 -12
0 -21 -4 -21 -10z"/>
<path id="parte1" d="M10270 3193 c-122 -11 -227 -26 -240 -34 -22 -13 15 -11 170 7 167
19 226 42 70 27z"/>
<path id="parte1" d="M9695 3170 c3 -5 46 -10 95 -10 49 0 92 5 95 10 4 6 -30 10 -95 10
-65 0 -99 -4 -95 -10z"/>
<path id="parte1" d="M2366 5289 c-88 -10 -112 -29 -35 -29 75 0 232 20 244 31 11 11 -109
10 -209 -2z"/>
<path id="parte1" d="M3077 5163 c-11 -10 -8 -43 3 -43 9 0 30 31 30 44 0 8 -25 7 -33 -1z"/>
<path id="parte1" d="M3006 5143 c-11 -11 -6 -23 8 -23 8 0 17 4 20 9 7 10 -19 23 -28 14z"/>
<path id="parte1" d="M2540 5119 c0 -11 5 -17 10 -14 6 3 10 13 10 21 0 8 -4 14 -10 14 -5
0 -10 -9 -10 -21z"/>
<path id="parte1" d="M4134 3636 l148 -143 -20 -39 c-47 -91 -392 -394 -450 -394 -22 0
-124 103 -215 219 l-85 108 31 59 c61 117 240 264 321 264 52 0 79 31 38 44
-28 9 -141 -29 -196 -65 -52 -35 -174 -169 -213 -236 -23 -40 -23 -43 -8 -72
22 -43 183 -256 236 -313 45 -48 82 -64 122 -54 54 13 392 321 452 411 l36 54
-26 39 c-40 61 -278 263 -308 261 -7 0 55 -64 137 -143z"/>
<path id="parte1" d="M4380 3312 c0 -13 27 -33 93 -72 32 -19 69 -47 83 -61 l26 -27 -56
-68 c-52 -64 -71 -98 -162 -290 -60 -126 -139 -194 -193 -165 -11 6 -38 41
-59 78 -39 66 -39 67 -26 116 19 73 57 144 131 249 76 106 133 197 133 212 0
15 -75 -59 -134 -134 -98 -122 -144 -198 -156 -256 -27 -130 39 -308 123 -329
68 -18 137 55 236 250 34 66 93 162 131 214 39 51 70 104 70 116 0 13 -13 36
-29 51 -51 50 -211 137 -211 116z"/>
<path id="parte1" d="M3674 3267 c-8 -21 2 -35 16 -21 5 5 6 15 0 24 -8 12 -10 12 -16 -3z"/>
<path id="parte1" d="M11135 3177 c-96 -39 -162 -76 -193 -110 -34 -36 -31 -90 18 -263 23
-82 45 -184 50 -227 8 -83 19 -100 71 -112 102 -23 335 118 409 249 40 68 39
109 -4 194 -45 90 -152 249 -176 262 -47 25 -41 8 43 -117 93 -138 120 -194
124 -257 6 -69 -19 -110 -94 -162 -72 -50 -223 -114 -268 -114 -42 0 -51 12
-59 81 -3 30 -24 120 -47 200 -44 158 -50 220 -24 249 10 11 69 47 131 81 63
34 114 66 114 70 0 13 -9 11 -95 -24z"/>
<path id="parte1" d="M4232 3011 c-24 -42 -26 -51 -14 -51 8 0 52 71 52 84 0 18 -19 1 -38
-33z"/>
<path id="parte1" d="M10604 3015 c-97 -17 -230 -61 -284 -93 -42 -25 -43 -27 -20 -30 14
-2 87 20 162 47 178 65 244 79 282 60 63 -30 81 -85 120 -349 27 -187 26 -192
-41 -250 -96 -85 -520 -240 -654 -240 -51 0 -56 14 -31 92 31 96 41 155 57
342 15 174 22 236 32 269 4 16 2 17 -17 5 -31 -19 -48 -92 -65 -283 -18 -199
-30 -271 -56 -340 -36 -95 -23 -117 71 -116 167 0 511 115 671 223 25 17 60
52 78 78 l32 47 -15 74 c-19 99 -34 198 -42 289 -7 83 -24 133 -56 167 -18 20
-31 23 -87 22 -36 0 -98 -7 -137 -14z"/>
<path id="parte1" d="M4601 2977 c-63 -49 -105 -121 -158 -272 -52 -151 -66 -271 -37 -328
17 -33 99 -139 163 -212 172 -195 408 -445 421 -445 43 0 163 46 199 76 84 72
100 165 108 632 l6 363 -34 35 c-73 76 -282 152 -464 169 -38 3 -90 8 -115 11
-39 4 -50 0 -89 -29z m384 -56 c33 -13 86 -30 118 -39 42 -11 72 -27 108 -59
l49 -45 0 -256 c0 -401 -20 -561 -82 -653 -57 -85 -133 -116 -203 -84 -22 11
-73 61 -133 129 -52 61 -145 166 -205 233 -129 144 -195 228 -204 263 -19 72
86 409 160 514 l20 28 156 -4 c133 -4 165 -8 216 -27z"/>
<path id="parte1" d="M4592 2763 c-35 -96 -36 -126 -3 -58 34 69 48 115 33 115 -5 0 -19
-26 -30 -57z"/>
<path id="parte1" d="M5070 2760 c0 -5 7 -10 15 -10 8 0 15 5 15 10 0 6 -7 10 -15 10 -8 0
-15 -4 -15 -10z"/>
<path id="parte1" d="M4501 2460 c-13 -39 -14 -50 -3 -50 15 0 33 50 24 67 -7 12 -12 9
-21 -17z"/>
<path id="parte1" d="M4584 2311 c22 -22 42 -38 45 -36 6 7 -39 54 -64 67 -11 6 -2 -8 19
-31z"/>
<path id="parte1" d="M4724 2163 c8 -16 21 -37 30 -48 23 -31 20 1 -5 41 -25 41 -46 46
-25 7z"/>
<path id="parte1" d="M4810 2047 c0 -5 8 -22 17 -40 14 -26 18 -29 21 -13 2 10 -5 28 -17
39 -12 12 -21 18 -21 14z"/>
<path id="parte1" d="M4973 1879 c12 -7 27 -7 45 0 25 9 24 9 -18 10 -36 0 -41 -2 -27 -10z"/>
<path id="parte1" d="M8478 2844 c-55 -58 -62 -84 -43 -165 53 -236 -18 -535 -209 -878
-110 -198 -114 -217 -48 -250 67 -33 142 -46 272 -45 131 1 203 12 308 46 l63
20 40 86 c183 395 298 794 302 1052 2 100 -6 135 -34 150 -12 7 -133 13 -317
17 l-297 5 -37 -38z m642 -101 c0 -49 -5 -119 -10 -158 -38 -260 -175 -683
-285 -881 -65 -116 -114 -140 -306 -151 -102 -6 -241 9 -296 32 -47 20 -43 42
26 154 81 133 116 205 157 327 64 191 85 315 92 544 l7 205 215 5 c118 3 257
7 308 8 l92 2 0 -87z"/>
<path id="parte1" d="M8566 2495 c3 -22 12 -46 20 -54 33 -35 27 26 -7 69 l-20 25 7 -40z"/>
<path id="parte1" d="M8490 2070 c0 -11 5 -20 10 -20 6 0 10 9 10 20 0 11 -4 20 -10 20 -5
0 -10 -9 -10 -20z"/>
<path id="parte1" d="M8410 1895 c0 -9 5 -15 11 -13 6 2 11 8 11 13 0 5 -5 11 -11 13 -6 2
-11 -4 -11 -13z"/>
<path id="parte1" d="M8355 1781 c-19 -38 -19 -47 1 -31 23 20 36 48 24 55 -5 3 -16 -8
-25 -24z"/>
<path id="parte1" d="M8623 1671 c-51 -18 -88 -40 -79 -48 5 -5 137 46 151 58 14 14 -14
10 -72 -10z"/>
<path id="parte1" d="M8430 1630 c0 -5 11 -10 25 -10 14 0 25 5 25 10 0 6 -11 10 -25 10
-14 0 -25 -4 -25 -10z"/>
<path id="parte1" d="M6880 2844 c-108 -19 -185 -41 -246 -69 l-72 -33 -6 -103 c-6 -103
-34 -763 -37 -890 -2 -56 2 -74 24 -112 50 -85 231 -177 317 -162 45 9 143 60
250 133 83 56 85 58 141 165 115 220 199 554 199 787 l0 115 -66 73 c-36 39
-72 72 -80 72 -18 0 -18 -9 4 -41 70 -104 83 -127 92 -159 22 -80 5 -230 -55
-465 -60 -234 -145 -397 -270 -514 -88 -82 -151 -113 -242 -119 -64 -4 -79 -1
-127 22 -76 37 -112 81 -122 148 -15 103 -2 647 22 950 l6 77 52 22 c80 34
108 39 304 48 186 8 226 17 181 42 -24 13 -216 22 -269 13z"/>
<path id="parte1" d="M7895 2839 c-217 -20 -415 -72 -415 -109 0 -8 7 -60 15 -115 30 -204
21 -365 -44 -800 l-28 -190 66 -68 66 -69 96 4 c104 5 162 25 270 95 51 33 62
48 144 192 118 206 236 440 262 521 12 36 31 111 44 168 23 101 23 103 5 170
-30 114 -73 198 -92 179 -3 -3 4 -40 16 -83 21 -74 29 -213 16 -275 -35 -165
-82 -297 -157 -438 -151 -283 -364 -502 -496 -511 -67 -5 -83 0 -123 40 l-40
40 0 125 c0 138 23 373 46 472 21 92 21 433 -1 445 -25 14 -18 64 11 87 44 34
117 50 308 66 183 16 316 32 325 40 21 21 -135 29 -294 14z"/>
<path id="parte1" d="M5735 2828 c-166 -6 -280 -14 -295 -21 -50 -24 -62 -68 -56 -207 4
-104 12 -156 50 -310 26 -102 60 -267 76 -366 34 -201 50 -264 87 -339 32 -64
49 -83 95 -106 98 -50 224 -2 354 134 116 120 144 168 38 65 -128 -126 -159
-146 -266 -179 l-57 -17 -45 28 c-77 49 -129 191 -161 437 -8 67 -35 200 -59
295 -49 192 -69 328 -64 432 3 68 4 70 33 79 81 24 133 28 433 36 308 8 367
14 330 37 -19 12 -186 13 -493 2z"/>
<path id="parte1" d="M6276 2811 c-3 -5 8 -28 25 -51 46 -64 59 -111 59 -220 0 -154 -37
-332 -129 -620 -22 -69 -33 -116 -25 -105 23 30 141 273 158 327 44 136 59
209 63 324 6 139 -7 200 -58 277 -31 47 -83 85 -93 68z"/>
<path id="parte1" d="M6686 2723 c-11 -11 -6 -23 8 -23 8 0 17 4 20 9 7 10 -19 23 -28 14z"/>
<path id="parte1" d="M6067 2709 c8 -8 16 -8 30 0 16 9 14 10 -11 11 -22 0 -27 -3 -19 -11z"/>
<path id="parte1" d="M5830 2690 c0 -5 25 -10 56 -10 34 0 53 4 49 10 -3 6 -28 10 -56 10
-27 0 -49 -4 -49 -10z"/>
<path id="parte1" d="M5632 2678 c3 -7 22 -14 44 -16 37 -2 38 -1 20 13 -24 18 -69 20 -64
3z"/>
<path id="parte1" d="M6270 2585 c0 -14 5 -25 10 -25 6 0 10 11 10 25 0 14 -4 25 -10 25
-5 0 -10 -11 -10 -25z"/>
<path id="parte1" d="M5510 2525 c0 -9 5 -15 11 -13 6 2 11 8 11 13 0 5 -5 11 -11 13 -6 2
-11 -4 -11 -13z"/>
<path id="parte1" d="M6651 2411 c-14 -107 -26 -378 -17 -370 7 6 32 222 41 362 9 124 -8
130 -24 8z"/>
<path id="parte1" d="M7618 2445 c-4 -16 -10 -66 -13 -110 -3 -44 -8 -105 -11 -135 -4 -38
-2 -52 5 -45 12 12 34 213 29 275 -3 42 -4 43 -10 15z"/>
<path id="parte1" d="M5567 2313 c-2 -4 -1 -18 4 -30 9 -25 39 -32 39 -10 0 17 -36 51 -43
40z"/>
<path id="parte1" d="M2504 2196 c-3 -7 4 -29 15 -47 23 -37 25 -48 12 -68 -14 -22 -50 5
-71 52 l-19 42 2 -85 c2 -83 2 -85 27 -85 23 -1 25 -4 22 -37 -3 -35 10 -58
22 -39 4 5 11 32 16 60 5 28 19 64 31 80 16 22 20 37 15 63 -11 61 -57 102
-72 64z"/>
<path id="parte1" d="M5620 2050 c0 -29 3 -51 6 -47 8 7 7 87 0 95 -3 3 -6 -19 -6 -48z"/>
<path id="parte1" d="M2605 1978 c-27 -59 -30 -98 -7 -106 8 -2 12 8 12 32 0 20 2 36 5 36
3 0 17 -12 31 -27 l25 -28 -4 40 c-3 22 -11 56 -20 75 l-15 35 -27 -57z"/>
<path id="parte1" d="M3990 1987 c0 -7 16 -32 35 -56 26 -33 35 -53 35 -82 0 -39 16 -63
51 -74 20 -7 19 -7 -5 -30 -15 -13 -26 -33 -26 -44 0 -22 20 -124 26 -130 6
-6 102 69 108 85 3 9 6 31 6 50 0 19 7 45 16 59 8 13 14 38 12 57 -2 27 -8 34
-28 36 -61 7 -184 78 -195 113 -7 20 -35 34 -35 16z m177 -159 c33 -16 42 -58
13 -58 -13 0 -80 60 -80 72 0 10 31 4 67 -14z m11 -105 c20 -39 22 -71 6 -77
-28 -11 -54 12 -54 48 0 18 3 36 7 39 12 13 32 7 41 -10z"/>
<path id="parte1" d="M2310 1970 c0 -11 5 -20 10 -20 6 0 10 9 10 20 0 11 -4 20 -10 20 -5
0 -10 -9 -10 -20z"/>
<path id="parte1" d="M2417 1964 c-12 -13 -8 -51 8 -64 12 -10 16 -9 21 3 6 18 -19 71 -29
61z"/>
<path id="parte1" d="M2980 1921 l45 -54 -33 6 c-106 22 -103 25 -35 -37 113 -103 136
-177 37 -122 -57 32 -57 32 -49 4 19 -63 84 -88 121 -47 10 12 38 31 62 41 49
22 51 45 4 40 -23 -2 -34 2 -42 17 -6 12 -19 21 -28 21 -29 0 -40 19 -36 58 4
29 -1 43 -19 62 -51 55 -69 62 -27 11z"/>
<path id="parte1" d="M4460 1935 c0 -41 27 -95 67 -132 l36 -35 -48 7 c-63 10 -58 -14 6
-30 40 -10 44 -14 41 -39 -3 -28 12 -56 30 -56 13 0 1 83 -18 128 -7 19 -25
47 -38 63 -13 16 -27 43 -31 61 -12 57 -45 80 -45 33z"/>
<path id="parte1" d="M7561 1931 c-1 -24 2 -32 9 -25 7 7 7 19 1 35 -9 23 -10 22 -10 -10z"/>
<path id="parte1" d="M2783 1932 c-10 -6 -9 -13 3 -31 15 -21 17 -21 29 -5 7 10 19 15 28
11 20 -8 29 3 16 20 -12 14 -57 17 -76 5z"/>
<path id="parte1" d="M2733 1908 c-23 -30 -24 -41 -2 -21 12 12 20 25 17 28 -3 3 -10 0
-15 -7z"/>
<path id="parte1" d="M3162 1890 l26 -33 -21 -29 c-22 -30 -20 -42 7 -32 39 15 29 91 -15
115 -21 11 -21 10 3 -21z"/>
<path id="parte1" d="M4351 1906 c-10 -11 -10 -23 0 -56 12 -39 11 -42 -18 -73 -40 -42
-63 -88 -63 -127 0 -16 -9 -39 -19 -49 -19 -19 -19 -21 -2 -43 38 -50 36 -94
-5 -84 -25 7 -54 -24 -54 -57 0 -16 2 -16 30 4 35 27 57 15 62 -34 l4 -32 12
28 c14 34 41 35 71 3 24 -25 24 -30 5 -125 -9 -46 12 -38 50 18 l28 42 -56 59
c-81 85 -130 199 -92 213 12 5 13 13 6 36 -6 23 -5 31 4 31 18 0 35 -40 60
-139 11 -47 26 -86 32 -88 7 -2 9 8 6 27 -2 16 -1 30 3 30 13 0 51 -23 78 -48
37 -35 34 -15 -4 24 l-32 33 31 49 c18 26 35 63 38 80 6 28 2 37 -30 67 -26
24 -47 35 -68 35 -28 0 -30 -2 -25 -28 3 -15 22 -54 41 -87 26 -42 33 -62 25
-69 -8 -8 -26 5 -63 46 -29 31 -58 68 -65 82 -12 22 -11 28 12 56 33 38 50 93
45 145 -3 43 -25 58 -47 31z m149 -263 c0 -22 -30 -15 -39 10 -5 12 -6 26 -4
30 7 11 43 -23 43 -40z"/>
<path id="parte1" d="M3070 1892 c0 -28 21 -73 31 -67 9 6 -6 64 -21 79 -7 7 -10 3 -10
-12z"/>
<path id="parte1" d="M2644 1823 c-9 -29 -22 -48 -31 -47 -4 1 -19 5 -32 9 l-24 7 21 -27
c12 -15 22 -34 22 -41 0 -20 6 -18 70 21 78 48 87 59 58 79 -31 22 -77 21 -84
-1z m41 -43 c-5 -8 -11 -8 -17 -2 -6 6 -7 16 -3 22 5 8 11 8 17 2 6 -6 7 -16
3 -22z"/>
<path id="parte1" d="M2830 1768 c10 -52 4 -67 -29 -80 -14 -6 -21 -12 -14 -15 35 -13 123
69 123 115 0 24 -1 25 -14 7 -13 -18 -15 -18 -39 -2 -15 9 -28 17 -30 17 -3 0
-1 -19 3 -42z"/>
<path id="parte1" d="M5667 1803 c-3 -5 -2 -15 2 -22 7 -10 10 -10 16 -1 4 6 3 16 -3 22
-5 5 -12 6 -15 1z"/>
<path id="parte1" d="M7530 1745 c0 -8 5 -15 10 -15 6 0 10 7 10 15 0 8 -4 15 -10 15 -5 0
-10 -7 -10 -15z"/>
<path id="parte1" d="M2413 1708 c-19 -25 -24 -38 -14 -38 11 0 35 39 28 46 -2 3 -9 -1
-14 -8z"/>
<path id="parte1" d="M4646 1683 c9 -38 23 -63 35 -63 14 0 31 -49 24 -71 -4 -11 -14 -19
-24 -19 -21 0 -51 30 -51 52 0 9 -6 20 -13 27 -16 13 -37 -4 -37 -30 0 -10
-12 -26 -27 -37 -24 -18 -26 -23 -17 -53 5 -19 17 -35 26 -37 12 -2 15 5 14
35 -1 33 2 38 22 41 35 5 72 -34 72 -75 0 -22 5 -33 14 -33 15 0 26 21 26 52
0 11 12 42 27 68 l27 49 -46 58 c-52 66 -83 82 -72 36z"/>
<path id="parte1" d="M9880 1671 c0 -26 17 -36 35 -21 18 15 8 40 -16 40 -12 0 -19 -7 -19
-19z"/>
<path id="parte1" d="M10010 1680 c0 -5 9 -10 21 -10 11 0 17 5 14 10 -3 6 -13 10 -21 10
-8 0 -14 -4 -14 -10z"/>
<path id="parte1" d="M5690 1640 c0 -11 5 -20 10 -20 6 0 10 9 10 20 0 11 -4 20 -10 20 -5
0 -10 -9 -10 -20z"/>
<path id="parte1" d="M2880 1592 c0 -72 -18 -96 -50 -67 -11 10 -20 24 -20 32 0 7 -4 13
-10 13 -5 0 -10 -18 -10 -40 0 -33 3 -40 19 -40 37 0 70 19 86 50 18 35 17
101 -2 108 -10 3 -13 -13 -13 -56z"/>
<path id="parte1" d="M6910 1630 c0 -5 7 -10 15 -10 8 0 15 5 15 10 0 6 -7 10 -15 10 -8 0
-15 -4 -15 -10z"/>
<path id="parte1" d="M7510 1632 c0 -5 9 -17 20 -27 20 -18 20 -17 20 8 0 20 -5 27 -20 27
-11 0 -20 -4 -20 -8z"/>
<path id="parte1" d="M2954 1597 c18 -27 58 -57 76 -57 17 0 6 13 -45 49 -44 32 -46 32
-31 8z"/>
<path id="parte1" d="M2210 1599 c0 -20 21 -49 35 -49 21 0 19 24 -3 43 -21 20 -32 22 -32
6z"/>
<path id="parte1" d="M4155 1568 c-4 -10 -4 -26 0 -35 8 -17 8 -17 12 0 3 9 3 25 0 35 -4
16 -4 16 -12 0z"/>
<path id="parte1" d="M2971 1506 c2 -2 21 -18 42 -34 l38 -30 -31 -35 c-41 -47 -38 -59 5
-17 19 19 35 42 35 52 0 10 -18 29 -40 43 -34 22 -62 33 -49 21z"/>
<path id="parte1" d="M4741 1476 c-14 -17 0 -61 24 -69 8 -4 43 -4 75 0 l60 6 -6 -31 c-12
-59 19 -119 56 -107 12 4 31 -5 55 -26 19 -17 39 -29 42 -25 4 4 2 24 -4 46
-12 48 -4 51 44 14 24 -18 33 -32 30 -45 -7 -25 5 -24 29 2 19 21 19 21 -11
45 -37 30 -91 41 -117 25 -26 -16 -42 -2 -73 64 -32 66 -46 78 -122 98 -75 20
-68 20 -82 3z m39 -30 c0 -8 -4 -18 -10 -21 -5 -3 -10 3 -10 14 0 12 5 21 10
21 6 0 10 -6 10 -14z"/>
<path id="parte1" d="M2802 1410 c-14 -19 -29 -29 -38 -26 -21 8 -17 -21 6 -44 36 -36 65
-2 58 70 l-3 32 -23 -32z"/>
<path id="parte1" d="M1511 1362 c-24 -17 -71 -38 -105 -48 -36 -10 -54 -19 -42 -22 37 -8
106 10 172 44 l66 36 50 -21 c55 -23 78 -26 78 -11 0 20 -53 42 -113 47 -56 4
-66 2 -106 -25z"/>
<path id="parte1" d="M10085 1380 c-3 -5 3 -10 14 -10 12 0 21 5 21 10 0 6 -6 10 -14 10
-8 0 -18 -4 -21 -10z"/>
<path id="parte1" d="M10210 1382 c0 -12 34 -42 48 -42 19 0 14 28 -7 40 -24 12 -41 13
-41 2z"/>
<path id="parte1" d="M4608 1340 c-7 -11 -18 -20 -25 -20 -8 0 -13 -14 -13 -36 0 -38 6
-38 48 -1 12 11 22 29 22 39 0 24 32 24 53 0 10 -10 17 -32 18 -48 l1 -29 14
33 c8 17 21 32 29 32 17 0 22 -19 29 -110 5 -60 34 -166 35 -129 1 9 9 27 19
39 18 22 22 22 67 11 26 -6 50 -10 52 -7 11 10 -8 75 -28 98 -19 22 -20 22
-10 1 6 -12 11 -33 11 -47 0 -30 -17 -33 -60 -11 -40 20 -61 63 -53 108 4 27
1 39 -15 55 -43 43 -172 58 -194 22z"/>
<path id="parte1" d="M1006 1331 c-3 -5 0 -11 8 -14 15 -6 26 1 26 15 0 11 -27 10 -34 -1z"/>
<path id="parte1" d="M4455 1290 c-15 -29 -15 -33 4 -64 27 -43 27 -44 -11 -61 -27 -11
-29 -14 -11 -15 32 0 73 54 73 98 -1 34 -18 72 -33 72 -4 0 -14 -14 -22 -30z"/>
<path id="parte1" d="M600 1290 c0 -23 10 -26 28 -8 18 18 15 28 -8 28 -13 0 -20 -7 -20
-20z"/>
<path id="parte1" d="M805 1300 c-3 -5 3 -10 14 -10 12 0 21 5 21 10 0 6 -6 10 -14 10 -8
0 -18 -4 -21 -10z"/>
<path id="parte1" d="M1170 1300 c0 -5 11 -10 25 -10 14 0 25 5 25 10 0 6 -11 10 -25 10
-14 0 -25 -4 -25 -10z"/>
<path id="parte1" d="M5526 1302 c-8 -13 55 -137 109 -217 78 -114 185 -242 309 -370 65
-66 144 -155 178 -198 33 -44 86 -97 118 -120 87 -62 121 -135 85 -183 -21
-28 -19 -34 13 -34 38 0 52 17 52 62 0 70 -59 158 -129 191 -33 16 -57 38 -84
79 -22 31 -117 138 -212 236 -148 155 -305 345 -294 357 10 9 137 26 239 32
l114 6 -44 21 -45 20 50 7 c29 4 -1 6 -70 3 -135 -5 -260 8 -306 31 -17 9 -37
31 -45 51 -14 33 -28 42 -38 26z m254 -152 c0 -5 -7 -10 -15 -10 -8 0 -15 5
-15 10 0 6 7 10 15 10 8 0 15 -4 15 -10z"/>
<path id="parte1" d="M10810 1300 c0 -5 9 -10 20 -10 11 0 20 5 20 10 0 6 -9 10 -20 10
-11 0 -20 -4 -20 -10z"/>
<path id="parte1" d="M10965 1300 c-11 -17 5 -30 36 -30 22 0 29 5 29 20 0 15 -7 20 -29
20 -17 0 -33 -4 -36 -10z"/>
<path id="parte1" d="M5853 1288 c-29 -5 -53 -13 -53 -17 0 -12 141 0 175 14 30 13 30 13
-20 13 -27 0 -74 -5 -102 -10z"/>
<path id="parte1" d="M5615 1280 c-16 -7 -11 -9 20 -9 29 -1 36 2 25 9 -17 11 -19 11 -45
0z"/>
<path id="parte1" d="M11145 1280 c-3 -5 3 -10 15 -10 12 0 18 5 15 10 -3 6 -10 10 -15 10
-5 0 -12 -4 -15 -10z"/>
<path id="parte1" d="M6141 1276 c8 -8 240 -44 419 -66 186 -22 242 -33 274 -56 11 -8 43
-14 71 -15 27 0 59 -5 70 -10 27 -13 -152 -3 -315 16 -149 18 -429 30 -387 16
15 -5 105 -14 200 -20 101 -7 193 -18 222 -27 39 -12 110 -17 315 -21 146 -3
262 -3 259 1 -3 3 -50 17 -105 31 -169 43 -197 65 -81 65 69 0 151 22 179 47
40 36 9 44 -52 13 -100 -51 -360 -49 -810 5 -199 24 -268 30 -259 21z"/>
<path id="parte1" d="M2797 1253 c-10 -9 -9 -63 1 -63 9 0 32 44 32 60 0 11 -23 13 -33 3z"/>
<path id="parte1" d="M4046 1244 c-9 -8 -16 -31 -16 -51 l0 -36 19 24 c19 26 41 64 41 73
0 12 -29 5 -44 -10z"/>
<path id="parte1" d="M10074 1224 c-6 -24 5 -75 28 -133 l11 -26 7 25 c14 44 11 115 -6
138 -20 29 -32 28 -40 -4z"/>
<path id="parte1" d="M10315 1231 c-7 -12 12 -24 25 -16 11 7 4 25 -10 25 -5 0 -11 -4 -15
-9z"/>
<path id="parte1" d="M4630 1190 c0 -11 5 -20 10 -20 6 0 10 9 10 20 0 11 -4 20 -10 20 -5
0 -10 -9 -10 -20z"/>
<path id="parte1" d="M7835 1200 c-60 -5 -197 -13 -302 -19 -106 -5 -199 -13 -205 -18 -23
-14 56 -20 168 -12 60 5 232 13 383 19 151 6 277 13 280 15 2 3 2 7 -1 10 -10
11 -212 14 -323 5z"/>
<path id="parte1" d="M9880 1200 c0 -5 9 -10 20 -10 11 0 20 5 20 10 0 6 -9 10 -20 10 -11
0 -20 -4 -20 -10z"/>
<path id="parte1" d="M9385 1187 c-28 -21 0 -32 30 -13 14 9 25 19 25 21 0 10 -37 4 -55
-8z"/>
<path id="parte1" d="M7225 1170 c-10 -11 -15 -23 -12 -27 11 -10 57 15 57 32 0 21 -24 19
-45 -5z"/>
<path id="parte1" d="M5022 1158 c-18 -18 -14 -44 12 -75 24 -27 24 -28 45 -9 38 34 22 96
-24 96 -12 0 -26 -5 -33 -12z m56 -46 c3 -16 -2 -22 -16 -22 -24 0 -35 23 -19
39 16 16 31 8 35 -17z"/>
<path id="parte1" d="M5327 1163 c-4 -3 -7 -14 -7 -24 0 -16 4 -17 31 -7 16 6 32 8 34 6 2
-2 -2 -26 -10 -53 -18 -59 -13 -68 14 -24 23 38 26 61 11 90 -10 19 -59 27
-73 12z"/>
<path id="parte1" d="M8240 1163 c0 -17 27 -23 103 -23 50 0 68 3 60 11 -14 14 -163 25
-163 12z"/>
<path id="parte1" d="M1000 1140 c0 -11 5 -20 10 -20 6 0 10 9 10 20 0 11 -4 20 -10 20 -5
0 -10 -9 -10 -20z"/>
<path id="parte1" d="M4532 1144 c-20 -13 -37 -54 -23 -54 4 0 13 11 19 25 6 14 18 25 26
25 20 0 68 -60 62 -76 -8 -21 8 -17 30 7 19 21 19 21 -11 45 -45 35 -79 45
-103 28z"/>
<path id="parte1" d="M8900 1149 c-91 -9 -235 -38 -227 -45 3 -3 40 -1 83 5 44 6 176 18
294 26 118 9 217 18 219 21 7 7 -278 2 -369 -7z"/>
<path id="parte1" d="M9690 1150 c0 -5 11 -10 25 -10 14 0 25 5 25 10 0 6 -11 10 -25 10
-14 0 -25 -4 -25 -10z"/>
<path id="parte1" d="M5202 1138 c-20 -20 -14 -65 10 -82 70 -49 118 21 51 74 -30 23 -44
25 -61 8z m56 -49 c4 -19 -19 -31 -38 -19 -18 11 -4 42 17 38 10 -2 19 -10 21
-19z"/>
<path id="parte1" d="M6115 1109 c81 -21 85 -22 85 -11 0 13 -72 32 -116 31 -35 -1 -32 -3
31 -20z"/>
<path id="parte1" d="M10731 1106 c-7 -8 -22 -57 -36 -111 -13 -53 -31 -108 -41 -122 -19
-30 -25 -124 -7 -130 16 -6 58 89 82 183 35 142 36 221 2 180z"/>
<path id="parte1" d="M3855 1100 c-3 -5 3 -10 14 -10 12 0 21 5 21 10 0 6 -6 10 -14 10 -8
0 -18 -4 -21 -10z"/>
<path id="parte1" d="M7962 1104 c8 -7 128 -7 136 0 3 4 -28 6 -68 6 -40 0 -71 -3 -68 -6z"/>
<path id="parte1" d="M4416 1082 c-3 -3 -6 -19 -6 -35 l0 -29 19 23 c24 29 43 17 60 -40
10 -36 32 -55 57 -50 23 4 33 -3 36 -23 4 -26 28 -37 28 -13 0 22 -138 160
-167 167 -12 3 -24 3 -27 0z"/>
<path id="parte1" d="M6365 1080 c-35 -5 -10 -7 80 -7 98 0 118 2 80 7 -58 10 -91 9 -160
0z"/>
<path id="parte1" d="M8176 1083 c-11 -11 -6 -23 8 -23 8 0 17 4 20 9 7 10 -19 23 -28 14z"/>
<path id="parte1" d="M8380 1080 c-35 -6 -25 -7 49 -8 52 -1 92 0 90 2 -10 8 -98 12 -139
6z"/>
<path id="parte1" d="M7338 1073 c12 -2 30 -2 40 0 9 3 -1 5 -23 4 -22 0 -30 -2 -17 -4z"/>
<path id="parte1" d="M7803 1073 c15 -2 37 -2 50 0 12 2 0 4 -28 4 -27 0 -38 -2 -22 -4z"/>
<path id="parte1" d="M4740 1044 c0 -31 23 -28 28 4 2 15 -2 22 -12 22 -11 0 -16 -9 -16
-26z"/>
<path id="parte1" d="M4930 1064 c0 -3 9 -17 20 -31 11 -14 20 -40 20 -58 0 -20 6 -35 15
-39 10 -4 15 -20 15 -53 0 -26 7 -57 15 -67 9 -12 12 -29 8 -44 -9 -39 20 -22
33 19 10 29 19 36 57 47 69 19 73 56 11 112 l-27 25 16 -25 c9 -13 17 -37 17
-52 0 -23 -4 -28 -23 -28 -30 0 -60 33 -87 95 -12 28 -29 58 -38 68 -19 21
-52 41 -52 31z"/>
<path id="parte1" d="M7540 1050 c8 -5 26 -10 40 -10 14 0 32 5 40 10 11 7 -1 10 -40 10
-39 0 -51 -3 -40 -10z"/>
<path id="parte1" d="M1965 1000 c-3 -5 3 -10 14 -10 12 0 21 5 21 10 0 6 -6 10 -14 10 -8
0 -18 -4 -21 -10z"/>
<path id="parte1" d="M4652 998 c-14 -14 -16 -42 -2 -33 14 9 32 45 22 45 -4 0 -13 -5 -20
-12z"/>
<path id="parte1" d="M4784 997 c-8 -21 2 -35 16 -21 5 5 6 15 0 24 -8 12 -10 12 -16 -3z"/>
<path id="parte1" d="M1880 966 c0 -8 4 -17 9 -20 10 -7 23 19 14 28 -11 11 -23 6 -23 -8z"/>
<path id="parte1" d="M5210 965 c-19 -22 -4 -64 25 -71 52 -13 78 19 51 61 -19 28 -57 33
-76 10z m68 -39 c3 -13 -1 -17 -14 -14 -11 2 -20 11 -22 22 -3 13 1 17 14 14
11 -2 20 -11 22 -22z"/>
<path id="parte1" d="M5349 954 c-14 -17 -5 -40 24 -58 34 -22 73 28 47 59 -16 20 -54 19
-71 -1z"/>
<path id="parte1" d="M5469 948 c0 -7 0 -39 1 -70 l1 -58 -64 0 c-62 0 -167 -25 -167 -40
0 -4 9 -19 20 -33 50 -63 8 -74 -87 -23 -35 19 -63 30 -63 26 0 -14 83 -80
108 -87 36 -9 69 15 93 66 23 50 47 81 62 81 5 0 7 -7 4 -15 -4 -8 -2 -17 4
-21 15 -9 130 50 159 81 l24 25 -39 40 c-41 42 -54 48 -56 28z m41 -64 c0 -8
-4 -14 -10 -14 -5 0 -10 9 -10 21 0 11 5 17 10 14 6 -3 10 -13 10 -21z"/>
<path id="parte1" d="M10341 931 c-17 -11 -7 -41 13 -41 22 0 30 20 15 36 -9 8 -19 10 -28
5z"/>
<path id="parte1" d="M4715 920 c3 -5 13 -10 21 -10 8 0 14 5 14 10 0 6 -9 10 -21 10 -11
0 -17 -4 -14 -10z"/>
<path id="parte1" d="M10855 883 l-30 -18 48 -3 c26 -2 68 -2 95 0 l47 3 -30 14 c-49 22
-97 23 -130 4z"/>
<path id="parte1" d="M9902 869 c-45 -22 -63 -59 -45 -88 16 -25 37 -19 43 14 4 20 14 34
35 44 26 13 47 12 164 -2 153 -18 166 -16 141 23 -7 11 -30 15 -87 17 -43 0
-107 4 -143 8 -55 5 -72 3 -108 -16z"/>
<path id="parte1" d="M10444 879 c-6 -11 13 -39 27 -39 5 0 9 9 9 19 0 21 -26 36 -36 20z"/>
<path id="parte1" d="M11094 877 c-9 -23 4 -37 32 -37 30 0 28 17 -4 38 -19 13 -22 12 -28
-1z"/>
<path id="parte1" d="M1030 870 c0 -5 9 -10 20 -10 11 0 20 5 20 10 0 6 -9 10 -20 10 -11
0 -20 -4 -20 -10z"/>
<path id="parte1" d="M10760 859 c0 -11 5 -17 10 -14 6 3 10 13 10 21 0 8 -4 14 -10 14 -5
0 -10 -9 -10 -21z"/>
<path id="parte1" d="M680 820 c0 -5 6 -10 14 -10 8 0 18 5 21 10 3 6 -3 10 -14 10 -12 0
-21 -4 -21 -10z"/>
<path id="parte1" d="M10206 744 c-3 -9 -3 -20 0 -25 8 -13 34 9 34 27 0 19 -26 18 -34 -2z"/>
<path id="parte1" d="M5466 734 c-9 -8 -16 -30 -16 -48 0 -19 -6 -39 -14 -46 -13 -10 -8
-18 30 -54 24 -23 44 -52 44 -63 0 -22 18 -33 55 -33 27 0 41 16 37 43 -2 9 4
20 12 23 9 3 16 12 16 19 0 26 -21 27 -58 2 l-37 -24 -39 33 -38 33 41 17 c61
24 76 59 41 94 -24 24 -53 26 -74 4z m44 -31 c0 -44 -14 -58 -28 -28 -17 38
-15 55 8 55 15 0 20 -7 20 -27z"/>
<path id="parte1" d="M10460 710 c0 -19 3 -21 12 -12 9 9 9 15 0 24 -9 9 -12 7 -12 -12z"/>
<path id="parte1" d="M10535 720 c-9 -15 4 -30 26 -30 25 0 25 16 0 30 -13 7 -22 7 -26 0z"/>
<path id="parte1" d="M5007 692 c-10 -10 -17 -26 -17 -35 0 -21 38 -47 70 -47 23 1 22 2
-10 18 -51 25 -47 48 8 44 45 -4 56 10 23 28 -29 15 -56 12 -74 -8z"/>
<path id="parte1" d="M8612 698 c-7 -7 -12 -18 -12 -25 0 -18 29 -16 37 3 8 21 -10 37 -25
22z"/>
<path id="parte1" d="M6440 670 c0 -5 11 -10 25 -10 14 0 25 5 25 10 0 6 -11 10 -25 10
-14 0 -25 -4 -25 -10z"/>
<path id="parte1" d="M6604 669 c12 -8 25 -8 40 -1 18 9 16 11 -19 11 -33 0 -37 -1 -21
-10z"/>
<path id="parte1" d="M6790 670 c0 -5 11 -10 25 -10 14 0 25 5 25 10 0 6 -11 10 -25 10
-14 0 -25 -4 -25 -10z"/>
<path id="parte1" d="M8270 670 c0 -5 9 -10 21 -10 11 0 17 5 14 10 -3 6 -13 10 -21 10 -8
0 -14 -4 -14 -10z"/>
<path id="parte1" d="M8370 670 c0 -5 9 -10 20 -10 11 0 20 5 20 10 0 6 -9 10 -20 10 -11
0 -20 -4 -20 -10z"/>
<path id="parte1" d="M8490 660 c0 -11 5 -20 10 -20 6 0 10 9 10 20 0 11 -4 20 -10 20 -5
0 -10 -9 -10 -20z"/>
<path id="parte1" d="M8778 663 c-21 -8 -38 -18 -38 -22 0 -3 42 -4 92 -3 l93 4 -45 18
c-55 23 -56 23 -102 3z"/>
<path id="parte1" d="M470 625 c19 -19 38 -35 44 -35 5 0 -5 16 -24 35 -19 19 -38 35 -44
35 -5 0 5 -16 24 -35z"/>
<path id="parte1" d="M8170 652 c0 -14 11 -21 26 -15 8 3 11 9 8 14 -7 11 -34 12 -34 1z"/>
<path id="parte1" d="M6286 628 c-11 -16 -13 -25 -5 -35 15 -18 26 -9 31 27 5 35 -5 39
-26 8z"/>
<path id="parte1" d="M9000 620 c0 -5 9 -10 20 -10 11 0 20 5 20 10 0 6 -9 10 -20 10 -11
0 -20 -4 -20 -10z"/>
<path id="parte1" d="M687 604 c-11 -11 3 -24 18 -18 8 4 12 10 9 15 -6 11 -18 12 -27 3z"/>
<path id="parte1" d="M5122 598 c-13 -13 -16 -77 -4 -95 4 -7 24 -16 42 -19 l35 -7 -29 27
c-24 23 -27 33 -23 61 6 37 -3 51 -21 33z"/>
<path id="parte1" d="M1400 553 c-27 -8 -60 -26 -60 -32 0 -4 18 -5 40 -3 58 6 77 -1 154
-58 66 -48 96 -61 96 -41 0 13 -77 78 -125 106 -44 25 -82 35 -105 28z"/>
<path id="parte1" d="M5692 543 c-23 -43 -23 -79 -2 -98 20 -18 21 -18 48 2 34 25 40 65
13 92 -26 26 -47 27 -59 4z m46 -56 c4 -20 -25 -34 -40 -19 -15 15 -1 44 19
40 10 -2 19 -11 21 -21z"/>
<path id="parte1" d="M6374 495 c-4 -9 -2 -21 4 -27 15 -15 44 -1 40 19 -4 23 -36 29 -44
8z"/>
<path id="parte1" d="M5590 440 c0 -5 5 -12 10 -15 12 -8 13 -82 1 -89 -18 -11 -73 7 -87
29 -11 17 -12 29 -4 51 l11 29 -32 -31 -31 -32 22 -30 c19 -26 21 -34 10 -47
-10 -13 -8 -22 14 -55 26 -39 56 -53 56 -26 0 7 -9 25 -20 39 -27 34 -25 47 8
47 54 0 94 56 77 109 -6 20 -35 37 -35 21z"/>
<path id="parte1" d="M5780 420 c0 -5 8 -14 18 -19 9 -6 26 -17 36 -26 19 -14 18 -15 -7
-35 -27 -21 -47 -73 -47 -122 0 -19 -8 -33 -27 -45 -49 -30 -103 -74 -103 -84
0 -10 29 0 123 43 l68 31 67 -21 c85 -28 90 -28 103 5 17 45 6 54 -40 31 -38
-18 -42 -19 -74 -3 -63 30 -74 95 -25 150 17 20 27 40 22 43 -76 55 -114 72
-114 52z"/>
<path id="parte1" d="M6374 415 c-4 -10 -1 -21 7 -26 20 -12 34 -5 34 17 0 24 -33 31 -41
9z"/>
<path id="parte1" d="M1970 400 c-12 -8 -12 -10 3 -16 21 -8 35 2 21 16 -5 5 -15 6 -24 0z"/>
<path id="parte1" d="M2875 400 c-3 -6 1 -13 10 -16 19 -8 30 0 20 15 -8 14 -22 14 -30 1z"/>
<path id="parte1" d="M5717 390 c-6 -25 7 -60 23 -60 15 0 12 43 -3 65 -13 17 -14 17 -20
-5z"/>
<path id="parte1" d="M1749 391 c12 -8 51 -4 51 5 0 2 -15 4 -32 4 -23 0 -29 -3 -19 -9z"/>
<path id="parte1" d="M2740 380 c0 -11 5 -20 10 -20 6 0 10 9 10 20 0 11 -4 20 -10 20 -5
0 -10 -9 -10 -20z"/>
<path id="parte1" d="M2255 370 c-4 -6 5 -10 19 -10 14 0 26 5 26 10 0 6 -9 10 -19 10 -11
0 -23 -4 -26 -10z"/>
<path id="parte1" d="M2595 370 c-3 -5 3 -10 14 -10 12 0 21 5 21 10 0 6 -6 10 -14 10 -8
0 -18 -4 -21 -10z"/>
<path id="parte1" d="M3090 336 c0 -8 4 -17 9 -20 10 -7 23 19 14 28 -11 11 -23 6 -23 -8z"/>
<path id="parte1" d="M5678 285 c26 -11 33 -20 30 -37 -4 -29 -49 -36 -85 -13 -13 9 -27
14 -30 11 -11 -10 6 -35 34 -49 40 -21 94 -2 107 36 14 40 -2 61 -50 65 l-39
2 33 -15z"/>
<path id="parte1" d="M3330 260 c0 -14 48 -35 58 -26 8 9 -26 36 -45 36 -7 0 -13 -5 -13
-10z"/>
<path id="parte1" d="M3501 240 c68 -40 316 -103 284 -73 -20 19 -221 83 -260 83 -30 -1
-36 -3 -24 -10z"/>
<path id="parte1" d="M5920 240 c0 -5 9 -10 20 -10 11 0 20 5 20 10 0 6 -9 10 -20 10 -11
0 -20 -4 -20 -10z"/>
<path id="parte1" d="M6474 215 c-4 -9 -2 -21 4 -27 15 -15 44 -1 40 19 -4 23 -36 29 -44
8z"/>
<path id="parte1" d="M4766 208 c-26 -7 -56 -28 -86 -59 -45 -47 -46 -47 -90 -39 -72 14
-130 12 -130 -4 0 -16 42 -32 112 -41 44 -7 50 -4 110 38 91 64 105 70 183 77
65 6 68 7 42 18 -43 18 -98 22 -141 10z"/>
<path path id="parte1" d="M6740 182 c0 -10 7 -27 15 -38 13 -18 14 -17 15 19 0 26 -4 37 -15
37 -8 0 -15 -8 -15 -18z"/>
<path id="parte1" d="M6155 180 c-16 -6 -17 -9 -5 -14 26 -10 102 -36 106 -36 11 0 2 22
-16 40 -21 21 -51 24 -85 10z"/>
<path id="parte1" d="M1285 164 c-16 -8 -43 -28 -60 -44 -17 -15 -55 -35 -87 -44 -82 -23
-82 -36 0 -36 l69 0 58 55 c31 30 62 55 69 55 6 0 35 -16 64 -35 59 -40 68
-34 20 12 -59 55 -85 62 -133 37z"/>
<path id="parte1" d="M3860 142 c0 -10 43 -52 53 -52 13 0 7 28 -9 44 -16 17 -44 22 -44 8z"/>
<path id="parte1" d="M6960 140 c0 -5 7 -10 15 -10 8 0 15 5 15 10 0 6 -7 10 -15 10 -8 0
-15 -4 -15 -10z"/>
<path id="parte1" d="M4690 50 c-22 -22 -28 -56 -7 -44 26 15 47 38 47 51 0 19 -17 16 -40
-7z"/>
</g>
</svg>
