<?xml version="1.0" encoding="utf-8"?>
<!-- Generator: Adobe Illustrator 27.5.0, SVG Export Plug-In . SVG Version: 6.00 Build 0)  -->
<svg version="1.1" xmlns="http://www.w3.org/2000/svg" xmlns:xlink="http://www.w3.org/1999/xlink" x="0px" y="0px"
	 viewBox="0 0 500 500" style="enable-background:new 0 0 500 500;" xml:space="preserve">
<g id="Background">
	<rect id="parte19" style="fill:#F0F0F1;" width="500" height="500"/>
</g>
<g id="Graphic_Elements">
	<g>
		<path style="fill:#FFFFFF;" id="parte1" d="M290.628,225.015c-0.759,0.441-1.266,0.699-1.735,1.014c-7.369,4.944-15.033,9.401-22.796,13.681
			c-12.643,6.97-25.152,14.151-36.915,22.556c-4.842,3.46-9.659,6.955-14.47,10.458c-1.283,0.934-1.29,1.172-0.371,2.478
			c1.708,2.428,2.745,5.102,3.157,8.051c0.5,3.58-0.237,6.95-1.536,10.246c-0.759,1.926-1.541,3.844-2.289,5.774
			c-0.542,1.398-0.861,2.853-0.906,4.353c-0.089,2.977,1.574,4.753,4.528,4.9c1.714,0.085,3.355-0.255,4.937-0.863
			c1.63-0.627,3.235-1.32,4.85-1.987c3.507-1.447,7.11-2.436,10.949-2.153c3.284,0.242,5.983,1.543,7.716,4.487
			c0.189,0.32,0.325,0.719,0.97,0.85c5.884-7.474,12.593-14.324,19.71-21.132c-2.31-0.902-4.186-1.87-5.901-3.144
			c-4.358-3.235-6.638-9.088-5.411-14.063c0.911-3.697,2.911-6.829,5.639-9.355c3.498-3.239,7.593-5.592,12.259-6.844
			c2.256-0.606,4.439-1.419,6.448-2.638c1.528-0.927,1.625-1.048,0.704-2.57c-2.229-3.682-1.706-7.138,0.627-10.53
			c1.709-2.485,3.982-4.409,6.238-6.348C289.134,230.426,290.43,228.221,290.628,225.015z"/>
		<path style="fill:#FFFFFF;" id="parte2" d="M172.146,287.737c1.407-5.174,2.934-10.306,5.324-15.135c0.161-0.325,0.429-0.673,0.178-1.104
			c-0.574-0.36-1.127-0.052-1.639,0.146c-2.894,1.123-5.253,2.92-7.098,5.454c-2.969,4.077-1.286,8.529,1.148,11.341
			c0.166,0.191,0.383,0.348,0.6,0.484c0.601,0.378,1.096,0.393,1.3-0.437C172.019,288.237,172.078,287.986,172.146,287.737z"/>
		<path style="fill:#FFFFFF;" id="parte3" d="M371.628,134.663c-0.152-0.052-0.304-0.104-0.457-0.156c-0.287,0.412-0.614,0.801-0.854,1.238
			c-2.793,5.077-6.371,9.608-10.259,13.837c-5.377,5.849-10.822,11.667-17.482,16.16c-2.215,1.494-2.132,1.781-0.068,3.425
			c4.279,3.408,6.447,7.812,6.105,13.344c-0.048,0.774-0.137,1.546-0.225,2.317c-0.668,5.903-2.586,11.329-6.221,16.08
			c-2.646,3.458-5.722,6.492-9.171,9.15c-1.996,1.539-4.024,3.04-5.979,4.629c-3.117,2.534-4.363,5.493-2.764,9.572
			c1.466,3.741,0.375,5.869-3.22,7.798c-1.713,0.92-3.522,1.625-5.321,2.351c-2.286,0.923-3.562,2.661-4.129,5.026
			c-0.585,2.439,0.16,4.599,1.259,6.702c1.212,2.32,1.781,2.416,3.726,0.654c0.096-0.087,0.188-0.177,0.28-0.268
			c4.376-4.309,8.865-8.497,12.837-13.21c3.755-4.455,7.345-9.024,10.597-13.853c9.105-13.521,16.52-27.922,22.324-43.154
			c4.419-11.598,7.646-23.485,8.671-35.902C371.436,138.495,371.513,136.577,371.628,134.663z"/>
		<path style="fill:#FFFFFF;" id="parte4" d="M173.502,309.912c0.036,0.602-0.114,1.287,0.489,1.803c0.694-0.455,0.888-1.175,1.204-1.782
			c5.655-10.88,12.983-20.535,21.483-29.325c3.014-3.117,6.312-5.931,9.629-8.719c7.634-6.416,15.66-12.312,23.872-17.954
			c10.998-7.556,22.615-14.101,34.184-20.72c10.055-5.753,20.025-11.643,29.51-18.313c1.768-1.243,3.594-2.425,5.19-3.914
			c-0.31-0.323-0.578-0.238-0.817-0.191c-6.444,1.26-12.985,1.348-19.51,1.73c-7.634,0.447-15.2,1.509-22.59,3.566
			c-4.077,1.135-7.663,3.15-10.423,6.418c-1.333,1.579-2.518,3.284-3.741,4.953c-1.415,1.933-2.936,3.765-4.578,5.52
			c-1.898,2.028-4.055,2.741-6.8,2.403c-3.149-0.388-6.326-0.42-9.442,0.471c-7.066,2.022-13.092,5.859-18.399,10.814
			c-5.544,5.177-10.48,10.917-14.892,17.096c-4.118,5.768-7.65,11.839-9.757,18.669c-1.626,5.273-2.574,10.694-3.615,16.091
			C173.775,302.275,173.269,306.069,173.502,309.912z M182.72,286.234c-0.309-0.976,0.027-1.768,0.259-2.547
			c0.667-2.242,1.632-4.365,2.786-6.393c3.017-5.299,6.525-10.262,10.491-14.887c4.183-4.878,9.382-8.491,14.933-11.624
			c5.416-3.057,10.924-5.923,16.966-7.587c0.706-0.194,1.252-0.553,1.746-1.129c7.101-8.281,15.492-14.815,25.689-18.898
			c1.812-0.726,3.679-1.23,5.588-1.597c1.149-0.221,2.314-0.255,3.48-0.138c0.328,0.033,0.686,0.115,0.79,0.459
			c0.144,0.476-0.235,0.701-0.588,0.859c-2.955,1.32-5.785,2.894-8.692,4.306c-6.467,3.14-12.245,7.245-17.352,12.265
			c-2.019,1.984-3.967,4.091-5.42,6.567c-0.658,1.121-1.582,1.844-2.819,2.22c-6.345,1.932-12.202,4.974-18.106,7.921
			c-7.792,3.889-14.058,9.638-19.717,16.098c-2.724,3.109-5.213,6.429-7.372,9.975c-0.573,0.941-1.129,1.885-1.553,2.905
			C183.638,285.47,183.546,286.029,182.72,286.234z"/>
		<path style="fill:#FFFFFF;" id="parte5" d="M367.59,186.73c-2.823,7.091-6.258,13.888-9.884,20.592c-1.251,2.312-2.574,4.585-3.864,6.875
			c0.051,0.041,0.102,0.082,0.154,0.124c1.217-1.112,2.413-2.246,3.654-3.33c4.975-4.347,8.887-9.509,11.827-15.411
			c0.811-1.628,1.349-3.354,1.492-5.182c0.141-1.809-0.321-3.456-1.368-4.933c-0.688-0.97-1.025-0.925-1.562,0.195
			C367.871,186.007,367.733,186.37,367.59,186.73z"/>
		<path style="fill:#FFFFFF;" id="parte6" d="M243.109,313.569c0.846-1.124,0.881-2.126,0.146-3.37c-1.165-1.971-2.773-2.995-5.05-3.031
			c-3.48-0.054-6.82,0.623-10.034,1.926c-2.219,0.9-4.419,1.839-6.71,2.552c-1.572,0.489-3.17,0.634-4.796,0.513
			c-4.435-0.33-7.672-3.697-7.855-8.131c-0.092-2.234,0.377-4.379,1.051-6.482c0.79-2.464,1.675-4.898,2.449-7.367
			c1.351-4.305,0.465-8.313-1.78-12.093c-0.749-1.26-0.978-1.339-2.077-0.452c-2.111,1.703-4.185,3.46-6.195,5.281
			c-3.363,3.045-6.271,6.531-9.285,9.904c-2.15,2.406-4.02,5.06-6.042,7.582c-0.679,0.847-0.709,1.582,0.05,2.398
			c0.88,0.946,1.628,2.021,2.551,2.918c1.693,1.646,3.01,3.533,4.102,5.614c1.025,1.952,1.924,3.962,2.707,6.014
			c2.364,6.194,1.671,12.048-2.108,17.522c-1.931,2.797-4.546,4.946-6.688,7.142c-2.068,1.913-3.881,3.672-5.54,5.576
			c-2.012,2.309-3.694,4.821-4.569,7.81c-1.201,4.105,0.168,7.285,4.005,9.181c0.579,0.286,1.204,0.486,1.767,0.799
			c1.586,0.879,1.85,2.337,0.673,3.697c-0.292,0.337-0.69,0.581-1.028,0.88c-2.806,2.482-5.812,4.751-8.012,7.861
			c-1.603,2.266-2.826,4.643-2.715,7.514c0.077,1.992,0.822,3.654,2.484,4.816c3.412,2.385,7.171,3.53,11.356,3.085
			c3.265-0.347,6.243-1.63,9.239-2.851c0.433-0.176,0.761-0.481,1.05-0.838c1.586-1.961,3.245-3.867,4.745-5.891
			c6.456-8.711,11.765-18.117,16.495-27.845c6.093-12.532,12.764-24.713,21.042-35.961
			C240.07,317.757,241.554,315.636,243.109,313.569z"/>
		<path style="fill:#FFFFFF;" id="parte7" d="M112.715,342.07c2.633-0.962,5.113-2.186,7.036-4.324c1.581-1.757,2.244-3.763,1.709-6.088
			c-0.305-1.322-0.682-2.629-1.079-3.927c-0.588-1.922-1.05-3.866-1.302-5.865c-0.631-5.008,0.775-9.35,4.243-13.003
			c1.871-1.97,3.865-3.813,5.904-5.615c6.17-5.453,8.771-12.183,6.936-20.358c-0.773-3.442-2.485-6.519-4.196-9.565
			c-0.828-1.474-1.132-1.45-2.333-0.176c-1.456,1.759-2.977,3.605-4.507,5.444c-5.794,6.966-11.207,14.221-16.326,21.69
			c-6.928,10.11-12.801,20.819-17.864,31.978c-1.902,4.191-3.522,8.483-4.854,12.885c-0.406,1.34-0.199,1.655,1.178,1.681
			c1.096,0.02,2.194-0.112,3.291-0.184C98.15,346.143,105.554,344.686,112.715,342.07z"/>
		<path style="fill:#FFFFFF;" id="parte8" d="M232.923,340.226c-0.234,0.412-0.66,0.824-0.382,1.416c0.783,0.077,1.357-0.412,1.984-0.706
			c9.372-4.4,18.726-8.84,28.268-12.867c2.742-1.157,5.49-2.302,8.249-3.418c0.488-0.197,1.2-0.709,1.524-0.018
			c0.277,0.59-0.475,0.97-0.925,1.29c-1.213,0.86-2.434,1.715-3.696,2.502c-5.499,3.432-11.298,6.306-17.144,9.083
			c-6.897,3.276-13.808,6.523-20.716,9.776c-0.715,0.337-1.376,0.708-1.745,1.46c-0.682,1.389-1.381,2.769-2.145,4.294
			c0.986,0.385,1.665,0.058,2.338-0.079c6.66-1.349,13.306-2.769,19.975-4.073c4.635-0.906,9.284-1.761,13.973-2.362
			c0.575-0.074,1.167-0.233,1.729-0.025c0.454,0.169,0.581,0.563,0.18,0.887c-0.343,0.277-0.779,0.456-1.198,0.618
			c-1.811,0.699-3.613,1.426-5.45,2.051c-10.739,3.653-21.686,6.523-32.842,8.58c-1.117,0.206-1.954,0.579-2.339,1.708
			c-0.124,0.364-0.343,0.696-0.507,1.048c-0.696,1.499-0.65,1.746,0.519,2.868c1.859,1.786,4.19,2.537,6.65,2.918
			c4.993,0.773,9.941,0.388,14.837-0.771c4.894-1.159,9.372-3.354,13.792-5.665c6.508-3.402,12.6-7.406,17.846-12.601
			c2.391-2.367,4.738-4.768,6.891-7.366c3.288-3.969,6.028-8.248,7.913-13.053c0.98-2.499,1.628-5.099,1.273-7.783
			c-0.885-6.691-3.988-8.971-9.351-8.964c-1.812,0.003-3.624-0.04-5.428,0.196c-6.178,0.808-11.964,2.831-17.376,5.855
			c-5.704,3.188-11.317,6.539-16.977,9.807c-1.26,0.728-2.281,1.702-3.095,2.89C237.209,333.14,234.968,336.622,232.923,340.226z"/>
		<path style="fill:#FFFFFF;" id="parte9" d="M339.366,160.5c-1.941-0.278-3.765-0.01-5.571,0.497c-6.342,1.779-10.183,6.659-14.133,11.43
			C326.328,168.619,332.975,164.796,339.366,160.5z"/>
		<path style="fill:#FFFFFF;" id="parte10" d="M114.643,250.656c-0.583,6.32,0.787,12.066,4.033,17.443c0.647,1.072,1.473,1.975,2.495,2.676
			c1.271,0.872,2.332,0.549,2.993-0.823c0.245-0.509,0.123-1.016,0.05-1.522c-0.277-1.933-0.27-3.877-0.148-5.813
			c0.559-8.852,1.47-17.667,3.032-26.404c0.648-3.63,1.295-7.266,2.415-10.79c0.201-0.632,0.196-1.764,1.02-1.647
			c0.98,0.139,0.507,1.262,0.608,1.965c0.064,0.444,0.028,0.905,0.017,1.357c-0.078,3.104-0.16,6.208-0.243,9.313
			c-0.159,6.016-0.481,12.022-0.99,18.02c-0.284,3.346-0.495,6.698-0.739,10.047c1.669-1.29,3.424-2.311,3.997-4.445
			c2.586-9.636,5.95-19.013,9.638-28.276c0.957-2.404,1.942-4.797,2.921-7.193c0.142-0.347,0.282-0.836,0.765-0.666
			c0.465,0.164,0.317,0.653,0.234,1.021c-0.312,1.389-0.635,2.775-0.97,4.158c-2.117,8.747-4.846,17.319-7.374,25.949
			c-0.126,0.432-0.449,0.881-0.1,1.49c1.58-1.342,2.997-2.674,4.55-3.821c1.087-0.802,1.808-1.79,2.419-2.955
			c1.982-3.781,4.009-7.539,6.026-11.302c2.172-4.05,4.367-8.093,5.713-12.515c1.235-4.061,1.946-8.188,1.144-12.439
			c-0.276-1.464-0.553-2.979-1.597-4.112c-4.635-5.03-9.299-6.603-15.237-3.883c-0.822,0.377-1.639,0.776-2.425,1.222
			c-5.823,3.309-10.154,8.158-13.845,13.619C118.854,229.494,115.656,239.678,114.643,250.656z"/>
		<path style="fill:#FFFFFF;" id="parte11" d="M374.462,111.379c0.573,3.522,0.773,7.071,0.645,10.639c-0.023,0.646-0.115,1.314,0.008,1.936
			c0.56,2.854,1.162,5.701,1.795,8.54c0.27,1.21,0.557,1.264,1.487,0.355c0.462-0.451,0.895-0.936,1.315-1.427
			c2.102-2.455,4.27-4.859,6.269-7.395c1.807-2.294,3.926-4.294,5.801-6.523c2.245-2.671,4.679-5.184,7.07-7.73
			c0.445-0.473,0.986-1.41,1.701-0.852c0.694,0.542-0.074,1.302-0.387,1.88c-1.725,3.188-3.707,6.221-5.701,9.246
			c-4.28,6.49-8.94,12.701-14.284,18.341c-1.801,1.901-3.138,3.659-2.687,6.392c0.123,0.744-0.092,1.543-0.147,2.317
			c-0.037,0.516-0.076,1.032-0.096,1.549c-0.032,0.855,0.378,1.023,1.094,0.676c0.99-0.479,1.98-0.958,2.966-1.443
			c4.727-2.328,9.125-5.142,12.922-8.829c3.202-3.11,6.379-6.242,9.136-9.773c3.671-4.701,7.029-9.593,9.623-14.988
			c3.152-6.555,4.962-13.475,5.498-20.701c0.381-5.134-0.333-10.083-3.548-14.374c-2.007-2.678-4.712-3.996-8.018-3.943
			c-2.149,0.034-4.196,0.626-6.176,1.519c-6.533,2.945-11.567,7.761-16.223,13.014c-2.235,2.522-4.591,4.915-6.965,7.297
			c-0.228,0.229-0.469,0.449-0.726,0.643c-0.822,0.622-1.725,0.926-2.72,0.481c-1.008-0.451-1.374-1.34-1.37-2.375
			c0.003-0.838,0.065-1.682,0.173-2.513c0.359-2.766,0.486-5.537,0.405-8.326c-0.216-7.435-5.52-12.331-11.395-13.698
			c-4.518-1.051-8.739-0.177-12.716,2.066c-6.565,3.704-11.102,9.176-13.927,16.121c-2.8,6.885-3.902,14.085-3.653,21.463
			c0.504,14.885,6.848,26.719,19.017,35.335c3.491,2.472,2.202,2.232,5.133-0.636c0.783-0.766,0.824-1.48,0.296-2.407
			c-1.034-1.816-1.601-3.816-2.019-5.848c-0.926-4.499-1.884-8.994-2.691-13.515c-0.885-4.966-1.706-9.951-1.64-15.023
			c0.011-0.856-0.392-2.193,0.58-2.432c1.208-0.298,1.3,1.183,1.664,1.981c2.53,5.547,4.123,11.43,6.057,17.189
			c1.215,3.617,2.267,7.289,3.407,10.931c0.131,0.419,0.165,0.904,0.791,1.351c2.518-3.236,4.514-6.681,6.221-10.31
			c0.973-2.068,1.601-4.204,1.872-6.485c0.398-3.346,1.22-6.615,2.164-9.846c0.184-0.63,0.213-1.657,1.105-1.598
			C374.481,109.71,374.356,110.727,374.462,111.379z"/>
		<path style="fill:#FFFFFF;" id="parte12" d="M168.066,242.716c0.459,0.236,0.943,0.433,1.433,0.595c2.59,0.857,5.254,1.4,7.956,1.718
			c4.075,0.48,7.862-0.291,11.199-2.8c0.775-0.583,1.532-1.192,2.294-1.792c2.213-1.743,2.376-2.312,1.412-4.93
			c-1.285-3.49-0.363-5.76,3.084-7.167c1.912-0.78,3.907-1.369,5.888-1.969c3.318-1.006,6.337-2.613,9.203-4.514
			c1.772-1.175,3.191-2.737,4.742-4.598c-1.197-0.195-1.728,0.248-2.3,0.498c-3.379,1.477-6.745,2.985-10.114,4.486
			c-11.362,5.06-22.475,10.59-32.878,17.455c-0.702,0.463-1.438,0.878-2.115,1.374C166.937,241.755,166.992,242.163,168.066,242.716
			z"/>
		<path style="fill:#FFFFFF;" id="parte13" d="M302.28,190.456c-0.954,0.993-1.686,2.135-2.22,3.393c-0.989,2.329-1.74,4.735-2.21,7.225
			c-0.133,0.702-0.215,1.411-0.041,2.119c0.265,1.08,0.72,1.377,1.81,1.183c0.254-0.045,0.505-0.118,0.751-0.196
			c5.229-1.654,10.73-2.5,15.581-5.282c0.745-0.427,1.621-0.724,2.259,0.176c0.544,0.767,0.176,1.506-0.373,2.108
			c-0.663,0.727-1.122,1.578-1.627,2.405c-1.188,1.945-2.607,3.71-4.33,5.2c-4.893,4.231-9.898,8.331-15.259,11.956
			c-1.379,0.933-1.974,1.926-1.682,3.509c0.035,0.19,0.029,0.387,0.041,0.581c0.216,3.623-0.921,6.759-3.454,9.355
			c-1.58,1.619-3.131,3.275-4.955,4.639c-1.112,0.831-1.871,1.974-2.561,3.14c-0.852,1.44-0.883,2.929-0.008,4.421
			c0.522,0.89,1.034,1.803,1.4,2.764c0.692,1.813,0.27,3.251-1.214,4.518c-0.843,0.72-1.825,1.224-2.824,1.687
			c-2.356,1.094-4.823,1.868-7.335,2.51c-4.337,1.107-8.294,2.913-11.45,6.21c-0.651,0.72-1.356,1.398-1.943,2.166
			c-2.51,3.282-3.706,6.854-1.935,10.867c1.672,3.787,4.814,5.964,8.564,7.394c1.629,0.622,2.992,0.208,4.272-0.92
			c5.146-4.532,10.592-8.7,15.951-12.971c7.836-6.247,15.761-12.382,23.397-18.877c1.042-0.886,1.065-0.912,0.263-2.013
			c-1.673-2.297-2.736-4.829-3.007-7.672c-0.461-4.84,1.901-8.796,6.366-10.65c0.896-0.372,1.819-0.681,2.707-1.07
			c0.947-0.414,1.909-0.818,2.789-1.352c1.365-0.827,1.639-1.58,1.252-3.107c-0.19-0.751-0.463-1.481-0.706-2.219
			c-0.972-2.955-0.579-5.752,1.018-8.386c1.046-1.725,2.312-3.276,3.882-4.559c2.203-1.8,4.45-3.549,6.607-5.402
			c7.397-6.357,11.954-14.183,12.354-24.135c0.083-2.059-0.3-3.958-1.425-5.734c-1.303-2.058-3.125-3.61-4.829-5.284
			c-0.544-0.535-1.122-0.556-1.747-0.127c-0.373,0.256-0.779,0.463-1.155,0.715c-7.811,5.242-16.078,9.652-24.652,13.499
			C307.361,185.695,304.712,187.924,302.28,190.456z"/>
		<path style="fill:#FFFFFF;" id="parte14" d="M134.415,270.652c1.997,2.956,3.656,6.099,5.186,9.313c0.784,1.647,1.327,3.388,1.467,5.208
			c0.658,8.561-1.851,15.807-8.829,21.213c-2.35,1.82-4.659,3.692-6.755,5.825c-2.134,2.171-3.089,4.725-3.012,7.718
			c0.061,2.347,0.532,4.622,1.212,6.861c0.357,1.176,0.746,2.346,1.021,3.542c1.172,5.094-0.497,9.342-4.807,12.318
			c-1.553,1.072-3.23,1.892-5.017,2.512c-5.606,1.943-11.439,2.764-17.29,3.442c-3.724,0.431-7.458,0.859-11.219,0.792
			c-1.552-0.028-1.592-0.085-2.006,1.382c-0.985,3.489-1.873,6.992-2.124,10.639c-0.227,3.291-0.584,6.574-0.951,9.853
			c-0.807,7.22-0.401,14.379,1.499,21.374c2.532,9.321,6.359,18.056,12.697,25.505c3.481,4.09,7.52,7.465,12.532,9.561
			c5.408,2.262,11.066,2.556,16.791,2.017c9.945-0.935,19.439-3.577,28.554-7.668c7.227-3.244,14.13-6.988,20.388-11.906
			c4.122-3.24,8.075-6.669,12.036-10.093c1.296-1.12,2.441-2.413,3.672-3.645c-0.156-0.096-0.213-0.161-0.255-0.153
			c-0.379,0.072-0.754,0.162-1.132,0.238c-4.999,1.004-9.79,0.552-14.259-2.07c-1.401-0.822-2.696-1.756-3.638-3.141
			c-2.874-4.226-2.722-9.79,0.443-14.398c1.962-2.856,4.531-5.131,7.098-7.408c0.241-0.214,0.53-0.375,0.767-0.594
			c0.803-0.74,0.799-1.007-0.004-1.669c-0.199-0.164-0.437-0.28-0.635-0.445c-3.755-3.121-5.405-6.98-4.247-11.878
			c0.651-2.755,1.867-5.229,3.458-7.539c1.841-2.674,4.018-5.061,6.284-7.377c2.855-2.918,5.546-5.983,7.657-9.496
			c1.987-3.306,2.675-6.896,1.603-10.634c-0.784-2.734-1.896-5.385-3.458-7.781c-1.343-2.06-3.018-3.877-4.743-5.629
			c-0.808-0.821-1.154-0.765-1.908,0.089c-0.255,0.289-0.452,0.63-0.674,0.948c-1.667,2.387-3.327,4.777-5.002,7.158
			c-0.899,1.277-1.964,2.417-3.167,3.401c-1.577,1.29-3.273,0.811-4.056-1.077c-0.123-0.297-0.228-0.61-0.282-0.926
			c-0.671-3.9-1.157-7.807-0.619-11.776c0.418-3.081,0.971-6.135,1.642-9.169c0.298-1.35,0.688-1.806-1.123-2.556
			c-0.841-0.348-1.602-0.908-2.152-1.625c-4.314-5.621-5.007-11.524,0.155-17.21c3.072-3.385,6.778-5.571,11.402-5.99
			c1.126-0.102,1.865-0.614,2.451-1.612c1.046-1.783,2.19-3.514,3.381-5.206c3.281-4.661,6.985-8.967,10.802-13.204
			c4.686-5.2,9.973-9.578,16.057-13.001c5.871-3.304,12.106-5.3,18.924-4.708c2.154,0.187,3.584-0.608,4.792-2.223
			c1.394-1.864,2.811-3.713,4.259-5.535c3.992-5.024,8.732-9.005,15.103-10.665c1.69-0.44,3.381-0.879,5.08-1.283
			c9.349-2.227,18.88-3.14,28.426-3.956c2.062-0.176,4.117-0.447,6.174-0.683c0.624-0.071,1.209-0.217,0.933-1.068
			c-0.889-2.739-0.14-5.371,0.476-8.022c0.583-2.511,1.617-4.83,3.195-7.323c-1.896,0.663-3.402,1.221-4.928,1.72
			c-12.116,3.963-24.294,7.722-36.521,11.33c-6.763,1.996-13.489,4.123-20.205,6.275c-5.608,1.798-11.129,3.842-16.584,6.068
			c-0.957,0.391-1.441,0.817-1.317,1.977c0.188,1.767-0.535,3.298-1.783,4.548c-4.102,4.11-8.951,6.986-14.497,8.682
			c-1.793,0.548-3.636,0.941-5.411,1.54c-1.984,0.669-2.103,1.094-1.177,2.958c1.646,3.314,1.305,5.412-1.261,8.074
			c-5.098,5.288-11.281,7.649-18.598,6.808c-4.09-0.471-8.005-1.548-11.42-3.994c-1.552-1.112-1.557-1.14-3.189,0.015
			c-5.016,3.551-9.887,7.285-14.573,11.27c-4.339,3.69-8.574,7.485-12.563,11.552C133.471,269.234,133.483,269.273,134.415,270.652z
			 M149.839,410.987c1.991,0.005,3.686,0.824,4.438,2.829c0.734,1.954,0.193,3.69-1.276,5.12c-3.019,2.936-6.752,4.277-10.863,4.349
			c-3.658,0.064-5.565-3.482-3.804-6.71c0.376-0.689,0.892-1.259,1.439-1.819C142.618,412.142,146.036,410.977,149.839,410.987z
			 M95.487,371.441c0.152,0.28,0.261,0.597,0.321,0.91c0.807,4.192-0.176,7.916-2.901,11.174c-0.805,0.823-1.711,1.415-2.804,1.709
			c-2.255,0.607-4.335-0.504-5.067-2.708c-0.247-0.744-0.328-1.511-0.333-2.291c-0.018-2.612,0.505-5.134,1.29-7.607
			c0.193-0.609,0.497-1.195,0.823-1.748c0.986-1.67,2.399-2.736,4.406-2.655C93.342,368.311,94.555,369.725,95.487,371.441z"/>
		<g>
			<path d="M110.011,236.285c-1.57,6.035-2.509,12.162-2.503,18.417c0.005,6.144,2.175,11.514,5.879,16.307
				c1.106,1.43,2.409,2.698,4.032,3.595c1.848,1.021,1.833,1.047,0.478,2.748c-0.081,0.101-0.168,0.197-0.251,0.297
				c-5.187,6.293-10.063,12.824-14.718,19.515c-7.076,10.173-13.145,20.927-18.213,32.236c-4.148,9.255-7.356,18.818-8.619,28.916
				c-0.876,7.001-0.728,14.079-1.068,21.121c-0.087,1.803,0.044,3.625,0.194,5.428c0.938,11.27,5.597,21.177,11.435,30.607
				c1.352,2.183,3.13,4.116,4.812,6.078c3.464,4.042,7.541,7.26,12.629,9.06c1.036,0.367,2.079,0.739,3.064,1.221
				c4.709,2.302,9.747,3.06,14.901,3.03c9.717-0.056,19.191-1.524,28.32-5.035c8.349-3.211,16.635-6.522,24.017-11.699
				c6.102-4.28,11.725-9.138,17.17-14.218c7.941-7.41,14.991-15.54,20.623-24.869c1.973-3.269,3.949-6.533,5.824-9.859
				c0.646-1.145,0.852-1.206,1.723-0.421c3.125,2.815,6.878,3.988,10.972,4.372c7.447,0.699,14.58-0.59,21.453-3.409
				c12.317-5.051,23.207-12.213,32.332-21.976c3.236-3.462,6.207-7.118,8.548-11.253c2.279-4.024,4.14-8.205,4.687-12.863
				c0.61-5.189-0.978-9.737-4.195-13.722c-2.4-2.973-5.77-4.03-9.46-4.213c-7.21-0.357-13.966,1.545-20.585,4.147
				c-4.844,1.904-9.226,4.679-13.742,7.203c-0.412,0.23-0.782,0.586-1.456,0.576c4.296-6.057,9.169-11.42,14.036-16.772
				c6.157-6.771,13.188-12.581,20.496-18.066c5.639-4.232,11.242-8.512,16.875-12.751c5.427-4.085,10.741-8.311,16.027-12.576
				c5.691-4.591,11.152-9.42,16.248-14.68c5.372-5.545,10.273-11.459,14.731-17.75c0.38-0.537,0.803-0.992,1.366-1.347
				c5.155-3.25,9.939-6.974,14.569-10.943c4.839-4.148,8.684-9.028,11.776-14.543c1.143-2.04,1.977-4.213,2.295-6.561
				c0.644-4.742-1.073-8.491-4.784-11.387c-1.473-1.15-1.506-1.119-0.958-2.847c1.369-4.319,2.673-8.655,3.702-13.071
				c0.647-2.775,1.248-5.559,1.635-8.381c0.155-1.13,0.624-1.731,1.812-1.85c1.226-0.123,2.377-0.599,3.534-1.023
				c6.674-2.447,12.4-6.387,17.545-11.21c3.209-3.009,6.285-6.145,9.128-9.521c3.3-3.918,6.459-7.919,9.022-12.364
				c5.02-8.704,7.725-18.056,7.65-28.131c-0.041-5.48-1.229-10.701-4.611-15.16c-3.793-5-8.767-7.546-15.176-6.715
				c-2.063,0.268-4.069,0.803-5.969,1.658c-5.389,2.425-9.961,5.975-13.986,10.26c-2.076,2.21-4.237,4.341-6.194,6.936
				c-0.062-2.171-0.068-3.982-0.175-5.788c-0.367-6.193-3.251-10.998-8.39-14.341c-6.523-4.244-13.51-4.553-20.604-1.648
				c-6.745,2.763-11.796,7.603-15.74,13.647c-3.784,5.798-5.71,12.272-6.913,19.024c-2.397,13.457-0.284,26.021,7.289,37.527
				c2.603,3.955,5.418,7.719,9.222,10.661c1.541,1.191,3.09,2.333,4.783,3.294c1.005,0.571,1.028,0.831,0.267,1.569
				c-1.022,0.991-2.075,1.95-3.098,2.939c-0.575,0.557-1.158,0.739-1.914,0.324c-1.759-0.965-3.697-1.124-5.651-1.132
				c-7.184-0.033-12.795,3.343-17.484,8.398c-3.607,3.888-6.833,8.113-9.736,12.565c-0.661,1.014-1.481,1.749-2.582,2.252
				c-6.303,2.884-12.728,5.459-19.334,7.561c-7.954,2.532-15.906,5.078-23.904,7.465c-8.62,2.573-17.22,5.208-25.792,7.933
				c-6.29,2-12.628,3.891-18.666,6.585c-7.858,3.507-15.631,7.207-23.483,10.728c-13.808,6.193-26.8,13.782-39.076,22.615
				c-1.81,1.302-3.619,2.605-5.519,3.973c-0.049-0.704,0.297-1.035,0.515-1.419c1.468-2.589,2.965-5.163,4.407-7.766
				c3.4-6.135,5.721-12.608,5.972-19.694c0.138-3.891-0.432-7.631-2.789-10.886c-1.998-2.76-4.831-4.447-7.82-5.897
				c-2.693-1.307-5.535-1.712-8.507-1.31c-4.198,0.569-7.971,2.213-11.425,4.586c-3.697,2.541-6.868,5.646-9.778,9.078
				C116.972,218.94,112.417,227.034,110.011,236.285z M87.26,346.829c-1.378-0.025-1.584-0.34-1.178-1.681
				c1.332-4.402,2.952-8.694,4.854-12.885c5.063-11.159,10.936-21.868,17.864-31.978c5.119-7.469,10.532-14.725,16.326-21.69
				c1.529-1.839,3.051-3.685,4.507-5.444c1.201-1.273,1.505-1.298,2.333,0.176c1.711,3.046,3.423,6.123,4.196,9.565
				c1.835,8.174-0.766,14.905-6.936,20.358c-2.039,1.802-4.033,3.645-5.904,5.615c-3.468,3.652-4.874,7.995-4.243,13.003
				c0.252,1.998,0.713,3.942,1.302,5.865c0.397,1.298,0.774,2.605,1.079,3.927c0.536,2.324-0.128,4.331-1.709,6.088
				c-1.924,2.138-4.403,3.362-7.036,4.324c-7.161,2.615-14.564,4.073-22.163,4.574C89.455,346.717,88.356,346.849,87.26,346.829z
				 M242.644,326.832c5.66-3.268,11.272-6.619,16.977-9.807c5.413-3.025,11.198-5.047,17.376-5.855
				c1.805-0.236,3.617-0.193,5.428-0.196c5.363-0.008,8.466,2.272,9.351,8.964c0.355,2.684-0.293,5.284-1.273,7.783
				c-1.884,4.805-4.625,9.085-7.913,13.053c-2.153,2.599-4.5,4.999-6.891,7.366c-5.247,5.195-11.338,9.198-17.846,12.601
				c-4.42,2.311-8.898,4.506-13.792,5.665c-4.896,1.159-9.844,1.544-14.837,0.771c-2.46-0.381-4.791-1.132-6.65-2.918
				c-1.169-1.123-1.215-1.369-0.519-2.868c0.163-0.352,0.383-0.683,0.507-1.048c0.385-1.129,1.222-1.502,2.339-1.708
				c11.156-2.057,22.103-4.927,32.842-8.58c1.837-0.625,3.639-1.352,5.45-2.051c0.418-0.161,0.855-0.341,1.198-0.618
				c0.4-0.323,0.274-0.718-0.18-0.887c-0.562-0.209-1.154-0.049-1.729,0.025c-4.689,0.601-9.337,1.456-13.973,2.362
				c-6.669,1.304-13.315,2.724-19.975,4.073c-0.673,0.137-1.352,0.464-2.338,0.079c0.763-1.526,1.463-2.906,2.145-4.294
				c0.369-0.752,1.03-1.123,1.745-1.46c6.908-3.253,13.819-6.5,20.716-9.776c5.847-2.777,11.645-5.651,17.144-9.083
				c1.261-0.787,2.482-1.641,3.696-2.502c0.451-0.319,1.202-0.7,0.925-1.29c-0.324-0.691-1.036-0.18-1.524,0.018
				c-2.759,1.116-5.507,2.261-8.249,3.418c-9.542,4.027-18.895,8.467-28.268,12.867c-0.627,0.294-1.201,0.783-1.984,0.706
				c-0.278-0.592,0.148-1.005,0.382-1.416c2.045-3.604,4.285-7.086,6.626-10.504C240.363,328.533,241.384,327.559,242.644,326.832z
				 M217.494,355.801c-4.73,9.728-10.04,19.134-16.495,27.845c-1.5,2.024-3.159,3.93-4.745,5.891
				c-0.288,0.357-0.617,0.662-1.05,0.838c-2.996,1.221-5.974,2.504-9.239,2.851c-4.185,0.445-7.944-0.7-11.356-3.085
				c-1.662-1.162-2.407-2.824-2.484-4.816c-0.111-2.872,1.112-5.249,2.715-7.514c2.199-3.109,5.206-5.379,8.012-7.861
				c0.338-0.299,0.736-0.543,1.028-0.88c1.177-1.36,0.913-2.817-0.673-3.697c-0.563-0.312-1.188-0.512-1.767-0.799
				c-3.837-1.895-5.207-5.075-4.005-9.181c0.874-2.989,2.557-5.501,4.569-7.81c1.659-1.904,3.471-3.663,5.54-5.576
				c2.142-2.196,4.757-4.345,6.688-7.142c3.779-5.474,4.472-11.328,2.108-17.522c-0.783-2.052-1.682-4.062-2.707-6.014
				c-1.092-2.08-2.409-3.968-4.102-5.614c-0.923-0.897-1.671-1.972-2.551-2.918c-0.76-0.817-0.73-1.551-0.05-2.398
				c2.022-2.522,3.892-5.177,6.042-7.582c3.014-3.373,5.923-6.859,9.285-9.904c2.011-1.821,4.084-3.577,6.195-5.281
				c1.099-0.887,1.329-0.808,2.077,0.452c2.245,3.78,3.131,7.787,1.78,12.093c-0.774,2.469-1.659,4.903-2.449,7.367
				c-0.674,2.103-1.143,4.247-1.051,6.482c0.183,4.433,3.421,7.8,7.855,8.131c1.626,0.121,3.224-0.024,4.796-0.513
				c2.291-0.713,4.491-1.652,6.71-2.552c3.213-1.303,6.553-1.981,10.034-1.926c2.277,0.036,3.886,1.06,5.05,3.031
				c0.734,1.244,0.7,2.246-0.146,3.37c-1.555,2.067-3.039,4.187-4.572,6.27C230.258,331.088,223.587,343.269,217.494,355.801z
				 M178.114,282.436c2.107-6.83,5.639-12.9,9.757-18.669c4.411-6.179,9.348-11.919,14.892-17.096
				c5.307-4.955,11.333-8.792,18.399-10.814c3.116-0.892,6.293-0.859,9.442-0.471c2.745,0.338,4.903-0.375,6.8-2.403
				c1.642-1.755,3.162-3.587,4.578-5.52c1.223-1.67,2.408-3.375,3.741-4.953c2.759-3.268,6.345-5.283,10.423-6.418
				c7.389-2.057,14.956-3.119,22.59-3.566c6.525-0.382,13.066-0.471,19.51-1.73c0.239-0.047,0.507-0.131,0.817,0.191
				c-1.596,1.488-3.422,2.671-5.19,3.914c-9.485,6.669-19.454,12.56-29.51,18.313c-11.569,6.619-23.185,13.163-34.184,20.72
				c-8.212,5.642-16.238,11.538-23.872,17.954c-3.317,2.788-6.615,5.602-9.629,8.719c-8.5,8.791-15.829,18.445-21.483,29.325
				c-0.315,0.607-0.51,1.326-1.204,1.782c-0.602-0.516-0.452-1.201-0.489-1.803c-0.234-3.842,0.273-7.637,0.996-11.385
				C175.54,293.13,176.487,287.708,178.114,282.436z M170.658,288.924c-0.216-0.136-0.434-0.293-0.6-0.484
				c-2.434-2.813-4.117-7.264-1.148-11.341c1.846-2.535,4.204-4.332,7.098-5.454c0.513-0.199,1.065-0.506,1.639-0.146
				c0.251,0.431-0.017,0.779-0.178,1.104c-2.391,4.829-3.918,9.96-5.324,15.135c-0.068,0.249-0.127,0.5-0.188,0.751
				C171.754,289.318,171.258,289.303,170.658,288.924z M280.791,238.582c-2.333,3.392-2.856,6.848-0.627,10.53
				c0.922,1.522,0.825,1.643-0.704,2.57c-2.009,1.219-4.192,2.033-6.448,2.638c-4.666,1.252-8.761,3.605-12.259,6.844
				c-2.728,2.526-4.728,5.658-5.639,9.355c-1.226,4.975,1.054,10.828,5.411,14.063c1.716,1.273,3.592,2.242,5.901,3.144
				c-7.116,6.808-13.826,13.658-19.71,21.132c-0.645-0.131-0.781-0.529-0.97-0.85c-1.733-2.944-4.432-4.245-7.716-4.487
				c-3.839-0.283-7.442,0.707-10.949,2.153c-1.615,0.666-3.22,1.359-4.85,1.987c-1.583,0.609-3.223,0.949-4.937,0.863
				c-2.954-0.147-4.617-1.922-4.528-4.9c0.045-1.5,0.364-2.955,0.906-4.353c0.748-1.93,1.53-3.848,2.289-5.774
				c1.299-3.297,2.035-6.667,1.536-10.246c-0.412-2.948-1.449-5.622-3.157-8.051c-0.919-1.307-0.912-1.544,0.371-2.478
				c4.811-3.503,9.628-6.999,14.47-10.458c11.763-8.404,24.272-15.585,36.915-22.556c7.763-4.28,15.427-8.737,22.796-13.681
				c0.469-0.314,0.976-0.572,1.735-1.014c-0.198,3.206-1.494,5.411-3.598,7.219C284.773,234.173,282.5,236.097,280.791,238.582z
				 M369.601,185.464c1.048,1.477,1.51,3.124,1.368,4.933c-0.143,1.829-0.681,3.555-1.492,5.182
				c-2.94,5.902-6.852,11.065-11.827,15.411c-1.241,1.084-2.437,2.219-3.654,3.33c-0.051-0.041-0.103-0.082-0.154-0.124
				c1.29-2.291,2.613-4.563,3.864-6.875c3.626-6.704,7.061-13.501,9.884-20.592c0.143-0.36,0.281-0.723,0.448-1.072
				C368.575,184.538,368.913,184.494,369.601,185.464z M362.607,176.307c-5.804,15.232-13.218,29.632-22.324,43.154
				c-3.252,4.829-6.842,9.398-10.597,13.853c-3.972,4.713-8.462,8.901-12.837,13.21c-0.092,0.091-0.185,0.181-0.28,0.268
				c-1.945,1.761-2.515,1.665-3.726-0.654c-1.099-2.104-1.843-4.263-1.259-6.702c0.566-2.364,1.843-4.103,4.129-5.026
				c1.799-0.726,3.608-1.431,5.321-2.351c3.595-1.93,4.686-4.058,3.22-7.798c-1.599-4.08-0.353-7.039,2.764-9.572
				c1.955-1.589,3.983-3.09,5.979-4.629c3.448-2.658,6.525-5.693,9.171-9.15c3.635-4.751,5.553-10.176,6.221-16.08
				c0.087-0.771,0.177-1.543,0.225-2.317c0.341-5.533-1.826-9.936-6.105-13.344c-2.064-1.644-2.146-1.93,0.068-3.425
				c6.66-4.493,12.106-10.311,17.482-16.16c3.888-4.229,7.466-8.76,10.259-13.837c0.241-0.437,0.568-0.827,0.854-1.238
				c0.152,0.052,0.304,0.104,0.457,0.156c-0.115,1.914-0.193,3.832-0.351,5.743C370.253,152.822,367.026,164.709,362.607,176.307z
				 M372.482,111.248c-0.943,3.231-1.766,6.5-2.164,9.846c-0.271,2.281-0.899,4.417-1.872,6.485
				c-1.708,3.629-3.704,7.075-6.221,10.31c-0.626-0.447-0.66-0.932-0.791-1.351c-1.141-3.642-2.193-7.314-3.407-10.931
				c-1.934-5.76-3.527-11.643-6.057-17.189c-0.364-0.798-0.455-2.279-1.664-1.981c-0.971,0.24-0.568,1.576-0.58,2.432
				c-0.066,5.071,0.755,10.057,1.64,15.023c0.806,4.521,1.764,9.016,2.691,13.515c0.418,2.032,0.985,4.032,2.019,5.848
				c0.528,0.927,0.487,1.64-0.296,2.407c-2.931,2.868-1.642,3.108-5.133,0.636c-12.169-8.616-18.513-20.45-19.017-35.335
				c-0.25-7.378,0.852-14.578,3.653-21.463c2.825-6.945,7.362-12.416,13.927-16.121c3.976-2.244,8.197-3.118,12.716-2.066
				c5.875,1.367,11.178,6.264,11.395,13.698c0.081,2.789-0.046,5.56-0.405,8.326c-0.108,0.832-0.17,1.675-0.173,2.513
				c-0.004,1.035,0.362,1.924,1.37,2.375c0.995,0.445,1.898,0.141,2.72-0.481c0.257-0.195,0.498-0.415,0.726-0.643
				c2.374-2.382,4.73-4.775,6.965-7.297c4.656-5.253,9.689-10.068,16.223-13.014c1.98-0.893,4.028-1.485,6.176-1.519
				c3.306-0.052,6.012,1.266,8.018,3.943c3.215,4.291,3.93,9.239,3.548,14.374c-0.537,7.226-2.346,14.146-5.498,20.701
				c-2.594,5.395-5.952,10.287-9.623,14.988c-2.757,3.531-5.934,6.663-9.136,9.773c-3.796,3.687-8.194,6.501-12.922,8.829
				c-0.986,0.486-1.977,0.964-2.966,1.443c-0.717,0.347-1.127,0.179-1.094-0.676c0.019-0.517,0.059-1.033,0.096-1.549
				c0.055-0.774,0.27-1.573,0.147-2.317c-0.45-2.733,0.886-4.491,2.687-6.392c5.345-5.64,10.004-11.851,14.284-18.341
				c1.995-3.024,3.976-6.057,5.701-9.246c0.313-0.578,1.081-1.338,0.387-1.88c-0.714-0.558-1.256,0.378-1.701,0.852
				c-2.391,2.546-4.824,5.059-7.07,7.73c-1.875,2.23-3.993,4.23-5.801,6.523c-1.999,2.537-4.167,4.94-6.269,7.395
				c-0.421,0.491-0.853,0.976-1.315,1.427c-0.93,0.908-1.218,0.855-1.487-0.355c-0.632-2.839-1.235-5.686-1.795-8.54
				c-0.122-0.622-0.031-1.29-0.008-1.936c0.129-3.567-0.072-7.116-0.645-10.639c-0.106-0.652,0.02-1.669-0.875-1.729
				C372.695,109.591,372.666,110.618,372.482,111.248z M335.257,170.74c0.376-0.252,0.782-0.459,1.155-0.715
				c0.625-0.429,1.202-0.408,1.747,0.127c1.704,1.674,3.526,3.226,4.829,5.284c1.124,1.775,1.508,3.675,1.425,5.734
				c-0.4,9.952-4.957,17.778-12.354,24.135c-2.157,1.854-4.404,3.602-6.607,5.402c-1.57,1.283-2.836,2.835-3.882,4.559
				c-1.598,2.634-1.99,5.431-1.018,8.386c0.242,0.738,0.516,1.468,0.706,2.219c0.387,1.528,0.113,2.28-1.252,3.107
				c-0.88,0.533-1.843,0.938-2.789,1.352c-0.888,0.389-1.811,0.698-2.707,1.07c-4.464,1.854-6.827,5.81-6.366,10.65
				c0.271,2.843,1.334,5.376,3.007,7.672c0.802,1.101,0.779,1.126-0.263,2.013c-7.636,6.495-15.561,12.63-23.397,18.877
				c-5.358,4.271-10.805,8.439-15.951,12.971c-1.28,1.127-2.642,1.541-4.272,0.92c-3.75-1.431-6.892-3.607-8.564-7.394
				c-1.772-4.014-0.576-7.585,1.935-10.867c0.587-0.768,1.292-1.446,1.943-2.166c3.156-3.297,7.113-5.103,11.45-6.21
				c2.512-0.641,4.979-1.415,7.335-2.51c0.999-0.464,1.981-0.968,2.824-1.687c1.484-1.266,1.906-2.705,1.214-4.518
				c-0.367-0.96-0.878-1.874-1.4-2.764c-0.875-1.492-0.844-2.981,0.008-4.421c0.69-1.166,1.449-2.309,2.561-3.14
				c1.824-1.363,3.374-3.019,4.955-4.639c2.533-2.596,3.67-5.732,3.454-9.355c-0.012-0.194-0.006-0.391-0.041-0.581
				c-0.292-1.583,0.303-2.577,1.682-3.509c5.361-3.625,10.366-7.725,15.259-11.956c1.723-1.49,3.142-3.255,4.33-5.2
				c0.505-0.827,0.964-1.678,1.627-2.405c0.549-0.602,0.916-1.34,0.373-2.108c-0.638-0.9-1.514-0.603-2.259-0.176
				c-4.851,2.782-10.352,3.628-15.581,5.282c-0.246,0.078-0.497,0.15-0.751,0.196c-1.09,0.195-1.545-0.103-1.81-1.183
				c-0.174-0.708-0.092-1.417,0.041-2.119c0.47-2.489,1.222-4.896,2.21-7.225c0.534-1.258,1.267-2.4,2.22-3.393
				c2.432-2.532,5.08-4.761,8.325-6.217C319.178,180.392,327.446,175.982,335.257,170.74z M333.795,160.997
				c1.806-0.507,3.63-0.775,5.571-0.497c-6.391,4.296-13.038,8.119-19.704,11.927C323.612,167.656,327.453,162.775,333.795,160.997z
				 M167.87,241.07c0.677-0.497,1.413-0.911,2.115-1.374c10.404-6.865,21.517-12.395,32.878-17.455
				c3.369-1.501,6.735-3.008,10.114-4.486c0.572-0.25,1.103-0.692,2.3-0.498c-1.551,1.86-2.969,3.423-4.742,4.598
				c-2.866,1.901-5.886,3.508-9.203,4.514c-1.98,0.6-3.975,1.189-5.888,1.969c-3.447,1.406-4.369,3.677-3.084,7.167
				c0.964,2.618,0.801,3.188-1.412,4.93c-0.762,0.6-1.518,1.209-2.294,1.792c-3.337,2.51-7.124,3.281-11.199,2.8
				c-2.703-0.318-5.367-0.861-7.956-1.718c-0.49-0.162-0.974-0.359-1.433-0.595C166.992,242.163,166.937,241.755,167.87,241.07z
				 M147.203,256.491c4.685-3.985,9.556-7.719,14.573-11.27c1.632-1.155,1.637-1.127,3.189-0.015
				c3.414,2.446,7.329,3.524,11.42,3.994c7.317,0.842,13.5-1.519,18.598-6.808c2.566-2.662,2.907-4.76,1.261-8.074
				c-0.926-1.865-0.807-2.29,1.177-2.958c1.775-0.598,3.618-0.992,5.411-1.54c5.546-1.695,10.396-4.571,14.497-8.682
				c1.248-1.251,1.971-2.782,1.783-4.548c-0.124-1.159,0.361-1.586,1.317-1.977c5.454-2.226,10.976-4.271,16.584-6.068
				c6.715-2.153,13.441-4.28,20.205-6.275c12.227-3.608,24.405-7.367,36.521-11.33c1.525-0.499,3.032-1.056,4.928-1.72
				c-1.578,2.493-2.612,4.812-3.195,7.323c-0.615,2.651-1.365,5.283-0.476,8.022c0.276,0.851-0.309,0.997-0.933,1.068
				c-2.057,0.236-4.111,0.506-6.174,0.683c-9.546,0.816-19.078,1.729-28.426,3.956c-1.699,0.405-3.39,0.843-5.08,1.283
				c-6.371,1.66-11.11,5.64-15.103,10.665c-1.448,1.822-2.865,3.671-4.259,5.535c-1.208,1.615-2.638,2.41-4.792,2.223
				c-6.818-0.592-13.053,1.404-18.924,4.708c-6.084,3.424-11.371,7.801-16.057,13.001c-3.817,4.236-7.521,8.543-10.802,13.204
				c-1.191,1.691-2.335,3.423-3.381,5.206c-0.585,0.998-1.325,1.51-2.451,1.612c-4.625,0.419-8.33,2.605-11.402,5.99
				c-5.162,5.686-4.469,11.59-0.155,17.21c0.55,0.717,1.311,1.277,2.152,1.625c1.811,0.75,1.421,1.207,1.123,2.556
				c-0.671,3.035-1.224,6.089-1.642,9.169c-0.538,3.968-0.053,7.876,0.619,11.776c0.054,0.316,0.159,0.629,0.282,0.926
				c0.784,1.888,2.48,2.368,4.056,1.077c1.202-0.984,2.268-2.124,3.167-3.401c1.675-2.38,3.335-4.771,5.002-7.158
				c0.222-0.318,0.419-0.659,0.674-0.948c0.754-0.854,1.1-0.91,1.908-0.089c1.725,1.751,3.4,3.569,4.743,5.629
				c1.562,2.396,2.674,5.047,3.458,7.781c1.072,3.738,0.384,7.327-1.603,10.634c-2.111,3.512-4.802,6.578-7.657,9.496
				c-2.266,2.316-4.443,4.703-6.284,7.377c-1.591,2.311-2.807,4.785-3.458,7.539c-1.158,4.898,0.492,8.756,4.247,11.878
				c0.198,0.165,0.436,0.281,0.635,0.445c0.804,0.662,0.807,0.929,0.004,1.669c-0.237,0.218-0.526,0.38-0.767,0.594
				c-2.567,2.276-5.136,4.551-7.098,7.408c-3.165,4.607-3.317,10.172-0.443,14.398c0.942,1.385,2.237,2.319,3.638,3.141
				c4.47,2.622,9.26,3.073,14.259,2.07c0.378-0.076,0.753-0.166,1.132-0.238c0.043-0.008,0.1,0.057,0.255,0.153
				c-1.231,1.231-2.377,2.525-3.672,3.645c-3.961,3.424-7.914,6.854-12.036,10.093c-6.258,4.918-13.16,8.663-20.388,11.906
				c-9.115,4.091-18.61,6.732-28.554,7.668c-5.725,0.539-11.383,0.244-16.791-2.017c-5.012-2.096-9.051-5.471-12.532-9.561
				c-6.339-7.448-10.165-16.184-12.697-25.505c-1.9-6.995-2.307-14.154-1.499-21.374c0.367-3.279,0.724-6.562,0.951-9.853
				c0.251-3.647,1.139-7.15,2.124-10.639c0.414-1.467,0.454-1.41,2.006-1.382c3.761,0.067,7.496-0.361,11.219-0.792
				c5.852-0.678,11.684-1.499,17.29-3.442c1.787-0.619,3.464-1.439,5.017-2.512c4.31-2.976,5.979-7.224,4.807-12.318
				c-0.275-1.196-0.664-2.366-1.021-3.542c-0.68-2.239-1.152-4.513-1.212-6.861c-0.077-2.994,0.878-5.548,3.012-7.718
				c2.096-2.133,4.405-4.004,6.755-5.825c6.979-5.407,9.487-12.652,8.829-21.213c-0.14-1.821-0.683-3.562-1.467-5.208
				c-1.529-3.214-3.189-6.357-5.186-9.313c-0.932-1.379-0.944-1.418,0.225-2.61C138.628,263.976,142.864,260.181,147.203,256.491z
				 M138.891,206.714c0.786-0.447,1.602-0.846,2.425-1.222c5.938-2.72,10.602-1.147,15.237,3.883
				c1.044,1.133,1.321,2.647,1.597,4.112c0.802,4.251,0.091,8.378-1.144,12.439c-1.345,4.422-3.541,8.465-5.713,12.515
				c-2.018,3.763-4.044,7.521-6.026,11.302c-0.61,1.164-1.332,2.152-2.419,2.955c-1.554,1.147-2.971,2.479-4.55,3.821
				c-0.349-0.609-0.027-1.059,0.1-1.49c2.528-8.63,5.258-17.202,7.374-25.949c0.335-1.383,0.659-2.77,0.97-4.158
				c0.083-0.368,0.231-0.858-0.234-1.021c-0.483-0.17-0.624,0.32-0.765,0.666c-0.979,2.395-1.964,4.788-2.921,7.193
				c-3.688,9.263-7.051,18.64-9.638,28.276c-0.573,2.134-2.328,3.155-3.997,4.445c0.244-3.349,0.455-6.701,0.739-10.047
				c0.509-5.997,0.831-12.004,0.99-18.02c0.082-3.104,0.165-6.208,0.243-9.313c0.011-0.453,0.048-0.913-0.017-1.357
				c-0.102-0.703,0.372-1.826-0.608-1.965c-0.824-0.117-0.819,1.015-1.02,1.647c-1.119,3.524-1.766,7.16-2.415,10.79
				c-1.561,8.737-2.472,17.552-3.032,26.404c-0.122,1.936-0.129,3.881,0.148,5.813c0.073,0.506,0.195,1.013-0.05,1.522
				c-0.661,1.372-1.722,1.695-2.993,0.823c-1.022-0.701-1.848-1.604-2.495-2.676c-3.246-5.377-4.616-11.123-4.033-17.443
				c1.013-10.978,4.211-21.162,10.403-30.324C128.737,214.872,133.069,210.022,138.891,206.714z"/>
			<path d="M142.138,423.284c4.111-0.072,7.845-1.412,10.863-4.349c1.469-1.429,2.01-3.166,1.276-5.12
				c-0.753-2.005-2.447-2.823-4.438-2.829c-3.803-0.011-7.221,1.155-10.066,3.768c-0.547,0.56-1.063,1.13-1.439,1.819
				C136.574,419.802,138.48,423.348,142.138,423.284z"/>
			<path d="M86.817,370.882c-0.326,0.553-0.63,1.139-0.823,1.748c-0.785,2.472-1.308,4.995-1.29,7.607
				c0.005,0.779,0.086,1.547,0.333,2.291c0.732,2.204,2.812,3.315,5.067,2.708c1.092-0.294,1.999-0.887,2.804-1.709
				c2.725-3.259,3.708-6.982,2.901-11.174c-0.06-0.313-0.17-0.63-0.321-0.91c-0.931-1.716-2.145-3.129-4.263-3.214
				C89.216,368.146,87.803,369.212,86.817,370.882z"/>
			<path d="M185.381,282.106c2.159-3.546,4.648-6.866,7.372-9.975c5.66-6.46,11.926-12.21,19.717-16.098
				c5.905-2.947,11.762-5.988,18.106-7.921c1.237-0.377,2.162-1.099,2.819-2.22c1.453-2.477,3.401-4.583,5.42-6.567
				c5.107-5.019,10.885-9.125,17.352-12.265c2.907-1.412,5.737-2.986,8.692-4.306c0.353-0.158,0.732-0.383,0.588-0.859
				c-0.104-0.345-0.462-0.426-0.79-0.459c-1.166-0.117-2.331-0.083-3.48,0.138c-1.909,0.367-3.776,0.872-5.588,1.597
				c-10.196,4.083-18.588,10.616-25.689,18.898c-0.494,0.576-1.04,0.935-1.746,1.129c-6.042,1.663-11.549,4.53-16.966,7.587
				c-5.551,3.133-10.75,6.746-14.933,11.624c-3.966,4.625-7.474,9.589-10.491,14.887c-1.154,2.027-2.119,4.151-2.786,6.393
				c-0.232,0.779-0.569,1.571-0.259,2.547c0.826-0.205,0.918-0.764,1.108-1.223C184.251,283.991,184.808,283.047,185.381,282.106z"
				/>
		</g>
	</g>
</g>
</svg>
