<?xml version="1.0" encoding="UTF-8" standalone="no"?><svg xmlns:svg="http://www.w3.org/2000/svg" xmlns="http://www.w3.org/2000/svg" xmlns:xlink="http://www.w3.org/1999/xlink" version="1.0" width="250px" height="250px" viewBox="0 0 128 128" xml:space="preserve"><g><path d="M64 0a8 8 0 0 1 8 8c0 4.42-8 25.5-8 25.5S56 12.42 56 8a8 8 0 0 1 8-8z" fill="#153e96"/><path d="M64 0a8 8 0 0 1 8 8c0 4.42-8 25.5-8 25.5S56 12.42 56 8a8 8 0 0 1 8-8z" fill="#f9fafc" transform="rotate(30 64 64)"/><path d="M64 0a8 8 0 0 1 8 8c0 4.42-8 25.5-8 25.5S56 12.42 56 8a8 8 0 0 1 8-8z" fill="#eaeef6" transform="rotate(60 64 64)"/><path d="M64 0a8 8 0 0 1 8 8c0 4.42-8 25.5-8 25.5S56 12.42 56 8a8 8 0 0 1 8-8z" fill="#d8deed" transform="rotate(90 64 64)"/><path d="M64 0a8 8 0 0 1 8 8c0 4.42-8 25.5-8 25.5S56 12.42 56 8a8 8 0 0 1 8-8z" fill="#c3cee4" transform="rotate(120 64 64)"/><path d="M64 0a8 8 0 0 1 8 8c0 4.42-8 25.5-8 25.5S56 12.42 56 8a8 8 0 0 1 8-8z" fill="#adbcda" transform="rotate(150 64 64)"/><path d="M64 0a8 8 0 0 1 8 8c0 4.42-8 25.5-8 25.5S56 12.42 56 8a8 8 0 0 1 8-8z" fill="#97a9d0" transform="rotate(180 64 64)"/><path d="M64 0a8 8 0 0 1 8 8c0 4.42-8 25.5-8 25.5S56 12.42 56 8a8 8 0 0 1 8-8z" fill="#7f95c5" transform="rotate(210 64 64)"/><path d="M64 0a8 8 0 0 1 8 8c0 4.42-8 25.5-8 25.5S56 12.42 56 8a8 8 0 0 1 8-8z" fill="#6882bb" transform="rotate(240 64 64)"/><path d="M64 0a8 8 0 0 1 8 8c0 4.42-8 25.5-8 25.5S56 12.42 56 8a8 8 0 0 1 8-8z" fill="#516fb1" transform="rotate(270 64 64)"/><path d="M64 0a8 8 0 0 1 8 8c0 4.42-8 25.5-8 25.5S56 12.42 56 8a8 8 0 0 1 8-8z" fill="#3c5ea7" transform="rotate(300 64 64)"/><path d="M64 0a8 8 0 0 1 8 8c0 4.42-8 25.5-8 25.5S56 12.42 56 8a8 8 0 0 1 8-8z" fill="#284e9f" transform="rotate(330 64 64)"/><animateTransform attributeName="transform" type="rotate" values="0 64 64;30 64 64;60 64 64;90 64 64;120 64 64;150 64 64;180 64 64;210 64 64;240 64 64;270 64 64;300 64 64;330 64 64" calcMode="discrete" dur="960ms" repeatCount="indefinite"></animateTransform></g></svg>